<svg xmlns="http://www.w3.org/2000/svg" width="50.919" height="51.69" viewBox="0 0 50.919 51.69"><defs><style>.a{fill:#ede7d9;}</style></defs><path class="a" d="M.071,24.6a30.368,30.368,0,0,0,.047,4.618,38.6,38.6,0,0,0,1.919,6.867,21.169,21.169,0,0,0,3.354,6.731,24.023,24.023,0,0,0,9.161,6.21c1.627.7,3.535,1.927,5.3,2.227,1.275.217,2.726.31,4.021.4,4.323.3,8.923-1.353,12.869-2.96a26.17,26.17,0,0,0,7.421-4.527c5.028-4.252,7.012-11.743,6.735-18.157a27.758,27.758,0,0,0-6.218-15.767A29.833,29.833,0,0,0,38.85,4.127a16.43,16.43,0,0,0-6.682-2.79C28.809.7,25.123-.507,21.676.233,20.1.571,18.443.915,16.83,1.371c-1.632.461-3.222,1.066-4.843,1.419A10.156,10.156,0,0,0,7.613,5.448,19.737,19.737,0,0,0,3.581,9.476c-.975,1.52-1.2,3.181-1.75,4.878-.263.814-.434,1.619-.681,2.433-.179.591-.484,1.129-.679,1.71C-.242,20.626.145,22.137.071,24.6Z"/></svg>