<?xml version="1.0" encoding="UTF-8" standalone="no"?>
<svg
   xmlns:dc="http://purl.org/dc/elements/1.1/"
   xmlns:cc="http://creativecommons.org/ns#"
   xmlns:rdf="http://www.w3.org/1999/02/22-rdf-syntax-ns#"
   xmlns:svg="http://www.w3.org/2000/svg"
   xmlns="http://www.w3.org/2000/svg"
   xmlns:sodipodi="http://sodipodi.sourceforge.net/DTD/sodipodi-0.dtd"
   xmlns:inkscape="http://www.inkscape.org/namespaces/inkscape"
   width="746.70715"
   height="125.83838"
   viewBox="0 0 746.70716 125.83838"
   version="1.1"
   id="svg66"
   sodipodi:docname="cima.svg"
   inkscape:version="0.92.3 (2405546, 2018-03-11)">
  <metadata
     id="metadata70">
    <rdf:RDF>
      <cc:Work
         rdf:about="">
        <dc:format>image/svg+xml</dc:format>
        <dc:type
           rdf:resource="http://purl.org/dc/dcmitype/StillImage" />
        <dc:title></dc:title>
      </cc:Work>
    </rdf:RDF>
  </metadata>
  <sodipodi:namedview
     pagecolor="#ffffff"
     bordercolor="#666666"
     borderopacity="1"
     objecttolerance="10"
     gridtolerance="10"
     guidetolerance="10"
     inkscape:pageopacity="0"
     inkscape:pageshadow="2"
     inkscape:window-width="1920"
     inkscape:window-height="1052"
     id="namedview68"
     showgrid="false"
     inkscape:zoom="0.99662725"
     inkscape:cx="334.65243"
     inkscape:cy="204.89134"
     inkscape:window-x="0"
     inkscape:window-y="0"
     inkscape:window-maximized="1"
     inkscape:current-layer="svg66"
     fit-margin-top="0"
     fit-margin-left="0"
     fit-margin-right="0"
     fit-margin-bottom="0" />
  <defs
     id="defs62">
    <style
       id="style60">.a{fill:#fdeec9;}</style>
  </defs>
  <path
     class="a"
     d="m -41.602109,-166.56516 722.856289,1.47173 c 0.59,0.54779 1.18404,1.10277 1.76272,1.64581 25.62155,23.98997 50.79619,51.98225 58.4781,81.284779 0.10707,0.426219 0.21398,0.84775 0.31775,1.274447 3.51556,14.515774 2.24865,29.66219 2.41994,44.229351 a 206.13046,133.95032 0.49545994 0 1 -8.66925,38.9549359 c -6.03565,13.1397591 -17.04907,26.1818891 -32.1415,35.8983311 -14.67814,9.454262 -32.56972,20.45929 -50.87705,26.789467 -11.15281,3.858476 -23.51262,7.142338 -34.75589,10.747462 -11.47009,3.68236 -22.86391,7.324378 -34.95724,10.090085 -23.80269,5.441802 -49.53753,8.766472 -74.43858,11.536461 -0.82899,0.0934 -1.64998,0.17966 -2.47096,0.27267 -32.04092,3.532341 -62.77911,3.582361 -95.07464,3.689471 C 374.62399,101.44156 340.47802,96.827669 305.00492,92.212 286.79951,89.84323 269.54964,87.37624 251.71178,84.191344 232.52262,80.773059 213.39248,76.918483 195.31901,71.403921 184.29295,68.039427 173.6595,64.08943 162.66997,60.644976 126.35833,49.239335 92.623731,32.911822 59.336941,18.245288 30.205748,5.4201279 0.69612275,-6.9824808 -29.50702,-18.714203 q -5.512229,-2.143267 -11.092551,-4.109615 z"
     id="path64"
     inkscape:connector-curvature="0"
     style="fill:#fdeec9;stroke-width:0.64998853" />
</svg>
