<?xml version="1.0" encoding="UTF-8" standalone="no"?>
<svg
   xmlns:dc="http://purl.org/dc/elements/1.1/"
   xmlns:cc="http://creativecommons.org/ns#"
   xmlns:rdf="http://www.w3.org/1999/02/22-rdf-syntax-ns#"
   xmlns:svg="http://www.w3.org/2000/svg"
   xmlns="http://www.w3.org/2000/svg"
   xmlns:sodipodi="http://sodipodi.sourceforge.net/DTD/sodipodi-0.dtd"
   xmlns:inkscape="http://www.inkscape.org/namespaces/inkscape"
   width="894"
   height="200"
   viewBox="0 0 894.00001 200"
   version="1.1"
   id="svg66"
   sodipodi:docname="cimatablet.svg"
   inkscape:version="1.0 (6e3e5246a0, 2020-05-07)">
  <metadata
     id="metadata70">
    <rdf:RDF>
      <cc:Work
         rdf:about="">
        <dc:format>image/svg+xml</dc:format>
        <dc:type
           rdf:resource="http://purl.org/dc/dcmitype/StillImage" />
        <dc:title></dc:title>
      </cc:Work>
    </rdf:RDF>
  </metadata>
  <sodipodi:namedview
     pagecolor="#ffffff"
     bordercolor="#666666"
     borderopacity="1"
     objecttolerance="10"
     gridtolerance="10"
     guidetolerance="10"
     inkscape:pageopacity="0"
     inkscape:pageshadow="2"
     inkscape:window-width="1920"
     inkscape:window-height="1052"
     id="namedview68"
     showgrid="false"
     inkscape:zoom="0.99662725"
     inkscape:cx="334.65243"
     inkscape:cy="204.89134"
     inkscape:window-x="0"
     inkscape:window-y="0"
     inkscape:window-maximized="1"
     inkscape:current-layer="svg66"
     fit-margin-top="0"
     fit-margin-left="0"
     fit-margin-right="0"
     fit-margin-bottom="0"
     inkscape:document-rotation="0"
     height="746.70715px" />
  <defs
     id="defs62">
    <style
       id="style60">.a{fill:#fdeec9;}</style>
  </defs>
  <path
     class="a"
     d="m -31.188809,-134.17632 847.320609,1.47173 c 0.69159,0.54779 1.38791,1.10277 2.06624,1.64581 30.03317,23.98997 59.54248,51.982252 68.54709,81.284781 0.1255,0.426219 0.25083,0.84775 0.37247,1.274447 4.12087,14.515774 2.63582,29.66219 2.83661,44.2293503 A 241.62079,133.95146 0.35253966 0 1 879.79225,34.684735 c -7.0749,13.139759 -19.98466,26.181888 -37.67576,35.898328 -17.20548,9.454264 -38.1777,20.459294 -59.63725,26.789481 -13.07316,3.858466 -27.56113,7.142336 -40.74031,10.747446 -13.44505,3.68236 -26.80072,7.32438 -40.97633,10.09009 -27.90112,5.4418 -58.06709,8.76647 -87.25571,11.53646 -0.97173,0.0934 -1.93409,0.17966 -2.89641,0.27267 -37.55786,3.53234 -73.58868,3.58236 -111.44499,3.68947 -42.46071,0.12172 -82.48606,-4.49217 -124.06707,-9.10784 -21.34009,-2.36877 -41.56011,-4.83576 -62.46937,-8.02066 -22.49323,-3.41828 -44.91727,-7.27286 -66.10271,-12.78741 -12.92457,-3.3645 -25.38893,-7.314486 -38.27068,-10.758953 C 165.69174,81.628177 126.1486,65.300663 87.130332,50.634134 52.983215,37.80897 18.392505,25.406361 -17.011139,13.67464 q -6.461345,-2.143268 -13.002512,-4.1096156 z"
     id="path64"
     inkscape:connector-curvature="0"
     style="fill:#fdeec9;stroke-width:0.703727" />
</svg>
