<?xml version="1.0" encoding="UTF-8" standalone="no"?>
<svg
   xmlns:dc="http://purl.org/dc/elements/1.1/"
   xmlns:cc="http://creativecommons.org/ns#"
   xmlns:rdf="http://www.w3.org/1999/02/22-rdf-syntax-ns#"
   xmlns:svg="http://www.w3.org/2000/svg"
   xmlns="http://www.w3.org/2000/svg"
   xmlns:sodipodi="http://sodipodi.sourceforge.net/DTD/sodipodi-0.dtd"
   xmlns:inkscape="http://www.inkscape.org/namespaces/inkscape"
   inkscape:version="0.92.3 (2405546, 2018-03-11)"
   sodipodi:docname="direitacimamobile.svg"
   id="svg8"
   version="1.1"
   viewBox="0 0 206.65829 404.25765"
   height="404.25769"
   width="206.65828">
  <metadata
     id="metadata12">
    <rdf:RDF>
      <cc:Work
         rdf:about="">
        <dc:format>image/svg+xml</dc:format>
        <dc:type
           rdf:resource="http://purl.org/dc/dcmitype/StillImage" />
        <dc:title />
      </cc:Work>
    </rdf:RDF>
  </metadata>
  <sodipodi:namedview
     inkscape:current-layer="svg8"
     inkscape:window-maximized="1"
     inkscape:window-y="0"
     inkscape:window-x="0"
     inkscape:cy="255.94272"
     inkscape:cx="240.39577"
     inkscape:zoom="2.1637754"
     fit-margin-bottom="0"
     fit-margin-right="0"
     fit-margin-left="0"
     fit-margin-top="0"
     units="px"
     showgrid="false"
     id="namedview10"
     inkscape:window-height="1052"
     inkscape:window-width="1920"
     inkscape:pageshadow="2"
     inkscape:pageopacity="0"
     guidetolerance="10"
     gridtolerance="10"
     objecttolerance="10"
     borderopacity="1"
     bordercolor="#666666"
     pagecolor="#ffffff" />
  <defs
     id="defs4">
    <style
       id="style2">.a{fill:#ede7d9;}</style>
    <style
       id="style14">.a{fill:#ede7d9;}</style>
  </defs>
  <path
     style="fill:#ede7d9;stroke-width:1.01190996"
     id="path6"
     d="m 33.560698,-23.967755 c 0.352465,-7.068864 0.935719,-14.657963 1.762721,-22.821794 a 396.12787,404.93233 89.060122 0 1 6.849839,-44.752813 c 3.656151,-16.691478 8.791769,-37.746438 16.102944,-52.495458 7.123338,-14.37108 12.819664,-24.60868 18.471058,-33.20605 a 120.8962,123.58328 89.060122 0 1 28.79058,-31.19377 c 3.9502,-2.97071 7.98703,-5.66581 11.88408,-8.26926 3.03553,-2.02572 6.17377,-4.11876 9.24722,-6.33005 0.40475,-0.29061 0.79758,-0.60983 1.18532,-0.92928 1.38766,-1.12519 2.68938,-2.19129 4.2008,-1.77251 l -0.16485,1.72476 c -1.32443,-0.36889 -2.54165,0.62499 -3.8313,1.67466 -0.39729,0.32603 -0.80084,0.65477 -1.21513,0.95192 -3.08082,2.21498 -6.22328,4.31081 -9.26303,6.33932 -3.8959,2.60053 -7.92319,5.28904 -11.86062,8.25034 a 119.98243,122.64919 89.060122 0 0 -28.58445,30.96297 c -5.614953,8.54398 -11.279037,18.73099 -18.374561,33.03723 -7.198551,14.52386 -12.279514,35.36594 -15.903356,51.902619 a 392.07444,400.78881 89.060122 0 0 -6.784094,44.338056 c -2.424781,23.98009 -2.784088,42.956915 -1.111033,58.006065 2.353645,21.18159 5.382757,45.22972 11.563849,62.512934 a 137.99465,141.06177 89.060122 0 0 12.370748,25.766919 c 6.689575,10.823917 14.678057,16.057377 21.641487,20.115357 16.6902,9.72087 34.80338,10.2538 52.32177,10.75976 l 1.64559,0.0493 a 184.27278,188.36848 89.060122 0 0 23.30089,-1.20925 202.11486,206.60713 89.060122 0 1 21.45186,-1.24605 c 16.12269,0.16977 28.42059,2.43838 39.8746,7.37585 a 92.605284,94.663558 89.060122 0 1 29.56696,19.89577 109.59264,112.02848 89.060122 0 1 19.87954,26.52875 c 7.06246,13.30848 12.85327,30.3048 17.96336,45.30012 a 161.32438,164.91002 89.060122 0 1 7.73765,26.0802 104.02994,106.34214 89.060122 0 1 4.66726,29.91594 l -0.77376,0.23521 a 100.92432,103.16749 89.060122 0 0 -4.54752,-29.09265 l -0.0353,-0.12996 a 159.49383,163.03879 89.060122 0 0 -7.65988,-25.82908 c -5.10568,-14.9811 -10.87238,-31.90614 -17.87873,-45.10776 a 108.70489,111.121 89.060122 0 0 -19.71882,-26.30175 92.204946,94.254321 89.060122 0 0 -29.40761,-19.78405 c -11.40722,-4.91021 -23.66215,-7.17781 -39.73683,-7.34534 a 200.7437,205.20549 89.060122 0 0 -21.41698,1.24471 185.37271,189.49286 89.060122 0 1 -23.34175,1.20731 l -1.64558,-0.0493 c -17.56217,-0.51204 -35.72255,-1.04316 -52.49838,-10.81316 -7.02524,-4.09194 -15.087933,-9.378 -21.875189,-20.35882 A 139.50994,142.61073 89.060122 0 1 45.909983,75.120514 C 39.643866,57.5908 36.587247,33.355 34.215109,12.01021 a 232.30338,237.46663 89.060122 0 1 -0.654096,-35.978002 z"
     class="a"
     inkscape:connector-curvature="0" />
  <path
     class="a"
     d="m 95.019691,89.901311 a 30.368,30.368 0 0 0 0.047,4.61799 38.6,38.6 0 0 0 1.919,6.866999 21.169,21.169 0 0 0 3.353999,6.731 24.023,24.023 0 0 0 9.161,6.21 c 1.627,0.7 3.535,1.927 5.3,2.227 1.275,0.217 2.726,0.31 4.021,0.4 4.323,0.3 8.923,-1.353 12.869,-2.96 a 26.17,26.17 0 0 0 7.421,-4.527 c 5.028,-4.252 7.012,-11.742999 6.735,-18.156989 a 27.758,27.758 0 0 0 -6.218,-15.766997 29.833,29.833 0 0 0 -5.83,-6.11501 16.43,16.43 0 0 0 -6.682,-2.79 c -3.359,-0.637 -7.045,-1.844004 -10.492,-1.104 -1.576,0.338 -3.233,0.682 -4.846,1.138 -1.632,0.461 -3.222,1.066 -4.843,1.419 a 10.156,10.156 0 0 0 -4.374,2.658 19.737,19.737 0 0 0 -4.031999,4.02801 c -0.975,1.52 -1.2,3.181 -1.75,4.878 -0.263,0.814 -0.434,1.619 -0.681,2.433 -0.179,0.591003 -0.48401,1.129003 -0.679,1.710003 -0.713,2.128997 -0.326,3.639997 -0.4,6.102994 z"
     id="path18"
     inkscape:connector-curvature="0"
     style="fill:#ede7d9" />
</svg>
