<?xml version="1.0" encoding="UTF-8" standalone="no"?>
<svg
   xmlns:dc="http://purl.org/dc/elements/1.1/"
   xmlns:cc="http://creativecommons.org/ns#"
   xmlns:rdf="http://www.w3.org/1999/02/22-rdf-syntax-ns#"
   xmlns:svg="http://www.w3.org/2000/svg"
   xmlns="http://www.w3.org/2000/svg"
   xmlns:sodipodi="http://sodipodi.sourceforge.net/DTD/sodipodi-0.dtd"
   xmlns:inkscape="http://www.inkscape.org/namespaces/inkscape"
   inkscape:version="1.0 (6e3e5246a0, 2020-05-07)"
   sodipodi:docname="direitacimamobile.svg"
   id="svg8"
   version="1.1"
   viewBox="0 0 206.65829 404.25765"
   height="404.25769"
   width="206.65828">
  <metadata
     id="metadata12">
    <rdf:RDF>
      <cc:Work
         rdf:about="">
        <dc:format>image/svg+xml</dc:format>
        <dc:type
           rdf:resource="http://purl.org/dc/dcmitype/StillImage" />
        <dc:title></dc:title>
      </cc:Work>
    </rdf:RDF>
  </metadata>
  <sodipodi:namedview
     inkscape:current-layer="svg8"
     inkscape:window-maximized="1"
     inkscape:window-y="0"
     inkscape:window-x="0"
     inkscape:cy="255.94272"
     inkscape:cx="240.39577"
     inkscape:zoom="2.1637754"
     fit-margin-bottom="0"
     fit-margin-right="0"
     fit-margin-left="0"
     fit-margin-top="0"
     units="px"
     showgrid="false"
     id="namedview10"
     inkscape:window-height="1052"
     inkscape:window-width="1920"
     inkscape:pageshadow="2"
     inkscape:pageopacity="0"
     guidetolerance="10"
     gridtolerance="10"
     objecttolerance="10"
     borderopacity="1"
     bordercolor="#666666"
     pagecolor="#ffffff" />
  <defs
     id="defs4">
    <style
       id="style2">.a{fill:#ede7d9;}</style>
    <style
       id="style14">.a{fill:#ede7d9;}</style>
  </defs>
  <path
     style="stroke-width:1.01191"
     id="path6"
     d="M 4.4449222,66.152504 C 4.7973872,59.08364 5.3806414,51.494542 6.2076434,43.330711 A 396.12787,404.93233 89.060122 0 1 13.057482,-1.4221023 C 16.713633,-18.11358 21.849251,-39.168533 29.160426,-53.917561 36.283764,-68.288634 41.98009,-78.526239 47.63148,-87.123606 a 120.8962,123.58328 89.060122 0 1 28.790579,-31.193774 c 3.950204,-2.97071 7.987032,-5.66581 11.884085,-8.26926 3.035533,-2.02572 6.173771,-4.11876 9.247216,-6.33005 0.404748,-0.29061 0.797584,-0.60983 1.185327,-0.92928 1.387653,-1.12519 2.689373,-2.19129 4.200793,-1.77251 l -0.16485,1.72476 c -1.32443,-0.36889 -2.54165,0.62499 -3.831299,1.67466 -0.397286,0.32603 -0.800838,0.65477 -1.215129,0.95192 -3.080815,2.21498 -6.223282,4.31081 -9.263032,6.33932 -3.895897,2.60053 -7.923187,5.28904 -11.860616,8.25034 a 119.98243,122.64919 89.060122 0 0 -28.584453,30.962978 c -5.61495,8.543971 -11.279034,18.730982 -18.374558,33.037228 -7.198551,14.523855 -12.279514,35.365935 -15.903356,51.90261283 A 392.07444,400.78881 89.060122 0 0 6.9580928,43.563395 C 4.5333115,67.543484 4.1740053,86.520309 5.8470595,101.56946 c 2.3536451,21.18159 5.3827575,45.22972 11.5638495,62.51293 a 137.99465,141.06177 89.060122 0 0 12.370748,25.76692 c 6.689575,10.82392 14.678059,16.05738 21.641483,20.11536 16.6902,9.72087 34.803381,10.2538 52.32177,10.75976 l 1.64559,0.0493 a 184.27278,188.36848 89.060122 0 0 23.30089,-1.20925 202.11486,206.60713 89.060122 0 1 21.45186,-1.24605 c 16.12269,0.16977 28.42059,2.43838 39.8746,7.37585 a 92.605284,94.663558 89.060122 0 1 29.56696,19.89577 109.59264,112.02848 89.060122 0 1 19.87954,26.52875 c 7.06246,13.30848 12.85327,30.3048 17.96336,45.30012 a 161.32438,164.91002 89.060122 0 1 7.73765,26.0802 104.02994,106.34214 89.060122 0 1 4.66726,29.91594 l -0.77376,0.23521 a 100.92432,103.16749 89.060122 0 0 -4.54752,-29.09265 l -0.0353,-0.12996 a 159.49383,163.03879 89.060122 0 0 -7.65988,-25.82908 c -5.10568,-14.9811 -10.87238,-31.90614 -17.87873,-45.10776 A 108.70489,111.121 89.060122 0 0 219.21861,247.18907 92.204946,94.254321 89.060122 0 0 189.811,227.40502 c -11.40722,-4.91021 -23.66215,-7.17781 -39.73683,-7.34534 a 200.7437,205.20549 89.060122 0 0 -21.41698,1.24471 185.37271,189.49286 89.060122 0 1 -23.34175,1.20731 l -1.64558,-0.0493 C 86.107689,221.95036 67.947313,221.41924 51.171482,211.64924 44.146244,207.5573 36.083551,202.27124 29.296295,191.29042 A 139.50994,142.61073 89.060122 0 1 16.794207,165.24077 C 10.52809,147.71106 7.4714713,123.47526 5.0993333,102.13047 A 232.30338,237.46663 89.060122 0 1 4.4452374,66.152467 Z"
     class="a" />
  <path
     class="a"
     d="m 100.56555,105.61459 a 30.368,30.368 0 0 0 0.047,4.61799 38.6,38.6 0 0 0 1.919,6.867 21.169,21.169 0 0 0 3.354,6.731 24.023,24.023 0 0 0 9.161,6.21 c 1.627,0.7 3.535,1.927 5.3,2.227 1.275,0.217 2.726,0.31 4.021,0.4 4.323,0.3 8.923,-1.353 12.869,-2.96 a 26.17,26.17 0 0 0 7.421,-4.527 c 5.028,-4.252 7.012,-11.743 6.735,-18.15699 a 27.758,27.758 0 0 0 -6.218,-15.767 29.833,29.833 0 0 0 -5.83,-6.11501 16.43,16.43 0 0 0 -6.682,-2.79 c -3.359,-0.637 -7.045,-1.844004 -10.492,-1.104 -1.576,0.338 -3.233,0.682 -4.846,1.138 -1.632,0.461 -3.222,1.066 -4.843,1.419 a 10.156,10.156 0 0 0 -4.374,2.658 19.737,19.737 0 0 0 -4.032,4.02801 c -0.975,1.52 -1.2,3.181 -1.75,4.878 -0.263,0.814 -0.434,1.619 -0.681,2.433 -0.179,0.591003 -0.48401,1.129003 -0.679,1.710003 -0.713,2.128997 -0.326,3.639997 -0.4,6.102997 z"
     id="path18" />
</svg>
