<svg xmlns="http://www.w3.org/2000/svg" width="104.16" height="105.736" viewBox="0 0 104.16 105.736"><defs><style>.a{fill:#ede7d9;}</style></defs><path class="a" d="M355.895,393.818c0,3.052-.383,6.437.1,9.447a78.96,78.96,0,0,0,3.926,14.048c1.717,4.762,3.534,9.891,6.862,13.768,5.157,6,11.637,9.64,18.739,12.7,3.328,1.437,7.231,3.942,10.833,4.556,2.608.444,5.575.633,8.225.82,8.842.62,18.254-2.768,26.324-6.055a53.533,53.533,0,0,0,15.18-9.26c10.286-8.7,14.344-24.022,13.778-37.141-.518-12.042-5.476-22.861-12.72-32.254-3.823-4.958-7-8.778-11.916-12.511a33.609,33.609,0,0,0-13.669-5.707c-6.871-1.309-14.411-3.772-21.463-2.257-3.225.691-6.614,1.4-9.913,2.328-3.338.942-6.591,2.18-9.907,2.9-3.556.775-6.28,3.109-8.948,5.437-2.971,2.592-6.074,4.849-8.247,8.238-1.994,3.109-2.46,6.508-3.579,9.977-.537,1.665-.887,3.312-1.392,4.977-.367,1.209-.99,2.309-1.389,3.5C355.255,385.693,356.046,388.783,355.895,393.818Z" transform="translate(-355.75 -343.5)"/></svg>