<?xml version="1.0" encoding="UTF-8" standalone="no"?>
<svg
   xmlns:dc="http://purl.org/dc/elements/1.1/"
   xmlns:cc="http://creativecommons.org/ns#"
   xmlns:rdf="http://www.w3.org/1999/02/22-rdf-syntax-ns#"
   xmlns:svg="http://www.w3.org/2000/svg"
   xmlns="http://www.w3.org/2000/svg"
   xmlns:sodipodi="http://sodipodi.sourceforge.net/DTD/sodipodi-0.dtd"
   xmlns:inkscape="http://www.inkscape.org/namespaces/inkscape"
   sodipodi:docname="direitacimatablet.svg"
   inkscape:version="1.0 (6e3e5246a0, 2020-05-07)"
   id="svg1855"
   version="1.1"
   viewBox="0 0 766.99998 219.99998"
   height="220mm"
   width="767mm">
  <defs
     id="defs1849" />
  <sodipodi:namedview
     fit-margin-bottom="0"
     fit-margin-right="0"
     fit-margin-left="0"
     fit-margin-top="0"
     inkscape:window-maximized="1"
     inkscape:window-y="0"
     inkscape:window-x="0"
     inkscape:window-height="1052"
     inkscape:window-width="1920"
     showgrid="false"
     inkscape:document-rotation="0"
     inkscape:current-layer="layer1"
     inkscape:document-units="mm"
     inkscape:cy="630.63778"
     inkscape:cx="2211.1895"
     inkscape:zoom="0.35"
     inkscape:pageshadow="2"
     inkscape:pageopacity="0.0"
     borderopacity="1.0"
     bordercolor="#666666"
     pagecolor="#ffffff"
     id="base"
     width="768mm" />
  <metadata
     id="metadata1852">
    <rdf:RDF>
      <cc:Work
         rdf:about="">
        <dc:format>image/svg+xml</dc:format>
        <dc:type
           rdf:resource="http://purl.org/dc/dcmitype/StillImage" />
        <dc:title />
      </cc:Work>
    </rdf:RDF>
  </metadata>
  <g
     transform="translate(-67.085932,-12.736977)"
     id="layer1"
     inkscape:groupmode="layer"
     inkscape:label="Layer 1">
    <path
       style="fill:#ede7d9;stroke-width:0.412606"
       class="f"
       d="m 712.83851,7.9135843 a 178.54301,73.416848 0 0 1 1.24698,-8.33225902 c 1.73731,-6.23358298 4.66691,-11.44402128 9.21411,-16.39755128 5.63398,-6.134629 13.78639,-13.882159 26.90425,-19.372528 12.78262,-5.349875 23.1298,-9.171517 33.54778,-12.395994 15.3931,-4.762499 33.16626,-8.636264 54.33743,-11.840103 7.58556,-1.148292 15.37185,-2.197629 22.89561,-3.211777 5.85533,-0.788723 11.9082,-1.605227 17.81886,-2.460625 0.7792,-0.112713 1.5301,-0.235479 2.27198,-0.358246 2.64777,-0.432858 5.14755,-0.843227 8.20455,-0.716492 l -0.1571,0.630502 c -2.67865,-0.111389 -5.00922,0.270934 -7.47809,0.674688 -0.76056,0.125412 -1.53332,0.251883 -2.33055,0.366977 -5.92609,0.858308 -11.98796,1.674812 -17.84974,2.464858 -7.51476,1.012825 -15.2824,2.059781 -22.8422,3.204104 -21.03027,3.182674 -38.67087,7.027069 -53.94687,11.752791 -10.35363,3.204105 -20.64549,7.006961 -33.37212,12.332759 -12.91774,5.40676 -20.98073,13.075709 -26.56259,19.153453 -4.50409,4.902994 -7.39959,10.0652783 -9.1253,16.24541628 -2.44509,8.76538102 -1.28045,15.67338672 3.55246,21.12089072 6.80375,7.66524 15.23928,16.36209 29.29012,22.54251 7.35521,3.23691 16.52296,6.32089 27.24269,9.16278 14.42343,3.82323 30.88141,5.59038 45.1787,6.94743 34.26522,3.25094 70.45692,3.1332 105.46019,3.01916 l 3.28799,-0.0101 c 15.46064,-0.0482 31.17412,-0.44979 46.36707,-0.8382 13.97684,-0.35693 28.43118,-0.72549 42.67578,-0.82021 32.1837,-0.21405 56.9446,0.40243 80.2874,2.00131 22.868,1.56607 43.3809,3.830631 60.9598,6.731001 17.3575,2.86226 31.196,5.908139 42.3063,9.310939 15.4149,4.720701 28.6589,10.804791 40.3438,16.172141 a 109.36782,44.972023 0 0 1 18.0331,9.356191 51.539728,21.193125 0 0 1 12.284,10.80347 l -1.5211,0.0987 a 50.040508,20.576646 0 0 0 -11.968,-10.50608 l -0.083,-0.0468 a 108.08801,44.445767 0 0 0 -17.853,-9.265441 c -11.6772,-5.36259 -24.8658,-11.42128 -40.1572,-16.103881 -11.0029,-3.36999 -24.7275,-6.389139 -41.9589,-9.231029 -17.4772,-2.88264 -37.8794,-5.134511 -60.6399,-6.693961 -23.247,-1.59121 -47.9217,-2.20636 -80.0102,-1.99258 -14.2111,0.0937 -28.64354,0.46196 -42.60493,0.82021 -15.21484,0.38867 -30.94634,0.79004 -46.45007,0.83926 l -3.28801,0.0101 c -35.09012,0.11404 -71.37511,0.23151 -105.81536,-3.03583 -14.4234,-1.36842 -31.03581,-3.1533 -45.66836,-7.03209 -10.82782,-2.871 -20.09081,-5.98647 -27.53544,-9.2628 -14.24461,-6.26882 -22.75412,-15.0342 -29.61001,-22.75898 -3.26224,-3.677438 -4.88308,-7.998084 -4.88308,-13.0780837 z"
       id="path1816" />
  </g>
</svg>
