<?xml version="1.0" encoding="UTF-8" standalone="no"?>
<svg
   xmlns:dc="http://purl.org/dc/elements/1.1/"
   xmlns:cc="http://creativecommons.org/ns#"
   xmlns:rdf="http://www.w3.org/1999/02/22-rdf-syntax-ns#"
   xmlns:svg="http://www.w3.org/2000/svg"
   xmlns="http://www.w3.org/2000/svg"
   xmlns:sodipodi="http://sodipodi.sourceforge.net/DTD/sodipodi-0.dtd"
   xmlns:inkscape="http://www.inkscape.org/namespaces/inkscape"
   inkscape:version="1.0 (6e3e5246a0, 2020-05-07)"
   sodipodi:docname="direta.svg"
   id="svg8"
   version="1.1"
   viewBox="0 0 703.919 648.215"
   height="648.215"
   width="703.919">
  <metadata
     id="metadata12">
    <rdf:RDF>
      <cc:Work
         rdf:about="">
        <dc:format>image/svg+xml</dc:format>
        <dc:type
           rdf:resource="http://purl.org/dc/dcmitype/StillImage" />
        <dc:title></dc:title>
      </cc:Work>
    </rdf:RDF>
  </metadata>
  <sodipodi:namedview
     inkscape:document-rotation="0"
     inkscape:current-layer="svg8"
     inkscape:window-maximized="1"
     inkscape:window-y="0"
     inkscape:window-x="0"
     inkscape:cy="324.10751"
     inkscape:cx="351.9595"
     inkscape:zoom="0.36407672"
     showgrid="false"
     id="namedview10"
     inkscape:window-height="1052"
     inkscape:window-width="1920"
     inkscape:pageshadow="2"
     inkscape:pageopacity="0"
     guidetolerance="10"
     gridtolerance="10"
     objecttolerance="10"
     borderopacity="1"
     bordercolor="#666666"
     pagecolor="#ffffff" />
  <defs
     id="defs4">
    <style
       id="style2">.a{fill:#e77a68;}</style>
    <style
       id="style3717">.a{fill:#ede7d9;}</style>
  </defs>
  <path
     style="fill:#e77a68;stroke-width:0.852466"
     inkscape:connector-curvature="0"
     id="path6"
     d="m 729.50778,260.92552 c 17.71477,6.05188 35.22532,12.72309 52.42091,19.96025 L 695.54085,786.50922 227.96978,703.97545 c -32.59686,-49.67574 -52.59519,-103.83958 -72.53357,-156.6775 -9.90438,-26.18816 -13.23687,-52.64304 -16.76822,-79.26284 -3.3293,-25.04217 -7.10099,-51.86344 -6.1033,-76.58515 1.40105,-34.95272 16.07384,-64.68086 41.10155,-91.71914 73.89814,-79.82506 214.40216,-87.23519 334.5937,-80.77097 73.98618,3.98293 151.34715,18.06249 221.24784,41.96567 z"
     class="a" />
  <path
     style="fill:#ede7d9"
     inkscape:connector-curvature="0"
     class="a"
     d="m 338.18011,428.85866 c 0,3.052 -0.383,6.437 0.1,9.447 a 78.96,78.96 0 0 0 3.926,14.048 c 1.717,4.762 3.534,9.891 6.862,13.768 5.157,6 11.637,9.64 18.739,12.7 3.328,1.437 7.231,3.942 10.833,4.556 2.608,0.444 5.575,0.633 8.225,0.82 8.842,0.62 18.254,-2.768 26.324,-6.055 a 53.533,53.533 0 0 0 15.18,-9.26 c 10.286,-8.7 14.344,-24.022 13.778,-37.141 -0.518,-12.042 -5.476,-22.861 -12.72,-32.254 -3.823,-4.958 -7,-8.778 -11.916,-12.511 a 33.609,33.609 0 0 0 -13.669,-5.707 c -6.871,-1.309 -14.411,-3.772 -21.463,-2.257 -3.225,0.691 -6.614,1.4 -9.913,2.328 -3.338,0.942 -6.591,2.18 -9.907,2.9 -3.556,0.775 -6.28,3.109 -8.948,5.437 -2.971,2.592 -6.074,4.849 -8.247,8.238 -1.994,3.109 -2.46,6.508 -3.579,9.977 -0.537,1.665 -0.887,3.312 -1.392,4.977 -0.367,1.209 -0.99,2.309 -1.389,3.5 -1.464,4.364 -0.673,7.454 -0.824,12.489 z"
     id="path3721" />
</svg>
