<?xml version="1.0" encoding="UTF-8" standalone="no"?>
<svg
   xmlns:dc="http://purl.org/dc/elements/1.1/"
   xmlns:cc="http://creativecommons.org/ns#"
   xmlns:rdf="http://www.w3.org/1999/02/22-rdf-syntax-ns#"
   xmlns:svg="http://www.w3.org/2000/svg"
   xmlns="http://www.w3.org/2000/svg"
   xmlns:sodipodi="http://sodipodi.sourceforge.net/DTD/sodipodi-0.dtd"
   xmlns:inkscape="http://www.inkscape.org/namespaces/inkscape"
   width="276"
   height="344"
   viewBox="0 0 73.025322 91.016724"
   version="1.1"
   id="svg1908"
   inkscape:version="1.0 (6e3e5246a0, 2020-05-07)"
   sodipodi:docname="esquerdabaixomobile.svg">
  <defs
     id="defs1902">
    <clipPath
       id="a">
      <path
         id="path4"
         transform="translate(-387.355,-363.591)"
         d="m 815.951,503 h -428.6 c 27.272,-27.755 58.8,-51.545 91.2,-72.492 44.573,-28.789 91.616,-49.856 143.457,-61.588 a 207.471,207.471 0 0 1 26.9,-4.163 c 21.7,-1.985 43.971,-1.148 65.229,0.359 a 454.129,454.129 0 0 1 66.688,9.761 c 11.8,2.632 23.56,5.766 35.119,9.411 z"
         class="a" />
    </clipPath>
  </defs>
  <sodipodi:namedview
     units="px"
     id="base"
     pagecolor="#ffffff"
     bordercolor="#666666"
     borderopacity="1.0"
     inkscape:pageopacity="0.0"
     inkscape:pageshadow="2"
     inkscape:zoom="0.98994949"
     inkscape:cx="175.50576"
     inkscape:cy="169.16048"
     inkscape:document-units="mm"
     inkscape:current-layer="layer1"
     inkscape:document-rotation="0"
     showgrid="false"
     inkscape:window-width="1920"
     inkscape:window-height="1052"
     inkscape:window-x="0"
     inkscape:window-y="0"
     inkscape:window-maximized="1"
     fit-margin-top="0"
     fit-margin-left="0"
     fit-margin-right="0"
     fit-margin-bottom="0" />
  <metadata
     id="metadata1905">
    <rdf:RDF>
      <cc:Work
         rdf:about="">
        <dc:format>image/svg+xml</dc:format>
        <dc:type
           rdf:resource="http://purl.org/dc/dcmitype/StillImage" />
        <dc:title></dc:title>
      </cc:Work>
    </rdf:RDF>
  </metadata>
  <g
     inkscape:label="Layer 1"
     inkscape:groupmode="layer"
     id="layer1"
     transform="translate(52.067479,-201.98616)">
    <path
       id="path1820"
       d="m -55.604484,229.39765 0.129701,-0.59069 0.128958,-0.002 c 2.14711,-0.10348 5.085314,0.90666 7.676307,1.90709 l 0.608407,0.23488 c 3.554695,1.36044 6.905093,2.66048 10.08078,5.22171 2.675374,2.15846 6.485494,5.59129 9.153236,8.75009 5.681482,6.72743 9.521332,14.28102 11.742146,19.43328 a 99.681427,75.000818 35.546033 0 0 6.5062394,12.61567 c 0.607303,1.01514 1.223098,2.07104 1.818551,3.09206 1.6062781,2.75664 3.268302,5.6075 5.103985,8.23154 2.23445504,3.19355 5.211729,6.21422 8.0901762,9.13472 q 0.481423,0.48808 0.954911,0.96913 c 1.679083,1.71045 3.342632,3.47612 4.9514824,5.18393 1.71085,1.81488 3.478523,3.69295 5.265895,5.50282 q 0.557811,0.5644 1.121172,1.13111 c 3.279499,3.29762 6.67102,6.70795 8.762802,10.70249 1.277369,2.43939 2.271017,4.96632 3.231269,7.41051 0.631871,1.60827 1.285951,3.2723 2.013227,4.88935 4.34511,9.66482 1.871864,18.01571 -0.521391,26.09129 -1.840639,6.21475 -4.665293,14.23627 -10.204785,21.1757 -4.14585,5.19244 -9.276101,7.64831 -15.7026404,9.73961 l -0.248488,-0.40277 c 6.3712104,-2.07249 11.4542824,-4.50545 15.5538124,-9.63977 5.5102,-6.89997 8.321845,-14.88814 10.15499,-21.07694 2.374713,-8.01379 4.829445,-16.29934 0.547573,-25.82435 -0.731773,-1.6273 -1.387559,-3.29632 -2.022002,-4.91068 -0.956304,-2.43194 -1.943998,-4.9456 -3.207971,-7.36062 -2.051464,-3.91695 -5.408989,-7.29364 -8.657514,-10.55944 q -0.56336,-0.56715 -1.123023,-1.13232 c -1.793325,-1.8155 -3.562919,-3.69605 -5.276479,-5.51465 -1.6066304,-1.70652 -3.2674224,-3.469 -4.9420914,-5.17446 q -0.472085,-0.48234 -0.953616,-0.96858 c -2.8972072,-2.93946 -5.89236616,-5.97852 -8.1562772,-9.21332 -1.849797,-2.64348 -3.5177809,-5.50482 -5.129896,-8.2715 -0.59494,-1.01933 -1.209069,-2.07454 -1.815503,-3.08597 a 100.38206,75.527975 35.546028 0 1 -6.5397114,-12.67963 c -2.20613,-5.1188 -6.017986,-12.62076 -11.653963,-19.29265 -2.638894,-3.12488 -6.413745,-6.52521 -9.064525,-8.66529 -3.095488,-2.49635 -6.404147,-3.77166 -9.907199,-5.12003 l -0.609147,-0.23518 c -2.484237,-0.95439 -5.284885,-1.92615 -7.327042,-1.8742 l -0.07918,0.36392 z"
       class="f"
       style="fill:#ede7d9;stroke-width:0.18098" />
  </g>
</svg>
