<?xml version="1.0" encoding="UTF-8" standalone="no"?>
<svg
   xmlns:dc="http://purl.org/dc/elements/1.1/"
   xmlns:cc="http://creativecommons.org/ns#"
   xmlns:rdf="http://www.w3.org/1999/02/22-rdf-syntax-ns#"
   xmlns:svg="http://www.w3.org/2000/svg"
   xmlns="http://www.w3.org/2000/svg"
   xmlns:sodipodi="http://sodipodi.sourceforge.net/DTD/sodipodi-0.dtd"
   xmlns:inkscape="http://www.inkscape.org/namespaces/inkscape"
   width="1200"
   height="254.91745"
   viewBox="0 0 317.5 67.4469"
   version="1.1"
   id="svg1855"
   inkscape:version="1.0 (6e3e5246a0, 2020-05-07)"
   sodipodi:docname="linhadireita.svg">
  <defs
     id="defs1849" />
  <sodipodi:namedview
     units="px"
     id="base"
     pagecolor="#ffffff"
     bordercolor="#666666"
     borderopacity="1.0"
     inkscape:pageopacity="0.0"
     inkscape:pageshadow="2"
     inkscape:zoom="0.35"
     inkscape:cx="-107.10626"
     inkscape:cy="463.72049"
     inkscape:document-units="mm"
     inkscape:current-layer="layer1"
     inkscape:document-rotation="0"
     showgrid="false"
     inkscape:window-width="1920"
     inkscape:window-height="1052"
     inkscape:window-x="0"
     inkscape:window-y="0"
     inkscape:window-maximized="1"
     fit-margin-top="0"
     fit-margin-left="0"
     fit-margin-right="0"
     fit-margin-bottom="0" />
  <metadata
     id="metadata1852">
    <rdf:RDF>
      <cc:Work
         rdf:about="">
        <dc:format>image/svg+xml</dc:format>
        <dc:type
           rdf:resource="http://purl.org/dc/dcmitype/StillImage" />
        <dc:title></dc:title>
      </cc:Work>
    </rdf:RDF>
  </metadata>
  <g
     inkscape:label="Layer 1"
     inkscape:groupmode="layer"
     id="layer1"
     transform="translate(-67.085932,-12.736977)">
    <path
       id="path1816"
       d="m 188.23969,-3.0232961 a 102.913,76.465215 0 0 1 0.71876,-8.6782249 c 1.0014,-6.49241 2.69003,-11.919194 5.31106,-17.078401 3.24745,-6.389347 7.94654,-14.458564 15.50773,-20.1769 7.36796,-5.572009 13.33212,-9.552331 19.33709,-12.910693 8.87265,-4.960244 19.11718,-8.994853 31.32034,-12.33172 4.37235,-1.195971 8.8604,-2.288877 13.19713,-3.345134 3.37504,-0.821472 6.86394,-1.671878 10.27087,-2.562794 0.44914,-0.117393 0.88196,-0.245256 1.30959,-0.373121 1.52618,-0.45083 2.96706,-0.878239 4.72914,-0.746241 l -0.0906,0.656681 c -1.54398,-0.116014 -2.88733,0.282184 -4.3104,0.702702 -0.43839,0.130619 -0.88382,0.262341 -1.34334,0.382214 -3.41583,0.893946 -6.90992,1.744353 -10.28867,2.567203 -4.33155,1.054878 -8.80885,2.145305 -13.16635,3.337142 -12.12194,3.314823 -22.29006,7.318843 -31.09522,12.240783 -5.96788,3.337144 -11.90015,7.2979 -19.23584,12.844832 -7.44584,5.631256 -12.09339,13.618629 -15.3108,19.948729 -2.59618,5.106573 -4.26516,10.483203 -5.25986,16.919949 -1.40936,9.1293309 -0.73806,16.3241664 2.04765,21.997858 3.92171,7.983512 8.78399,17.041467 16.88296,23.478506 4.23957,3.371311 9.52391,6.583342 15.70281,9.543231 8.31373,3.981976 17.80019,5.8225 26.0412,7.235897 19.75063,3.385923 40.61169,3.263294 60.78774,3.144519 l 1.89521,-0.01052 c 8.91158,-0.0502 17.9689,-0.468466 26.72619,-0.873003 8.05632,-0.37175 16.38785,-0.755613 24.59847,-0.854266 18.55081,-0.222938 32.82314,0.419139 46.27803,2.084407 13.18119,1.631095 25.00493,3.989683 35.13746,7.01048 10.00495,2.981105 17.98152,6.153454 24.38556,9.697549 8.88525,4.91671 16.51914,11.253419 23.25437,16.843624 a 63.040104,46.839322 0 0 1 10.39437,9.744674 29.707732,22.073092 0 0 1 7.08052,11.252034 l -0.87676,0.1028 a 28.843575,21.431016 0 0 0 -6.89842,-10.942298 l -0.0478,-0.04874 a 62.302418,46.291215 0 0 0 -10.29052,-9.650156 c -6.73079,-5.585247 -14.33279,-11.895502 -23.14682,-16.77253 -6.34209,-3.509916 -14.25304,-6.654432 -24.18528,-9.614321 -10.07393,-3.002331 -21.83389,-5.347702 -34.95314,-6.971902 -13.39963,-1.657279 -27.62225,-2.297971 -46.11819,-2.075315 -8.19132,0.09759 -16.51024,0.481142 -24.55766,0.854267 -8.7699,0.404808 -17.83761,0.822843 -26.77403,0.874107 l -1.89523,0.01052 c -20.2261,0.118775 -41.14093,0.241123 -60.99244,-3.161882 -8.31372,-1.425238 -17.88919,-3.284229 -26.32345,-7.324072 -6.24121,-2.990207 -11.58044,-6.235036 -15.87156,-9.647403 -8.21066,-6.52911 -13.11558,-15.658441 -17.06734,-23.703965 -1.88037,-3.8301298 -2.81463,-8.3301748 -2.81463,-13.6211031 z"
       class="f"
       style="fill:#ede7d9;stroke-width:0.319693" />
  </g>
</svg>
