<?xml version="1.0" encoding="UTF-8" standalone="no"?>
<svg
   xmlns:dc="http://purl.org/dc/elements/1.1/"
   xmlns:cc="http://creativecommons.org/ns#"
   xmlns:rdf="http://www.w3.org/1999/02/22-rdf-syntax-ns#"
   xmlns:svg="http://www.w3.org/2000/svg"
   xmlns="http://www.w3.org/2000/svg"
   xmlns:sodipodi="http://sodipodi.sourceforge.net/DTD/sodipodi-0.dtd"
   xmlns:inkscape="http://www.inkscape.org/namespaces/inkscape"
   sodipodi:docname="linhadireita.svg"
   inkscape:version="1.0 (6e3e5246a0, 2020-05-07)"
   id="svg1855"
   version="1.1"
   viewBox="0 0 233.29095 67.4469"
   height="67.446907mm"
   width="233.29095mm">
  <defs
     id="defs1849" />
  <sodipodi:namedview
     fit-margin-bottom="0"
     fit-margin-right="0"
     fit-margin-left="0"
     fit-margin-top="0"
     inkscape:window-maximized="1"
     inkscape:window-y="0"
     inkscape:window-x="0"
     inkscape:window-height="1052"
     inkscape:window-width="1920"
     showgrid="false"
     inkscape:document-rotation="0"
     inkscape:current-layer="layer1"
     inkscape:document-units="mm"
     inkscape:cy="463.72049"
     inkscape:cx="-107.10626"
     inkscape:zoom="0.35"
     inkscape:pageshadow="2"
     inkscape:pageopacity="0.0"
     borderopacity="1.0"
     bordercolor="#666666"
     pagecolor="#ffffff"
     id="base" />
  <metadata
     id="metadata1852">
    <rdf:RDF>
      <cc:Work
         rdf:about="">
        <dc:format>image/svg+xml</dc:format>
        <dc:type
           rdf:resource="http://purl.org/dc/dcmitype/StillImage" />
        <dc:title></dc:title>
      </cc:Work>
    </rdf:RDF>
  </metadata>
  <g
     transform="translate(-67.085932,-12.736977)"
     id="layer1"
     inkscape:groupmode="layer"
     inkscape:label="Layer 1">
    <path
       style="fill:#ede7d9;stroke-width:0.264583"
       class="f"
       d="m 132.29531,-2.658352 a 73.416848,73.416848 0 0 1 0.51276,-8.332259 c 0.71438,-6.233583 1.91903,-11.444022 3.78884,-16.397552 2.31669,-6.134629 5.66896,-13.882158 11.06302,-19.372527 5.25621,-5.349875 9.51097,-9.171517 13.79484,-12.395994 6.32964,-4.762499 13.63796,-8.636264 22.34354,-11.840103 3.11918,-1.148292 6.3209,-2.197629 9.41467,-3.211777 2.40771,-0.788723 4.89665,-1.605227 7.32711,-2.460625 0.32041,-0.112713 0.62918,-0.235479 0.93424,-0.358246 1.08876,-0.432858 2.11667,-0.843227 3.37371,-0.716492 l -0.0646,0.630502 c -1.10146,-0.111389 -2.05979,0.270934 -3.07499,0.674688 -0.31274,0.125412 -0.6305,0.251883 -0.95832,0.366977 -2.43681,0.858308 -4.92945,1.674812 -7.33981,2.464858 -3.09007,1.012825 -6.28412,2.059781 -9.39271,3.204104 -8.64764,3.182674 -15.90145,7.027069 -22.18294,11.752791 -4.25741,3.204105 -8.48942,7.006961 -13.72261,12.332759 -5.31177,5.40676 -8.62727,13.075708 -10.92253,19.153452 -1.85208,4.902994 -3.04271,10.065279 -3.75232,16.245417 -1.00542,8.765381 -0.52652,15.6733868 1.46077,21.120891 2.7977,7.66524 6.26639,16.36209 12.04409,22.54251 3.02446,3.23691 6.79424,6.32089 11.20219,9.16278 5.93091,3.82323 12.69843,5.59038 18.57747,6.94743 14.08985,3.25094 28.97187,3.1332 43.36521,3.01916 l 1.35202,-0.0101 c 6.35741,-0.0482 12.81879,-0.44979 19.06613,-0.8382 5.74728,-0.35693 11.69089,-0.72549 17.54824,-0.82021 13.23392,-0.21405 23.41562,0.40243 33.01417,2.00131 9.4033,1.56607 17.83821,3.83063 25.06663,6.731 7.1374,2.86226 12.82779,5.90814 17.39635,9.310946 6.33863,4.7207 11.78455,10.80479 16.58938,16.172135 a 44.972023,44.972023 0 0 1 7.41521,9.356192 21.193125,21.193125 0 0 1 5.05116,10.803465 l -0.62547,0.0987 a 20.576646,20.576646 0 0 0 -4.92125,-10.506075 l -0.0341,-0.0468 a 44.445767,44.445767 0 0 0 -7.34113,-9.265442 c -4.80166,-5.362585 -10.22483,-11.421275 -16.51265,-16.103875 -4.52437,-3.36999 -10.16794,-6.389146 -17.25348,-9.231036 -7.18661,-2.88264 -15.57602,-5.13451 -24.93513,-6.69396 -9.55913,-1.59121 -19.70537,-2.20636 -32.90014,-1.99258 -5.84359,0.0937 -11.7782,0.46196 -17.51913,0.82021 -6.25634,0.38867 -12.72513,0.79004 -19.10026,0.83926 l -1.35203,0.0101 c -14.42905,0.11404 -29.34943,0.23151 -43.51125,-3.03583 -5.9309,-1.36842 -12.76192,-3.1533 -18.77882,-7.03209 -4.4524,-2.871 -8.26134,-5.98647 -11.32257,-9.2628 -5.85738,-6.26882 -9.35649,-15.0342 -12.17563,-22.75898 -1.34143,-3.6774382 -2.00792,-7.9980842 -2.00792,-13.078084 z"
       id="path1816" />
  </g>
</svg>
