<svg xmlns="http://www.w3.org/2000/svg" xmlns:xlink="http://www.w3.org/1999/xlink" width="1331.221" height="1323.467" viewBox="0 0 1331.221 1323.467"><defs><style>.a{fill:none;}.b{fill:#f27253;}.c{fill:#e77a68;}.d{fill:#ede7d9;}.e{fill:#fdeec9;}.f{clip-path:url(#a);}</style><clipPath id="a"><rect class="a" width="707.976" height="991.318"/></clipPath></defs><g transform="translate(1332.478 142) rotate(90)"><rect class="b" width="758.976" height="432.318" transform="translate(151.343 566.256)"/><path class="c" d="M8.736,41.593C11.5,27.627,14.882,13.734,18.851,0H510.918V358.808c-41.493,30.6-89.327,52.4-135.917,73.972-23.088,10.711-47.524,16.561-72.083,22.579-23.1,5.667-47.811,11.89-71.332,14.294-33.253,3.4-63.784-3.742-93.5-18.946C50.352,405.818,19.921,302.1,5.982,211.742-2.589,156.124-2.189,96.705,8.736,41.593Z" transform="translate(670.549 390)"/><path class="d" d="M.071,24.6a30.368,30.368,0,0,0,.047,4.618,38.6,38.6,0,0,0,1.919,6.867,21.169,21.169,0,0,0,3.354,6.731,24.023,24.023,0,0,0,9.161,6.21c1.627.7,3.535,1.927,5.3,2.227,1.275.217,2.726.31,4.021.4,4.323.3,8.923-1.353,12.869-2.96a26.17,26.17,0,0,0,7.421-4.527c5.028-4.252,7.012-11.743,6.735-18.157a27.758,27.758,0,0,0-6.218-15.767A29.833,29.833,0,0,0,38.85,4.127a16.43,16.43,0,0,0-6.682-2.79C28.809.7,25.123-.507,21.676.233,20.1.571,18.443.915,16.83,1.371c-1.632.461-3.222,1.066-4.843,1.419A10.156,10.156,0,0,0,7.613,5.448,19.737,19.737,0,0,0,3.581,9.476c-.975,1.52-1.2,3.181-1.75,4.878-.263.814-.434,1.619-.681,2.433-.179.591-.484,1.129-.679,1.71C-.242,20.626.145,22.137.071,24.6Z" transform="translate(246.487 647.89)"/><path class="e" d="M0,706.791V56.078c.757-.528,1.521-1.059,2.275-1.577C35.433,31.588,74.137,9.1,114.706,2.372c.59-.094,1.174-.188,1.764-.278,20.1-3.073,41.083-1.837,61.26-1.9a185.552,185.552,0,0,1,53.984,8.05c18.215,5.518,36.315,15.513,49.817,29.161,13.134,13.273,28.431,29.449,37.252,45.969,5.376,10.064,9.96,21.212,14.985,31.352,5.133,10.349,10.21,20.628,14.075,31.533,7.605,21.462,12.283,44.649,16.19,67.083.132.747.254,1.486.385,2.226,4.983,28.866,5.14,56.537,5.379,85.611.271,32.609-6.025,63.319-12.318,95.223-3.23,16.374-6.6,31.887-10.957,47.924-4.681,17.253-9.967,34.45-17.555,50.685-4.629,9.9-10.071,19.454-14.811,29.321-15.7,32.616-38.218,62.881-58.44,92.754-17.683,26.143-34.78,52.63-50.945,79.745q-2.954,4.949-5.661,9.96Z" transform="translate(-142 625.687)"/><g transform="translate(179.343 1.256)"><g class="f"><g transform="translate(-138.689 527.983)"><path class="d" d="M206.044,274.058c-7.071,0-14.672-.2-22.858-.61a395.793,395.793,0,0,1-44.983-4.509c-16.829-2.757-38.082-6.746-53.144-13.166-14.676-6.255-25.16-11.318-34.005-16.417a120.794,120.794,0,0,1-32.481-26.59c-3.15-3.712-6.029-7.522-8.81-11.2-2.164-2.865-4.4-5.827-6.751-8.72-.309-.381-.646-.749-.983-1.112-1.188-1.3-2.313-2.519-1.966-4.015l1.729.077c-.306,1.311.743,2.451,1.851,3.659.344.372.691.75,1.007,1.14,2.355,2.9,4.594,5.866,6.761,8.735,2.778,3.677,5.65,7.478,8.79,11.178a119.881,119.881,0,0,0,32.241,26.4c8.79,5.066,19.222,10.1,33.832,16.331,14.832,6.321,35.87,10.267,52.543,13a391.743,391.743,0,0,0,44.566,4.465c24.045,1.2,43,.627,57.94-1.739,21.028-3.329,44.885-7.457,61.843-14.333A137.878,137.878,0,0,0,328.3,243.3c10.488-7.058,15.336-15.112,19.059-22.108,8.918-16.768,8.6-34.478,8.283-51.606l-.028-1.609a184.117,184.117,0,0,0-2.3-22.69,201.944,201.944,0,0,1-2.25-20.883c-.587-15.749,1.1-27.866,5.49-39.289A92.527,92.527,0,0,1,375.022,55.28a109.5,109.5,0,0,1,25.542-20.7c12.95-7.543,29.64-14.024,44.365-19.743a161.188,161.188,0,0,1,25.664-8.824A103.942,103.942,0,0,1,500.229,0l.271.744A100.839,100.839,0,0,0,471.68,6.6l-.128.041a159.359,159.359,0,0,0-25.417,8.736c-14.711,5.714-31.331,12.168-44.177,19.651a108.613,108.613,0,0,0-25.323,20.532,92.127,92.127,0,0,0-18.364,29.674c-4.365,11.376-6.053,23.451-5.466,39.153a200.574,200.574,0,0,0,2.247,20.849,185.216,185.216,0,0,1,2.3,22.73l.028,1.609c.313,17.171.635,34.927-8.328,51.781-3.754,7.058-8.651,15.187-19.291,22.348a139.392,139.392,0,0,1-25.41,13.474c-17.2,6.971-41.243,11.135-62.433,14.49A232.107,232.107,0,0,1,206.044,274.058Z" transform="translate(0 0)"/></g><g transform="translate(308.647 749.919)"><path class="d" d="M4.067,328.742,1.425,328.2l-.149-.493c-2.462-8.144-.917-19.177.92-28.893l.431-2.282c2.5-13.322,4.858-25.9,12.811-37.679,6.7-9.925,17.77-24.021,28.747-33.821,23.379-20.868,52.019-34.679,71.928-42.59a346.77,346.77,0,0,0,47.747-23.42c3.765-2.2,7.692-4.431,11.491-6.588,10.259-5.817,20.868-11.835,30.345-18.534,11.533-8.154,21.628-19.138,31.39-29.758q1.631-1.776,3.244-3.521c5.72-6.2,11.7-12.325,17.475-18.253,6.143-6.3,12.5-12.818,18.541-19.413,1.26-1.372,2.514-2.754,3.775-4.14,10.995-12.1,22.365-24.618,37.45-32.151,9.213-4.6,19.069-8.119,28.6-11.519,6.275-2.236,12.762-4.553,18.982-7.15,37.179-15.52,75.164-5.338,111.9,4.515,28.268,7.578,65.18,19.058,100.023,40.722,26.074,16.211,41.388,35.884,56.366,60.433l-1.483.9c-14.846-24.337-30.019-43.83-55.8-59.86-34.648-21.545-71.4-32.974-99.554-40.52C440.153,4.406,402.463-5.7,365.822,9.594c-6.261,2.612-12.769,4.935-19.065,7.182-9.484,3.386-19.288,6.883-28.411,11.436-14.794,7.39-26.053,19.781-36.94,31.769q-1.891,2.078-3.778,4.143c-6.067,6.616-12.429,13.141-18.579,19.451-5.772,5.921-11.738,12.04-17.444,18.218q-1.615,1.745-3.24,3.518c-9.825,10.689-19.982,21.739-31.665,30-9.547,6.751-20.194,12.79-30.491,18.628-3.8,2.153-7.72,4.379-11.47,6.577a349.2,349.2,0,0,1-47.983,23.535c-19.781,7.859-48.226,21.569-71.41,42.27-10.859,9.693-21.826,23.66-28.47,33.495C9.124,271.3,6.8,283.71,4.331,296.848L3.9,299.133c-1.757,9.31-3.25,19.833-1.108,27.574l1.625.333Z" transform="translate(0 0)"/></g></g></g></g></svg>