<svg xmlns="http://www.w3.org/2000/svg" width="627.672" height="899.836" viewBox="0 0 627.672 899.836"><defs><style>.a{fill:#191847;}.a,.b,.c,.d,.e,.f,.g,.h,.i{fill-rule:evenodd;}.b{fill:#d4a181;}.c{fill:#1f28cf;}.d{fill:#ba8b72;}.e{fill:#e4e4e4;}.f{fill:#2b44ff;}.g{fill:#afb9c5;}.h{fill:#c5cfd6;}.i{fill:rgba(0,0,0,0.1);}</style></defs><g transform="translate(-95.772 -130.331)"><g transform="translate(95.772 130.331)"><g transform="translate(269.091)"><path class="a" d="M224.039,106.414c7.774,28.646,17.9,93.036,7.567,103.137H166.2q-.01-.174-.02-.347a48.5,48.5,0,0,1-43.094-48.191v-47.36a48.487,48.487,0,0,1,48.487-48.487h4.51A48.5,48.5,0,0,1,224.039,106.414Z" transform="translate(-91.517 -65.165)"/><g transform="translate(38.339 9.021)"><path class="b" d="M18.633,77.783c-10.392-12.2-17.425-27.147-16.25-43.9C5.77-14.377,72.953-3.76,86.022,20.6s11.516,86.148-5.374,90.5c-6.736,1.736-21.085-2.517-35.689-11.319l9.167,64.851H0Z" transform="translate(0 0)"/></g><path class="a" d="M160.9,143.974c2.494,26.788,1.495,57.378-5.937,64.64h-65.4c-3.644-63.312,31.573-38.8,31.573-98.405,2.2-2.145,4.27-4.269,6.323-6.1l-.073-1.753q16.988-34.777,43.1-34.777c26.116,0,34.359,12.152,41.377,22.469-5.248,18.008-25.615,20.678-43.713,31.9a12.4,12.4,0,1,0-7.816,22.036Q160.624,143.987,160.9,143.974Z" transform="translate(-89.301 -65.324)"/></g><g transform="translate(0 349.926)"><path class="c" d="M235.1,234.243q81.152,22.7,140.031,22.7t109.379-34.955q-79.415-23.3-130.8-23.3T235.1,234.243Z" transform="translate(-14.701 -2.121)"/><path class="d" d="M425.54,265.721a12.758,12.758,0,0,1-1.312-2.561C417,244.035,301.164,37.72,289.624,0H420.035c8.774,28.679,48.264,208.653,53.822,244.561,17.535,56.64,53.638,240.077,58.247,252.785,4.849,13.369-22.432,27.3-29.7,10.86-11.567-26.151-39.128-98.51-51.4-142.691C439.5,324.094,430.129,286.83,425.54,265.721Z" transform="translate(-18.278 10.911)"/><path class="b" d="M301.452,290.91C248.495,304.294,54.79,328.491,41.5,332.286c-13.674,3.9-25.664-24.281-8.762-30.387,26.894-9.715,101-32.161,145.929-41.321,36.139-7.368,69.117-13.38,91.257-16.9C268.046,181.486,259.472,32.235,265.092,0H380.481c-5.389,30.911-50.945,256.459-59.413,279.036C318.382,287.1,310.364,290.658,301.452,290.91Z" transform="translate(-0.884 10.911)"/><g transform="translate(45.903 299.202) rotate(80)"><path class="e" d="M3.785,13.689Q0,23.792,0,28.808a113.162,113.162,0,0,0,2.033,17.8h127.2q4.958-16.392-5.724-17.7t-17.748-2.36L46.638.2A2.255,2.255,0,0,0,43.66,1.338l-.025.059-3.8,9.218q-9.889,4.614-16.072,4.614-5.023,0-13.875-4.058h0a4.511,4.511,0,0,0-5.98,2.221Q3.841,13.538,3.785,13.689Z" transform="translate(0)"/></g><g transform="translate(472.062 503.299)"><path class="e" d="M6.2,60.347Q2.414,70.45,2.414,75.466a113.161,113.161,0,0,0,2.033,17.8h127.2q4.958-16.392-5.724-17.7t-17.748-2.36L49.052,46.854A2.255,2.255,0,0,0,46.074,48l-.025.059-3.8,9.218q-9.889,4.614-16.072,4.614-5.023,0-13.875-4.058h0a4.51,4.51,0,0,0-5.98,2.221Q6.255,60.2,6.2,60.347Z" transform="translate(-2.414 -46.658)"/></g><path class="f" d="M278.686-.766q76.272-21.822,144.335,0c15.787,72.026,54.146,100.614,60.891,211.042-76.678,38.1-171.4-27.172-250.33,9.983C211.029,168.288,242.6,43.131,278.686-.766Z" transform="translate(-14.105 11.677)"/></g><g transform="translate(91.295 124.038)"><path class="b" d="M435.879,155.364l89.043-12.146q26.718-14.861,49.159-20.122c4.21-.123,10.907,1.408.93,9.725s-20.1,17.519-18.323,21.958,11.056,2.787,12.593,9.615q1.537,6.827-45.176,2.219l-72.251,28.644Zm-279.716,20.61,49.384.185q-81.226,182.788-84.7,191.41c-5.218,12.933,5.825,32.629,10.547,43.214-15.381,6.882-13.742-18.606-33.144-9.579-17.71,8.239-31.181,23.168-51.642,10.543-2.516-1.552-5.272-7.4,1.388-11.963,16.593-11.378,40.506-31.291,43.736-37.846Q98.335,348.53,156.163,175.975Z" transform="translate(-43.836 -8.074)"/><path class="g" d="M0,.8,38.743,0c16.995,84.994,73.409,134.684,187.494,106.21l25.039,109.178C144.369,238.822,45.751,203.828,16.062,88.318,8.377,58.417,1.641,27.187,0,.8Z" transform="translate(247.663 10.476) rotate(5)"/><path class="h" d="M276.191.036l58.584,13.417c0,100.762,32.1,165.049,48.56,239.132H225.117c-2.229,25.6-3.6,51.91-4.311,78.933H102.338Q142.606,117.263,272.324,0h3.837Z" transform="translate(-47.674)"/><path class="i" d="M258.7,116.475q-6.116,94.183,7.194,143.75H233.735c4.415-50.711,12.206-98.628,24.963-143.75Z" transform="translate(-56.292 -7.64)"/></g></g></g></svg>