<svg xmlns="http://www.w3.org/2000/svg" width="572.884" height="734.74" viewBox="0 0 572.884 734.74"><defs><style>.a{fill:#b28b67;}.a,.b,.c,.d,.e,.f,.g,.h,.i,.j{fill-rule:evenodd;}.b{fill:#191847;}.c{fill:#c5cfd6;}.d{fill:#1f28cf;}.e{fill:#2b44ff;}.f{fill:#e4e4e4;}.g{fill:#dde3e9;}.h{fill:#2f3676;}.i{fill:rgba(0,0,0,0.1);}.j{fill:rgba(255,255,255,0.2);}</style></defs><g transform="translate(-41.739 -88.116)"><g transform="translate(614.623 822.856) rotate(180)"><g transform="translate(125.651 543.068)"><g transform="translate(51.112 0)"><path class="a" d="M17.6,82.014C7.783,93.533,1.141,107.649,2.251,123.467c3.2,45.576,66.641,35.55,78.983,12.547s10.875-81.352-5.075-85.463c-6.361-1.64-19.911,2.377-33.7,10.689L51.112,0H0Z"/></g><path class="b" d="M154.989,108.272a11.056,11.056,0,0,1-7.742,7.851,10.2,10.2,0,0,1-2.849.283c-.343-.014-.44-.113-.6.127a3.151,3.151,0,0,0-.171.822,14.749,14.749,0,0,1-4.357,7.534,19.017,19.017,0,0,1-11.422,5.4,16.653,16.653,0,0,1-6.867-.937,27.2,27.2,0,0,1-3.334-1.425c-.325-.163-1.381-.962-1.707-.91-.361.057-1.085.953-1.378,1.178a20.186,20.186,0,0,1-12.611,3.84c-5.094-.038-10-.292-14.248-3.4a28.5,28.5,0,0,1-2.571-2.135c-.429-.4-.845-.813-1.242-1.244q-.359-.39-.7-.8c-.381-.464-.32-.616-.853-.292a10.591,10.591,0,0,1-6.8,1.53,15.218,15.218,0,0,1-4.105-1.16c-.446-.191-1.478-.951-1.953-.958s-1.489.7-1.974.877a16.186,16.186,0,0,1-8.2.759,21.186,21.186,0,0,1-8.044-3.163,10.814,10.814,0,0,1-2.981-2.71c-.351-.484-.667-1-1.065-1.445-.233-.263-.693-.532-.818-.865.075.2-3.109,1.427-3.41,1.505a8.4,8.4,0,0,1-4.8-.183,19.077,19.077,0,0,1-7.565-5.375,21.479,21.479,0,0,1-2.8-3.761q-.571-.969-1.048-1.99a7.4,7.4,0,0,0-.46-1.036c-.262-.382-.438-.389-.913-.555a14.758,14.758,0,0,1-6.285-4.208,14.488,14.488,0,0,1-3.253-6.9,3.515,3.515,0,0,0-.131-.849c-.12-.111-.6-.062-.788-.084a16.583,16.583,0,0,1-1.889-.333,15.592,15.592,0,0,1-3.321-1.194A17.353,17.353,0,0,1,1.226,81.916a20.607,20.607,0,0,1,.322-14.108A13.781,13.781,0,0,1,2.6,65.742c.251-.4.331-.4.169-.827-.181-.47-.513-.928-.728-1.387a19.916,19.916,0,0,1-1.5-4.717,22.122,22.122,0,0,1-.259-8.154A11.772,11.772,0,0,1,1.532,47.08a10.263,10.263,0,0,1,1.1-1.6c.217-.258.447-.5.688-.741a4.589,4.589,0,0,0,.435-.4c.286-.367.346-.065.2-.6A24.141,24.141,0,0,0,3,41.5c-.295-.756-.561-1.523-.805-2.3a33.876,33.876,0,0,1-1.172-4.786,15.028,15.028,0,0,1,1.061-9.3,9.3,9.3,0,0,1,2.631-3.131,9.763,9.763,0,0,1,1.728-1.05c.313-.149.713-.213.856-.516.154-.326-.075-.973-.127-1.337a22.29,22.29,0,0,1,.262-9.6,13.268,13.268,0,0,1,5.259-7.059C17.5-.82,23.99-.637,29.047,1.96A17.17,17.17,0,0,1,32.7,4.469C35.5.7,41.263.817,45.356,1.892a18.184,18.184,0,0,1,11.551,9.544c3.224-3.925,9.991-2.651,12.226,1.606A10.187,10.187,0,0,1,70.165,16.4c.084.611.03,1.228.094,1.834a9.476,9.476,0,0,0,.893,2.271,12.534,12.534,0,0,1,.952,4.526,22.972,22.972,0,0,1-.174,2.43,8.35,8.35,0,0,0,.248,2.135,9.763,9.763,0,0,0-4.134.517,8.163,8.163,0,0,0-3.2,2.248,18.648,18.648,0,0,0-4.021,7.516c-1.818,5.953-1.073,13.1,4.915,16.362,2.789,1.522,11.146,1.517,14.468.765,3.493-.791,7.453-8.5,7.648-9.223.121-.448.06-1,.472-1.3.905-.657,2.4.483,3.066,1.046a12.092,12.092,0,0,1,2.686,3.573,44.2,44.2,0,0,1,3.684,9.036c.681,2.408,1.116,4.891,2.006,7.238a11.072,11.072,0,0,0,4.452,5.745,39.207,39.207,0,0,0,7.66,3.1,19.013,19.013,0,0,1,7.086,3.893,9.794,9.794,0,0,1,1.216,1.355c.278.389.553,1.133.977,1.379.659.383,1.621-.614,2.191-.976a25.323,25.323,0,0,0,7.05-7,43.545,43.545,0,0,0,4.68-8.332c.931-2.241,1.512-5.112,3.148-6.948.731-.82,6.163-1.316,7.922-.6a10.009,10.009,0,0,1,4.322,3.74,5.811,5.811,0,0,1,.491,3.808c-.152.768-.462,1.486-.632,2.24a6.984,6.984,0,0,1-.581,1.813,4.472,4.472,0,0,1-2.788,2.222,13.09,13.09,0,0,1,3.011,4.084,17.525,17.525,0,0,1,1.559,5.32,6.459,6.459,0,0,1-.863,4.144,10.912,10.912,0,0,1-3.538,2.937,23.017,23.017,0,0,1,4.926,5.364C154.7,98.6,156.326,103.572,154.989,108.272Z" transform="translate(0 59.631)"/></g><g transform="translate(0 0)"><g transform="translate(0 12.778)"><path class="c" d="M34.075,264.08H278.988a34.075,34.075,0,0,0,34.075-34.075V34.075A34.075,34.075,0,0,0,278.988,0H34.075A34.075,34.075,0,0,0,0,34.075V230.005A34.075,34.075,0,0,0,34.075,264.08ZM68.15,204.449a8.519,8.519,0,0,1-8.519-8.519V68.15a8.519,8.519,0,0,1,8.519-8.519H244.913a8.519,8.519,0,0,1,8.519,8.519V195.931a8.519,8.519,0,0,1-8.519,8.519Z"/></g><path class="a" d="M324.5,0c-27.287,60.394-47.021,112.983-54.942,140.729C256,188.237,245.679,230.041,243.071,245.652c-6.219,37.228,47.837,39.4,54.982,20.894,10.814-28,29.693-120.009,52.378-258.981ZM7.986,189.534c25.036,9.9,112.71,40.866,155,49.626,12.151,2.518,23.928,4.857,35,6.97,32.912,6.283,49.963-53.091,18.265-57.653-78.941-11.361-190.853-23.094-200.43-24.41C2.4,162.222-7.748,183.314,7.986,189.534Z" transform="translate(140.854 19.892)"/><path class="d" d="M135.42,211.318,0,280.255v15.007H16.105q196.52-50.076,200.843-64.184.047-.152.085-.3.1-.13.194-.261C243.191,194.8,258.741,20.476,263.845,7.422L214.092,0c-19.032,70.574-79.922,119.738-78.3,204.263A27.691,27.691,0,0,0,135.42,211.318Z" transform="translate(223.616 71.043)"/><path class="e" d="M107.087,53.821c-12.391,2.48-23.8,4.694-33.565,6.407C10.455,71.289-7.936,105.048,2.938,178.706h116.2c18.982-5.453,117.627-46.821,168.809-68.823,33.875-14.563,23.2-67.06,4.013-80.722A1.874,1.874,0,0,0,290.9,27.5C187.7-15.271,106.069,7.17,78.8,0L66.184,39.79Z" transform="translate(127.781 187.599)"/><g transform="matrix(0.438, -0.899, 0.899, 0.438, 127.891, 205.334)"><path class="f" d="M3.574,31.089Q0,21.549,0,16.812A106.861,106.861,0,0,1,1.919,0H122.037q4.682,15.479-5.406,16.713t-16.76,2.229L44.042,43.831a2.13,2.13,0,0,1-2.812-1.078l-.024-.055-3.589-8.705q-9.339-4.357-15.177-4.357-4.744,0-13.1,3.832h0a4.259,4.259,0,0,1-5.647-2.1Q3.627,31.232,3.574,31.089Z" transform="translate(0)"/></g><g transform="translate(449.363 0)"><path class="f" d="M3.574,31.089Q0,21.549,0,16.812A106.862,106.862,0,0,1,1.919,0H122.037q4.682,15.479-5.406,16.713t-16.76,2.229L44.042,43.831a2.13,2.13,0,0,1-2.812-1.078l-.024-.055-3.589-8.705q-9.339-4.357-15.177-4.357-4.744,0-13.1,3.832h0a4.259,4.259,0,0,1-5.647-2.1Q3.627,31.232,3.574,31.089Z" transform="translate(0 0)"/></g></g><g transform="translate(6.736 204.115)"><path class="a" d="M340.5,196l60.329-58.854q26.33-11.231,43.148-24.8c2.521-3.041,5.266-8.869-6.6-6.261s-24.458,4.817-26.688.959,4.34-9.77.22-14.819q-4.121-5.049-27.716,32.12l-62.735,36.987ZM72.718,187.7l44.5-.175Q76,54.465,72.718,46.323c-4.928-12.213,5.5-30.813,9.96-40.808-14.525-6.5-12.977,17.57-31.3,9.046C34.655,6.781,21.933-7.317,2.612,4.605.236,6.071-2.367,11.59,3.922,15.9c15.67,10.745,38.251,29.549,41.3,35.739Q51.465,64.3,72.718,187.7Z"/><path class="b" d="M0,273.307l18.07,4.752Q75.8,163.851,202.319,77.456L149.168,0C62.442,84.93,5.647,175.413,0,273.307Z" transform="translate(175.371 102.182) rotate(-5)"/><path class="g" d="M0,0H163.985Q107,138.562,107,235.413l-49.466,7.37C18.656,180.26,7.677,103.28,0,0Z" transform="translate(118.915 143.022)"/><path class="h" d="M131.023,313.028l.019.035h3.229q5.8-.2,17.655-.719l11.953-34.158q1.9-62.471,22.151-251.79H78.534Q78.957,13.32,79.928,0H0Q17.934,202.328,130.984,313.063Z" transform="translate(44.377 72.743)"/><path class="i" d="M7.426,112.377Q12.015,30.869,30.405,0H.353A561.894,561.894,0,0,0,7.426,112.377Z" transform="translate(122.585 98.299)"/><path class="j" d="M0,0,53.006,24.642V0Z" transform="translate(146.838 164.319)"/></g></g></g></svg>