<svg xmlns="http://www.w3.org/2000/svg" width="705.832" height="960" viewBox="0 0 705.832 960"><defs><style>.a{fill:#d4a181;}.a,.b,.c,.d,.e,.f,.g,.h,.i,.j{fill-rule:evenodd;}.b{fill:#191847;}.c{fill:#ba8b72;}.d{fill:#e4e4e4;}.e{fill:#db2721;}.f{fill:#ff4133;}.g{fill:#69a1ac;}.h{fill:#89c5cc;}.i{fill:rgba(0,0,0,0.1);}.j{fill:rgba(0,0,0,0.4);}</style></defs><g transform="translate(0 0)"><g transform="translate(0 0)"><g transform="matrix(-0.966, 0.259, -0.259, -0.966, 475.398, 185.148)"><g transform="translate(107.249 0)"><path class="a" d="M18.854,87.876C8.339,100.218,1.222,115.344,2.411,132.292c3.426,48.834,71.4,38.091,84.628,13.444S98.691,58.57,81.6,54.164c-6.815-1.757-21.334,2.547-36.111,11.453L54.766,0H0Z" transform="translate(0)"/></g><path class="b" d="M145.058,22.853C138.266,9.817,128.874,0,119.49,0c-17.823,0-30.5,23.829-30.5,49.45q0,1.35.053,2.682c-18.854-12.938-33.384-38.44-58.331-38.44-33.94,0-47.419,68.457,0,68.457,32.248,0,48.111-4.7,61.782-11.655a44.408,44.408,0,0,0,11.835,18.455,18.4,18.4,0,0,0,5.456,3.872,25.275,25.275,0,0,0,4.531,1.942c8.245,3.03,20.186,5.167,33.526,5.633,2.491.087,4.937.112,7.324.08a22.819,22.819,0,1,0,24.055-22.858A115.174,115.174,0,0,0,153.7,73.278a47.587,47.587,0,0,0,1.469-12.241,69.215,69.215,0,0,0-1.272-12.73,10.662,10.662,0,0,1-7.855,4.177A13.685,13.685,0,0,1,132.35,38.792C132.35,29.844,137.516,23.37,145.058,22.853Z" transform="translate(0 68.457)"/></g><g transform="translate(0 414.628)"><path class="c" d="M620.706,0,451.147,283.472,324.026,523.124H296.646L509.638,0Z" transform="translate(-212.248 0)"/><g transform="translate(0 498.21)"><path class="d" d="M130.8,57.964q3.829,10.222,3.829,15.3a114.5,114.5,0,0,1-2.057,18.014H3.872Q-1.145,74.69,9.664,73.368T27.622,70.98l59.82-26.668a2.282,2.282,0,0,1,3.013,1.155l.025.059,3.845,9.327q10.006,4.669,16.262,4.669,5.083,0,14.039-4.106h0a4.564,4.564,0,0,1,6.05,2.247Q130.745,57.812,130.8,57.964Z" transform="translate(-2.282 -44.113)"/></g><path class="e" d="M321.254,484.749l-52.8-15.973q34.7-103.739,85.064-228.323T461.689,0H610.824Q546.549,146.569,474.545,266.354T321.254,484.749Z" transform="translate(-174.17 0)"/><path class="a" d="M137.537,0c16,99.614,46.869,226.883,49.782,230.81q2.913,3.928,209.73,70.278l-5.915,24.145q-246.629-35.584-259.9-55.216C117.954,250.386,51.665,95.3,25.99,0Z" transform="translate(282.065 0)"/><path class="f" d="M405.718,280.217,395.3,319.1q-184.464,16.179-226.051-23.38T74.457,0H216.666q33.71,209.765,37.692,218.57T405.718,280.217Z" transform="translate(224.93 0)"/><g transform="translate(705.832 293.043) rotate(100)"><path class="d" d="M3.829,33.311Q0,23.089,0,18.014A114.5,114.5,0,0,1,2.057,0h128.7q5.017,16.585-5.792,17.908T107.01,20.3L47.19,46.964a2.282,2.282,0,0,1-3.013-1.155l-.025-.059-3.845-9.327Q30.3,31.753,24.044,31.753q-5.083,0-14.039,4.106h0a4.564,4.564,0,0,1-6.051-2.247Q3.887,33.464,3.829,33.311Z" transform="translate(0 0)"/></g></g><g transform="translate(715.549 633.183) rotate(170)"><path class="a" d="M457.758,151.364l68.882-58.4q28.983-10.037,47.973-23.286c2.922-3.062,6.292-9.086-6.583-7.185s-26.5,3.321-28.6-.97S544.8,51.408,540.776,45.7q-4.027-5.7-32.025,32.26l-69.819,34.845ZM130.722,196.55,170.3,186.488Q90.827,52.873,85.3,45.26C77.012,33.841,83.032,11.8,85.077.253c-16.785-2.992-8.937,21.631-30.2,17.518C35.479,14.017,18.6,2.658,1.6,20.061c-2.09,2.14-3.366,8.552,4.291,11.405,19.076,7.109,47.426,20.806,52.2,26.45Q67.866,69.462,130.722,196.55Z" transform="translate(13.711 138.521) rotate(4)"/><path class="g" d="M172.857,66.019c9.365.672,19.552-.879,30.474-4.559a10.269,10.269,0,0,0,.11-19.425q3.135-2.287,6.325-4.548L191.4,0C114.131,38.528,41.5,67.576,8.408,131.182-2.7,152.53,1.06,225.044,0,251.424l24.4,10.009C58.425,191.112,104.465,123.648,172.857,66.019Z" transform="translate(303.896 249.618)"/><path class="b" d="M0,5.911q107.609-11.821,169.4,0c5.1.976,4.88,22.977,2.513,28.986-36.857,93.57-61.1,162.068-61.1,227.059q-10.144-5.3-35.507-1.588C29.861,193.392,8.974,116.544,0,5.911Z" transform="translate(218.167 249.868)"/><path class="h" d="M138.7,244.716a10.26,10.26,0,0,0-3.082,9.269l1.189,6.742a10.273,10.273,0,0,0,8.9,8.416q1.149,5.135,1.971,10.2c4.607,28.515-3.264,56.475-2.894,83.931q-55.04-46.96-98.75-162.172l-43.1,12.682q2.467,9.164,5.11,18.1c-4.974,2.826-10.787,15.778-6.6,17.945a50.33,50.33,0,0,0,13.717,4.741Q74.427,433.105,209.016,515.709h25.951c-7.641-101.044,97.9-321.644,61.251-510.045C228.486-9.462,131.789,37.6,37.662,0c3.5,75.871,73.66,165,101.033,244.716Z" transform="translate(66.143 0)"/><path class="i" d="M21.044,173.424l-11.773-36.2,23.708-27.14L11.553,88.753,63.388,0,0,88.576l21.044,21.5L0,134.065Z" transform="translate(263.54 340.003)"/><path class="j" d="M9.128,104.967a9.128,9.128,0,1,0,9.128,9.128A9.128,9.128,0,0,0,9.128,104.967ZM20.537,52.484a9.128,9.128,0,1,0,9.128,9.128A9.128,9.128,0,0,0,20.537,52.484ZM22.819,0a9.128,9.128,0,1,0,9.128,9.128A9.128,9.128,0,0,0,22.819,0Z" transform="translate(302.598 200.807)"/></g></g></g></svg>