<svg xmlns="http://www.w3.org/2000/svg" width="144.658" height="51.844" viewBox="0 0 144.658 51.844"><defs><style>.a{fill:#bf2256;}</style></defs><g transform="translate(-36.727 -101.875)"><path class="a" d="M51.784,147.08l16.535,9.547v-6.82L57.69,143.667Z" transform="translate(-5.264 -14.612)"/><path class="a" d="M70.78,135.876l-6.672,3.853,9.6,5.539,6.672-3.851Z" transform="translate(-9.574 -11.888)"/><path class="a" d="M48.542,136.559v6.818l5.907-3.41Z" transform="translate(-4.131 -12.127)"/><path class="a" d="M66.471,128.466l11.7,6.756,5.907-3.41-17.611-10.17-14.687,8.482,5.906,3.408Z" transform="translate(-5.265 -6.911)"/><path class="a" d="M101.514,145.974v-6.822l-5.91,3.41Z" transform="translate(-20.586 -13.033)"/><path class="a" d="M80.449,150.739v6.82L94.1,149.678,88.2,146.264Z" transform="translate(-15.287 -15.52)"/><path class="a" d="M62.647,101.875A25.922,25.922,0,1,0,88.569,127.8a25.922,25.922,0,0,0-25.922-25.923m20.387,32.283-18.9,10.913L42.3,132.468l0,0h0v-9.249h0l0,0,18.9-10.916,21.828,12.6v9.253h0Z"/><path class="a" d="M134.743,113.9c3.223,0,6.075,1.762,6.191,5.426h-2.551c-.185-2.133-2.04-2.968-4.173-2.968a7.063,7.063,0,0,0-6.956,7,4.215,4.215,0,0,0,4.475,4.661,6.168,6.168,0,0,0,5.519-3.246h2.643a9.018,9.018,0,0,1-8.672,5.7c-3.8,0-6.7-2.458-6.7-6.609a10.042,10.042,0,0,1,10.226-9.971" transform="translate(-30.695 -4.204)"/><path class="a" d="M155.263,113.044,152.5,126.006c-.371,1.971.464,2.18,2.041,1.9l-.395,2.18c-3.524.557-4.962-.325-4.151-4.058l2.759-12.986Z" transform="translate(-39.527 -3.905)"/><path class="a" d="M170.961,121.958l-1.716,7.977c-.278,1.368-.232,1.692.858,1.6l-.325,1.647c-1.461.232-3.524.556-2.968-1.855a5.379,5.379,0,0,1-4.429,1.994c-3.107,0-3.687-2.11-3.13-4.893l1.368-6.469h2.574l-1.391,6.469c-.394,1.786.325,2.876,1.809,2.876a3.607,3.607,0,0,0,3.455-2.945l1.368-6.4Z" transform="translate(-42.773 -7.022)"/><path class="a" d="M181.623,113.294h2.342l-1.53,7.328a4.745,4.745,0,0,1,4.035-1.878c2.481,0,4.592,1.831,3.663,5.866a7.225,7.225,0,0,1-7.559,5.8,9.983,9.983,0,0,1-4.359-1.044Zm-.6,14.539a5.944,5.944,0,0,0,2.249.487c2.11,0,3.734-1.206,4.313-3.71.533-2.25-.278-3.734-2.226-3.734-2.04,0-3.269,2.041-3.64,3.734Z" transform="translate(-49.469 -3.992)"/><path class="a" d="M207.446,132.334a10.771,10.771,0,0,1-4.1.858c-3.989.116-5.913-2.157-5.055-6.1a6.755,6.755,0,0,1,6.863-5.565c2.412-.07,4.847,1.252,4.221,3.757-.557,2.342-2.829,3.293-5.008,3.362a6.453,6.453,0,0,1-3.8-.974c-.533,2.341.9,3.57,3.386,3.5a10.729,10.729,0,0,0,3.872-.834Zm-3.2-5.472c1,0,2.388-.441,2.69-1.6.371-1.322-1.067-1.74-2.179-1.74a3.852,3.852,0,0,0-3.641,2.458,5.105,5.105,0,0,0,3.13.882" transform="translate(-56.417 -6.871)"/><path class="a" d="M137.041,146.059l-3.061,14.377c-.139.672.185.974,1,.9l-.371,1.716c-1.669.3-3.246.116-2.875-1.74l.093-.463a5.188,5.188,0,0,1-4.359,2.434c-3.385,0-4.5-2.713-3.8-5.89.626-3.061,2.875-5.866,6.191-5.866,1.67,0,2.806.6,3.293,1.716l1.53-7.188ZM126,157.653c-.441,2.157.579,3.2,1.9,3.269a4.364,4.364,0,0,0,4.151-3.385c.557-1.855.163-3.9-2.04-3.9-2.272,0-3.641,2.04-4.011,4.011" transform="translate(-30.326 -15.448)"/><path class="a" d="M154.24,162.827c-.186,1.02-.394,1.693.881,1.554l-.371,1.716c-1.669.3-3.246.116-2.875-1.74l.092-.463a5.187,5.187,0,0,1-4.359,2.434c-3.432,0-4.5-2.713-3.8-5.89a7.093,7.093,0,0,1,7.443-5.682,10.175,10.175,0,0,1,4.476,1.044Zm-1.252-5.565a5.224,5.224,0,0,0-2.25-.464,4.351,4.351,0,0,0-4.406,3.641c-.441,2.04-.093,3.641,1.948,3.641a4.327,4.327,0,0,0,4.011-3.525Z" transform="translate(-37.368 -18.489)"/><path class="a" d="M171.8,163.575l3.455-16.232h6.724c3.641,0,4.986,2.5,4.614,5.658a6.642,6.642,0,0,1-6.817,5.7h-4.22l-1.043,4.87Zm8.255-7.235a4.044,4.044,0,0,0,3.942-4.011,2.349,2.349,0,0,0-2.527-2.643h-4.058l-1.414,6.655Z" transform="translate(-47.225 -15.897)"/><path class="a" d="M202.066,154.544a3.558,3.558,0,0,1,2.412.788l-1.089,2.18a3.355,3.355,0,0,0-2.087-.672,3.457,3.457,0,0,0-3.455,2.782l-1.368,6.47h-2.5l1.716-8.116c.186-1,.348-1.508-.881-1.438l.325-1.716c1.716-.371,3.455-.093,3.223,1.716a4.347,4.347,0,0,1,3.71-1.994" transform="translate(-54.979 -18.415)"/><path class="a" d="M217.93,165.492a10.771,10.771,0,0,1-4.1.858c-3.988.116-5.913-2.157-5.055-6.1a6.755,6.755,0,0,1,6.863-5.565c2.412-.07,4.847,1.253,4.22,3.757-.556,2.343-2.828,3.293-5.008,3.362a6.452,6.452,0,0,1-3.8-.974c-.533,2.342.9,3.57,3.385,3.5a10.71,10.71,0,0,0,3.872-.835Zm-3.2-5.473c1,0,2.389-.441,2.691-1.6.371-1.322-1.067-1.739-2.18-1.739a3.85,3.85,0,0,0-3.641,2.458,5.111,5.111,0,0,0,3.13.881" transform="translate(-60.082 -18.464)"/><path class="a" d="M232.342,153.293h3.872l-.371,1.809h-3.9l-1.067,5.032c-.626,2.852,1.206,3.038,3.617,2.226l-.139,1.9c-4.081,1.183-6.887.3-5.959-4.081l1.09-5.078-2.25-.163.348-1.646h2.272l1-3.455h2.226Z" transform="translate(-66.611 -16.77)"/><path class="a" d="M251.153,162.827c-.185,1.02-.394,1.693.881,1.554l-.371,1.716c-1.67.3-3.247.116-2.876-1.74l.093-.463a5.188,5.188,0,0,1-4.359,2.434c-3.432,0-4.5-2.713-3.8-5.89a7.092,7.092,0,0,1,7.443-5.682,10.176,10.176,0,0,1,4.475,1.044Zm-1.253-5.565a5.219,5.219,0,0,0-2.249-.464,4.351,4.351,0,0,0-4.406,3.641c-.44,2.04-.093,3.641,1.948,3.641a4.328,4.328,0,0,0,4.011-3.525Z" transform="translate(-71.252 -18.489)"/></g></svg>