<?xml version="1.0" encoding="UTF-8" standalone="no"?>
<svg
   xmlns:dc="http://purl.org/dc/elements/1.1/"
   xmlns:cc="http://creativecommons.org/ns#"
   xmlns:rdf="http://www.w3.org/1999/02/22-rdf-syntax-ns#"
   xmlns:svg="http://www.w3.org/2000/svg"
   xmlns="http://www.w3.org/2000/svg"
   xmlns:sodipodi="http://sodipodi.sourceforge.net/DTD/sodipodi-0.dtd"
   xmlns:inkscape="http://www.inkscape.org/namespaces/inkscape"
   inkscape:version="1.0 (6e3e5246a0, 2020-05-07)"
   sodipodi:docname="man.svg"
   id="svg46"
   version="1.1"
   viewBox="0 0 876.975 1240.579"
   height="1240.579"
   width="876.97498">
  <metadata
     id="metadata50">
    <rdf:RDF>
      <cc:Work
         rdf:about="">
        <dc:format>image/svg+xml</dc:format>
        <dc:type
           rdf:resource="http://purl.org/dc/dcmitype/StillImage" />
        <dc:title></dc:title>
      </cc:Work>
    </rdf:RDF>
  </metadata>
  <sodipodi:namedview
     inkscape:current-layer="svg46"
     inkscape:window-maximized="1"
     inkscape:window-y="0"
     inkscape:window-x="0"
     inkscape:cy="671.28949"
     inkscape:cx="438.98749"
     inkscape:zoom="0.44168724"
     showgrid="false"
     id="namedview48"
     inkscape:window-height="1052"
     inkscape:window-width="1920"
     inkscape:pageshadow="2"
     inkscape:pageopacity="0"
     guidetolerance="10"
     gridtolerance="10"
     objecttolerance="10"
     borderopacity="1"
     bordercolor="#666666"
     pagecolor="#ffffff" />
  <defs
     id="defs4">
    <style
       id="style2">.a{fill:#b28b67;}.a,.b,.c,.d,.e,.f,.g,.h,.i,.j{fill-rule:evenodd;}.b{fill:#191847;}.c{fill:#997659;}.d{fill:#e4e4e4;}.e{fill:#69a1ac;}.f{fill:#89c5cc;}.g{fill:#e87613;}.h{fill:#dde3e9;}.i{fill:#ff9b21;}.j{fill:rgba(0,0,0,0.1);}</style>
  </defs>
  <g
     transform="matrix(0.84733138,0,0,0.89259906,144.81388,90.724284)"
     id="g44">
    <g
       id="g12"
       transform="matrix(-0.966,-0.259,0.259,-0.966,525.743,277.261)">
      <g
         id="g8"
         transform="translate(0.371)">
        <path
           id="path6"
           d="m 27.6,127.5 c -15.393,17.9 -25.811,39.85 -24.07,64.441 5.016,70.852 104.525,55.266 123.882,19.506 19.357,-35.76 17.057,-126.469 -7.96,-132.86 -9.977,-2.549 -31.23,3.695 -52.861,16.617 L 80.168,0 H 0 Z"
           class="a" />
      </g>
      <path
         id="path10"
         transform="translate(0,75.416)"
         d="m 70.97,108.7 q 4.6,-63.553 24.353,-63.553 c 19.751,0 36.508,12.428 45.174,12.428 6.317,0 4.907,-7.836 0.719,-13.645 -3.455,-4.793 -20.279,-9.413 -20.279,-16.844 0,-7.431 13.293,-1.686 13.293,-6.086 0,-7.29 2.336,-21 -10.429,-21 -12.919,0 -49.96,4.666 -56.307,23.671 q -6.145,18.4 -7.946,76.245 a 20.428,20.428 0 0 1 -2.39,0.14 A 19.954,19.954 0 0 1 37.115,80.19 19.72,19.72 0 0 1 43.153,65.98 c -4.637,-6.488 -9.835,-13.265 -15.79,-20.259 -22.374,13.3 -38.976,52.251 -17.1,89.666 6.046,18.329 19.733,28.119 35.9,32.664 13.094,5.429 26.688,6.041 38.162,2.786 22.494,-1.912 42.579,-8.71 48.272,-12.748 0,-21.107 -4.126,-27.369 -39.37,-26.817 C 84.562,126.74 77.9,118.934 70.97,108.7 Z"
         class="b" />
    </g>
    <g
       id="g30"
       transform="translate(43.421,546.807)">
      <path
         id="path14"
         transform="translate(-355.677)"
         d="M 799.941,0 635.992,413.356 526.031,762.815 H 482.61 L 650.716,0 Z"
         class="c" />
      <path
         id="path16"
         transform="translate(203.51)"
         d="m 273.768,0 c 1.746,145.256 27.206,340.82 31.274,349.875 q 4.068,9.055 280.849,230.289 l -29.907,31.88 Q 229.408,422.363 214.3,397.064 C 199.183,371.766 149.982,138.964 110.481,0 Z"
         class="a" />
      <g
         id="g20"
         transform="matrix(-0.643,0.766,-0.766,-0.643,834.555,596.507)">
        <path
           id="path18"
           d="M 5.606,48.762 Q 0,33.8 0,26.37 0,17.334 3.01,0 h 188.4 q 7.344,24.278 -8.479,26.214 -15.823,1.936 -26.288,3.5 L 69.078,68.748 A 3.34,3.34 0 0 1 64.667,67.057 Q 64.648,67.014 64.63,66.97 L 59,53.316 q -14.647,-6.834 -23.8,-6.834 -7.44,0 -20.55,6.01 v 0 A 6.681,6.681 0 0 1 5.789,49.2 q -0.1,-0.214 -0.183,-0.438 z"
           class="d" />
      </g>
      <g
         id="g24"
         transform="translate(0,726.734)">
        <path
           id="path22"
           transform="translate(-3.602,-69.625)"
           d="m 191.735,89.9 q 5.606,14.964 5.606,22.393 0,9.035 -3.01,26.37 H 5.93 q -7.344,-24.278 8.479,-26.214 15.823,-1.936 26.288,-3.5 l 87.567,-39.038 a 3.34,3.34 0 0 1 4.411,1.691 q 0.019,0.043 0.037,0.087 l 5.629,13.654 q 14.647,6.834 23.8,6.834 7.44,0 20.55,-6.01 v 0 a 6.681,6.681 0 0 1 8.857,3.289 q 0.103,0.222 0.187,0.444 z"
           class="d" />
      </g>
      <path
         id="path26"
         transform="translate(-332.133)"
         d="M 666.166,726.82 459.719,704.5 612.721,0 h 184.907 z"
         class="e" />
      <path
         id="path28"
         transform="translate(141.437)"
         d="M 605.26,528.73 469.843,688.4 Q 255.9,455.632 220.379,384.638 184.858,313.644 156.524,0 H 364.7 q 15.48,275.93 20.869,288.77 5.389,12.84 219.691,239.96 z"
         class="f" />
    </g>
    <g
       id="g42"
       transform="rotate(-170,385.20371,395.64088)">
      <path
         id="path32"
         d="m 523.158,295.643 106.551,-77.857 q 43.348,-11.639 72.432,-28.962 c 4.58,-4.153 10.115,-12.563 -8.879,-11.11 -18.994,1.453 -39.04,2.132 -41.661,-4.315 -2.621,-6.447 8.874,-14.157 3.576,-22.855 q -5.3,-8.7 -50.059,43.622 L 499.6,237.7 Z m -409.1,-2.687 69.8,-0.273 Q 119.209,85.005 114.056,72.3 C 106.327,53.239 122.683,24.21 129.678,8.609 106.9,-1.536 109.324,36.03 80.586,22.726 54.355,10.583 34.4,-11.42 4.1,7.188 0.37,9.475 -3.713,18.089 6.152,24.82 30.73,41.589 66.147,70.939 70.933,80.6 q 9.788,19.76 43.123,212.356 z"
         class="a" />
      <path
         id="path34"
         transform="rotate(-5,2599.9891,-3100.1429)"
         d="m 0,371.024 28.345,7.428 c 114.79,-82.431 174.065,-254.9 313.1,-336.846 L 313.345,0 C 83.875,8.108 8.791,218.235 0,371.024 Z"
         class="g" />
      <path
         id="path36"
         transform="translate(186.515,223.221)"
         d="m 0,0 h 255.574 c 11.678,0 9.478,16.78 7.79,25.248 -19.484,97.724 -95.541,203.065 -95.541,342.172 l -73.72,11.5 C 33.128,281.339 12.041,161.193 0,0 Z"
         class="h" />
      <path
         id="path38"
         transform="translate(69.158,83.618)"
         d="m 119.411,422.605 q -16.06,4.594 -25.436,21.428 c -26.945,48.38 -17.214,75.016 11.581,83.767 28.795,8.751 54.475,-9.279 100.353,-9.279 a 46.4,46.4 0 0 0 6.857,-0.467 l 23.078,-1.31 Q 335.164,181.8 290.628,69.8 H 89.471 Q 71.594,28.32 55.257,0 H 0.445 q -7.737,248.957 118.966,422.605 z"
         class="i" />
      <path
         id="path40"
         transform="translate(158.629,153.42)"
         d="M 43.8,114.682 Q 53.293,35.674 74.65,0 H 0 q 20.854,48.387 43.8,114.682 z"
         class="j" />
    </g>
  </g>
</svg>
