<svg xmlns="http://www.w3.org/2000/svg" width="877.975" height="1342.579" viewBox="0 0 877.975 1342.579"><defs><style>.a{fill:#b28b67;}.a,.b,.c,.d,.e,.f,.g,.h,.i,.j{fill-rule:evenodd;}.b{fill:#191847;}.c{fill:#997659;}.d{fill:#e4e4e4;}.e{fill:#69a1ac;}.f{fill:#89c5cc;}.g{fill:#e87613;}.h{fill:#dde3e9;}.i{fill:#ff9b21;}.j{fill:rgba(0,0,0,0.1);}</style></defs><g transform="translate(0 0)"><g transform="matrix(-0.966, -0.259, 0.259, -0.966, 525.743, 277.261)"><g transform="translate(0.371 0)"><path class="a" d="M27.6,127.5C12.207,145.4,1.789,167.35,3.53,191.941c5.016,70.852,104.525,55.266,123.882,19.506s17.057-126.469-7.96-132.86c-9.977-2.549-31.23,3.695-52.861,16.617L80.168,0H0Z" transform="translate(0)"/></g><path class="b" d="M70.97,108.7q4.6-63.553,24.353-63.553c19.751,0,36.508,12.428,45.174,12.428,6.317,0,4.907-7.836.719-13.645-3.455-4.793-20.279-9.413-20.279-16.844S134.23,25.4,134.23,21c0-7.29,2.336-21-10.429-21-12.919,0-49.96,4.666-56.307,23.671q-6.145,18.4-7.946,76.245a20.428,20.428,0,0,1-2.39.14A19.954,19.954,0,0,1,37.115,80.19,19.72,19.72,0,0,1,43.153,65.98c-4.637-6.488-9.835-13.265-15.79-20.259-22.374,13.3-38.976,52.251-17.1,89.666,6.046,18.329,19.733,28.119,35.9,32.664,13.094,5.429,26.688,6.041,38.162,2.786,22.494-1.912,42.579-8.71,48.272-12.748,0-21.107-4.126-27.369-39.37-26.817C84.562,126.74,77.9,118.934,70.97,108.7Z" transform="translate(0 75.416)"/></g><g transform="translate(43.421 546.807)"><path class="c" d="M799.941,0,635.992,413.356,526.031,762.815H482.61L650.716,0Z" transform="translate(-355.677)"/><path class="a" d="M273.768,0c1.746,145.256,27.206,340.82,31.274,349.875q4.068,9.055,280.849,230.289l-29.907,31.88Q229.408,422.363,214.3,397.064C199.183,371.766,149.982,138.964,110.481,0Z" transform="translate(203.51)"/><g transform="matrix(-0.643, 0.766, -0.766, -0.643, 834.555, 596.507)"><path class="d" d="M5.606,48.762Q0,33.8,0,26.37,0,17.334,3.01,0h188.4q7.344,24.278-8.479,26.214t-26.288,3.5L69.078,68.748a3.34,3.34,0,0,1-4.411-1.691q-.019-.043-.037-.087L59,53.316q-14.647-6.834-23.8-6.834-7.44,0-20.55,6.01h0A6.681,6.681,0,0,1,5.789,49.2Q5.689,48.986,5.606,48.762Z" transform="translate(0 0)"/></g><g transform="translate(0 726.734)"><path class="d" d="M191.735,89.9q5.606,14.964,5.606,22.393,0,9.035-3.01,26.37H5.93q-7.344-24.278,8.479-26.214t26.288-3.5l87.567-39.038a3.34,3.34,0,0,1,4.411,1.691q.019.043.037.087l5.629,13.654q14.647,6.834,23.8,6.834,7.44,0,20.55-6.01h0a6.681,6.681,0,0,1,8.857,3.289Q191.651,89.678,191.735,89.9Z" transform="translate(-3.602 -69.625)"/></g><path class="e" d="M666.166,726.82,459.719,704.5,612.721,0H797.628Z" transform="translate(-332.133 0)"/><path class="f" d="M605.26,528.73,469.843,688.4Q255.9,455.632,220.379,384.638T156.524,0H364.7q15.48,275.93,20.869,288.77T605.26,528.73Z" transform="translate(141.437)"/></g><g transform="translate(695.853 852.161) rotate(-170)"><path class="a" d="M523.158,295.643l106.551-77.857q43.348-11.639,72.432-28.962c4.58-4.153,10.115-12.563-8.879-11.11s-39.04,2.132-41.661-4.315,8.874-14.157,3.576-22.855q-5.3-8.7-50.059,43.622L499.6,237.7Zm-409.1-2.687,69.8-.273Q119.209,85.005,114.056,72.3c-7.729-19.061,8.627-48.09,15.622-63.691C106.9-1.536,109.324,36.03,80.586,22.726,54.355,10.583,34.4-11.42,4.1,7.188.37,9.475-3.713,18.089,6.152,24.82,30.73,41.589,66.147,70.939,70.933,80.6Q80.721,100.36,114.056,292.956Z" transform="translate(0 0)"/><path class="g" d="M0,371.024l28.345,7.428c114.79-82.431,174.065-254.9,313.1-336.846L313.345,0C83.875,8.108,8.791,218.235,0,371.024Z" transform="translate(280.089 214.807) rotate(-5)"/><path class="h" d="M0,0H255.574c11.678,0,9.478,16.78,7.79,25.248-19.484,97.724-95.541,203.065-95.541,342.172l-73.72,11.5C33.128,281.339,12.041,161.193,0,0Z" transform="translate(186.515 223.221)"/><path class="i" d="M119.411,422.605q-16.06,4.594-25.436,21.428C67.03,492.413,76.761,519.049,105.556,527.8s54.475-9.279,100.353-9.279a46.4,46.4,0,0,0,6.857-.467l23.078-1.31Q335.164,181.8,290.628,69.8H89.471Q71.594,28.32,55.257,0H.445Q-7.292,248.957,119.411,422.605Z" transform="translate(69.158 83.618)"/><path class="j" d="M43.8,114.682Q53.293,35.674,74.65,0H0Q20.854,48.387,43.8,114.682Z" transform="translate(158.629 153.42)"/></g></g></svg>