<svg xmlns="http://www.w3.org/2000/svg" width="907.015" height="1233.629" viewBox="0 0 907.015 1233.629"><defs><style>.a{fill:#d4a181;}.a,.b,.c,.d,.e,.f,.g,.h,.i,.j{fill-rule:evenodd;}.b{fill:#191847;}.c{fill:#ba8b72;}.d{fill:#e4e4e4;}.e{fill:#db2721;}.f{fill:#ff4133;}.g{fill:#69a1ac;}.h{fill:#89c5cc;}.i{fill:rgba(0,0,0,0.1);}.j{fill:rgba(0,0,0,0.4);}</style></defs><g transform="translate(-12.486 0)"><g transform="translate(0 0)"><g transform="matrix(0.966, 0.259, -0.259, 0.966, 372.351, 0)"><g transform="translate(137.819 32.255)"><path class="a" d="M24.228,101.136C10.716,85.276,1.571,65.839,3.1,44.059,7.5-18.694,94.856-4.889,111.848,26.784S126.821,138.8,104.86,144.456c-8.758,2.258-27.415-3.272-46.4-14.718l11.919,84.321H0Z" transform="translate(0 0)"/></g><path class="b" d="M186.4,128.979c-8.727,16.751-20.8,29.366-32.855,29.366-22.9,0-39.188-30.621-39.188-63.544q0-1.735.068-3.446c-24.228,16.626-42.9,49.4-74.957,49.4-43.614,0-60.935-87.969,0-87.969,41.44,0,61.824,6.042,79.392,14.977,3.465-9.768,8.748-17.98,15.209-23.715a23.639,23.639,0,0,1,7.011-4.975,32.48,32.48,0,0,1,5.823-2.5c10.595-3.893,25.94-6.639,43.081-7.238,3.2-.112,6.344-.144,9.411-.1A29.323,29.323,0,1,1,230.309,58.6a148,148,0,0,1-32.8,5.576A61.15,61.15,0,0,1,199.4,79.91a88.942,88.942,0,0,1-1.635,16.359c-2.732-3.248-6.386-5.367-10.094-5.367A17.586,17.586,0,0,0,170.074,108.5C170.074,119.995,176.712,128.313,186.4,128.979Z" transform="translate(0 0)"/></g><g transform="translate(12.486 532.81)"><path class="c" d="M296.646,0,514.534,364.27,677.888,672.23h35.185L439.372,0Z" transform="translate(85.488 0)"/><g transform="translate(736.942 640.214)"><path class="d" d="M7.2,61.912Q2.282,75.048,2.282,81.57q0,7.932,2.643,23.149H170.312q6.447-21.313-7.443-23.012t-23.077-3.069L62.922,44.368a2.932,2.932,0,0,0-3.872,1.484q-.017.038-.033.076L54.076,57.915q-12.858,6-20.9,6-6.531,0-18.04-5.276h0a5.865,5.865,0,0,0-7.775,2.887Q7.276,61.716,7.2,61.912Z" transform="translate(-2.282 -44.113)"/></g><path class="e" d="M640.557,622.917,708.41,602.39Q663.817,469.082,599.1,308.989T460.094,0H268.451q82.595,188.346,175.122,342.273T640.557,622.917Z" transform="translate(77.452 0)"/><path class="a" d="M359.471,0C338.907,128.007,299.243,291.551,295.5,296.6q-3.743,5.047-269.51,90.31l7.6,31.027q316.926-45.727,333.986-70.954C384.636,321.754,469.819,122.462,502.812,0Z" transform="translate(8.343 0)"/><path class="f" d="M74.457,360.087l13.387,49.971q237.042,20.79,290.482-30.044T500.137,0H317.394q-43.318,269.554-48.436,280.869T74.457,360.087Z" transform="translate(22.158 0)"/><g transform="translate(59.684 366.045) rotate(80)"><path class="d" d="M4.921,17.8Q0,30.935,0,37.456,0,45.388,2.643,60.6H168.03q6.447-21.313-7.443-23.012T137.51,34.524L60.64.255a2.932,2.932,0,0,0-3.872,1.484q-.017.038-.033.076L51.794,13.8q-12.858,6-20.9,6-6.532,0-18.04-5.276h0a5.865,5.865,0,0,0-7.775,2.887Q4.994,17.6,4.921,17.8Z" transform="translate(0 0)"/></g></g><g transform="translate(115.077 161.027) rotate(10)"><path class="a" d="M588.233,58.065l88.516,75.042q37.244,12.9,61.647,29.924c3.755,3.935,8.085,11.675-8.459,9.233S695.88,168,693.189,173.51s6.9,13,1.725,20.332q-5.175,7.331-41.153-41.455l-89.719-44.777ZM167.982,0l50.863,12.93q-102.13,171.7-109.231,181.482c-10.652,14.674-2.915,43-.287,57.836-21.569,3.845-11.484-27.8-38.8-22.511-24.934,4.824-46.626,19.42-68.468-2.943-2.685-2.75-4.325-10.99,5.514-14.656C32.085,203,68.516,185.4,74.654,178.148Q87.209,163.312,167.982,0Z" transform="translate(0 232.74) rotate(-4)"/><path class="g" d="M222.126,251.112c12.034-.864,25.125,1.13,39.16,5.859a13.2,13.2,0,0,1,.141,24.961q4.028,2.939,8.128,5.845l-23.6,48.172C146.662,286.44,53.333,249.112,10.8,167.376-3.469,139.944,1.362,46.761,0,12.861L31.361,0C75.077,90.364,134.241,177.058,222.126,251.112Z" transform="translate(390.516 5.986)"/><path class="b" d="M0,329.025q138.28,15.191,217.683,0c6.558-1.255,6.27-29.526,3.229-37.248C173.549,171.538,142.394,83.516,142.394,0Q129.358,6.809,96.766,2.041C38.373,88.107,11.531,186.858,0,329.025Z" transform="translate(280.351 4.993)"/><path class="h" d="M178.227,348.234a13.184,13.184,0,0,1-3.961-11.911l1.528-8.663a13.2,13.2,0,0,1,11.433-10.815q1.476-6.6,2.533-13.107c5.92-36.642-4.194-72.572-3.719-107.854q-70.728,60.344-126.9,208.4l-55.382-16.3q3.17-11.776,6.567-23.262c-6.392-3.631-13.861-20.275-8.486-23.06a64.676,64.676,0,0,1,17.627-6.093Q95.64,106.148,268.593,0h33.348c-9.819,129.845,125.8,413.323,78.709,655.423-87.039,19.437-211.3-41.039-332.253,7.278,4.5-97.5,94.656-212.033,129.83-314.467Z" transform="translate(84.995 0)"/><path class="i" d="M27.042,0,11.914,46.522,42.379,81.4,14.846,108.8,81.456,222.855,0,109.033,27.042,81.4,0,50.578Z" transform="translate(338.656 2.932)"/><path class="j" d="M11.729,23.458A11.729,11.729,0,1,1,23.458,11.729,11.729,11.729,0,0,1,11.729,23.458ZM26.391,90.9A11.729,11.729,0,1,1,38.12,79.172,11.729,11.729,0,0,1,26.391,90.9Zm2.932,67.443a11.729,11.729,0,1,1,11.729-11.729A11.729,11.729,0,0,1,29.323,158.344Z" transform="translate(388.847 246.314)"/></g></g></g></svg>