<?xml version="1.0" encoding="UTF-8" standalone="no"?>
<svg
   xmlns:dc="http://purl.org/dc/elements/1.1/"
   xmlns:cc="http://creativecommons.org/ns#"
   xmlns:rdf="http://www.w3.org/1999/02/22-rdf-syntax-ns#"
   xmlns:svg="http://www.w3.org/2000/svg"
   xmlns="http://www.w3.org/2000/svg"
   xmlns:sodipodi="http://sodipodi.sourceforge.net/DTD/sodipodi-0.dtd"
   xmlns:inkscape="http://www.inkscape.org/namespaces/inkscape"
   width="736.66101"
   height="1121.568"
   viewBox="0 0 736.661 1121.568"
   version="1.1"
   id="svg48"
   sodipodi:docname="woman-home.svg"
   inkscape:version="1.0 (6e3e5246a0, 2020-05-07)">
  <metadata
     id="metadata52">
    <rdf:RDF>
      <cc:Work
         rdf:about="">
        <dc:format>image/svg+xml</dc:format>
        <dc:type
           rdf:resource="http://purl.org/dc/dcmitype/StillImage" />
        <dc:title></dc:title>
      </cc:Work>
    </rdf:RDF>
  </metadata>
  <sodipodi:namedview
     inkscape:document-rotation="0"
     pagecolor="#ffffff"
     bordercolor="#666666"
     borderopacity="1"
     objecttolerance="10"
     gridtolerance="10"
     guidetolerance="10"
     inkscape:pageopacity="0"
     inkscape:pageshadow="2"
     inkscape:window-width="1920"
     inkscape:window-height="1052"
     id="namedview50"
     showgrid="false"
     inkscape:zoom="0.6135109"
     inkscape:cx="355.33051"
     inkscape:cy="483.284"
     inkscape:window-x="0"
     inkscape:window-y="0"
     inkscape:window-maximized="1"
     inkscape:current-layer="svg48" />
  <defs
     id="defs4">
    <style
       id="style2">.a{fill:#d4a181;}.a,.b,.c,.d,.e,.f,.g,.h,.i,.j{fill-rule:evenodd;}.b{fill:#191847;}.c{fill:#ba8b72;}.d{fill:#e4e4e4;}.e{fill:#db2721;}.f{fill:#ff4133;}.g{fill:#e5a700;}.h{fill:#e5e5e5;}.i{fill:#ffba00;}.j{fill:rgba(0,0,0,0.1);}</style>
  </defs>
  <g
     transform="matrix(1.0923093,0,0,1.209403,0.00986808,8.0246734)"
     id="g46">
    <g
       id="g44">
      <g
         transform="matrix(0.966,0.259,-0.259,0.966,291.743,0)"
         id="g12">
        <g
           transform="translate(107.983,25.273)"
           id="g8">
          <path
             class="a"
             d="M 18.983,79.241 C 8.4,66.815 1.231,51.586 2.428,34.521 5.878,-14.647 74.321,-3.83 87.635,20.985 c 13.314,24.815 11.732,87.763 -5.475,92.2 -6.862,1.769 -21.48,-2.564 -36.358,-11.532 l 9.339,66.067 H 0 Z"
             id="path6" />
        </g>
        <path
           class="b"
           d="m 146.05,101.057 c -6.838,13.125 -16.294,23.009 -25.742,23.009 -17.945,0 -30.7,-23.992 -30.7,-49.788 q 0,-1.36 0.053,-2.7 c -18.983,13.026 -33.613,38.7 -58.73,38.7 -34.172,0 -47.743,-68.925 0,-68.925 32.469,0 48.44,4.734 62.2,11.734 a 44.712,44.712 0 0 1 11.916,-18.581 18.522,18.522 0 0 1 5.493,-3.9 25.448,25.448 0 0 1 4.562,-1.956 c 8.3,-3.051 20.324,-5.2 33.755,-5.671 2.508,-0.088 4.971,-0.113 7.374,-0.081 a 22.975,22.975 0 1 1 24.22,23.015 115.962,115.962 0 0 1 -25.7,4.369 47.911,47.911 0 0 1 1.479,12.325 69.688,69.688 0 0 1 -1.281,12.817 10.735,10.735 0 0 0 -7.909,-4.205 13.779,13.779 0 0 0 -13.785,13.785 c 0.001,9.014 5.202,15.531 12.795,16.053 z"
           id="path10" />
      </g>
      <g
         transform="translate(9.783,417.465)"
         id="g30">
        <path
           class="c"
           d="M 296.646,0 467.365,285.412 595.355,526.7 h 27.568 L 408.474,0 Z"
           transform="translate(2.762)"
           id="path14" />
        <g
           transform="translate(577.406,501.618)"
           id="g18">
          <path
             class="d"
             d="M 6.137,58.059 Q 2.281,68.351 2.281,73.459 A 115.284,115.284 0 0 0 4.352,91.6 h 129.584 q 5.051,-16.7 -5.832,-18.03 -10.883,-1.33 -18.081,-2.4 L 49.794,44.313 a 2.3,2.3 0 0 0 -3.034,1.163 l -0.026,0.06 -3.871,9.391 q -10.075,4.7 -16.373,4.7 -5.118,0 -14.135,-4.134 v 0 a 4.6,4.6 0 0 0 -6.092,2.262 q -0.068,0.15 -0.126,0.304 z"
             transform="translate(-2.282,-44.113)"
             id="path16" />
        </g>
        <path
           class="e"
           d="m 560,488.065 53.164,-16.083 Q 578.227,367.533 527.52,242.1 476.813,116.667 418.606,0 H 268.451 Q 333.165,147.572 405.662,268.176 478.159,388.78 560,488.065 Z"
           transform="translate(2.569)"
           id="path20" />
        <path
           class="a"
           d="m 287.278,0 c -16.113,100.3 -47.19,228.435 -50.122,232.389 q -2.933,3.954 -211.165,70.759 l 5.955,24.31 Q 280.262,291.63 293.629,271.865 C 307,252.1 373.737,95.951 399.588,0 Z"
           transform="translate(0.91)"
           id="path22" />
        <path
           class="f"
           d="m 74.457,282.134 10.489,39.153 q 185.726,16.289 227.6,-23.54 Q 354.42,257.918 407.984,0 H 264.8 q -33.941,211.2 -37.95,220.066 -4.009,8.866 -152.393,62.068 z"
           transform="translate(1.242)"
           id="path24" />
        <g
           transform="rotate(80,-147.51666,171.26658)"
           id="g28">
          <path
             class="d"
             d="M 3.856,13.946 Q 0,24.238 0,29.348 a 115.283,115.283 0 0 0 2.071,18.137 h 129.583 q 5.051,-16.7 -5.832,-18.03 -10.883,-1.33 -18.081,-2.4 L 47.512,0.2 a 2.3,2.3 0 0 0 -3.034,1.163 l -0.026,0.06 -3.871,9.391 q -10.075,4.7 -16.373,4.7 -5.118,0 -14.135,-4.134 v 0 a 4.6,4.6 0 0 0 -6.092,2.262 q -0.068,0.15 -0.125,0.304 z"
             id="path26" />
        </g>
      </g>
      <g
         transform="rotate(10,-675.9652,578.37883)"
         id="g42">
        <path
           class="a"
           d="m 460.89,45.5 69.354,58.8 q 29.181,10.105 48.3,23.446 c 2.942,3.083 6.335,9.148 -6.628,7.234 -12.963,-1.914 -26.684,-3.343 -28.793,0.976 -2.109,4.319 5.406,10.187 1.351,15.931 q -4.054,5.744 -32.244,-32.481 L 441.93,84.323 Z M 131.617,0 171.469,10.131 Q 91.448,144.659 85.884,152.325 c -8.346,11.5 -2.284,33.689 -0.225,45.315 -16.9,3.012 -9,-21.779 -30.4,-17.638 -19.536,3.78 -36.532,15.216 -53.646,-2.306 -2.1,-2.154 -3.389,-8.611 4.321,-11.483 19.206,-7.157 47.751,-20.948 52.56,-26.631 Q 68.33,127.957 131.617,0 Z"
           transform="rotate(-4,2610.982,91.1775)"
           id="path32" />
        <path
           class="g"
           d="m 174.039,196.751 c 9.429,-0.677 19.686,0.885 30.682,4.59 a 10.339,10.339 0 0 1 0.111,19.558 q 3.156,2.3 6.369,4.58 l -18.488,37.743 C 114.912,224.43 41.787,195.183 8.466,131.142 -2.718,109.648 1.067,36.638 0,10.077 L 24.572,0 c 34.252,70.8 80.608,138.728 149.467,196.751 z"
           transform="translate(305.975,4.69)"
           id="path34" />
        <path
           class="h"
           d="m 0,257.8 q 108.345,11.9 170.558,0 c 5.139,-0.983 4.913,-23.134 2.53,-29.184 C 135.979,134.4 111.568,65.436 111.568,0 Q 101.354,5.335 75.818,1.6 C 30.066,69.033 9.035,146.406 0,257.8 Z"
           transform="translate(219.66,3.912)"
           id="path36" />
        <path
           class="i"
           d="m 139.644,272.847 a 10.33,10.33 0 0 1 -3.1,-9.333 l 1.2,-6.788 a 10.343,10.343 0 0 1 8.958,-8.474 q 1.157,-5.17 1.985,-10.269 c 4.638,-28.71 -3.286,-56.861 -2.914,-84.505 Q 90.35,200.759 46.341,316.76 L 2.948,303.991 q 2.484,-9.227 5.145,-18.226 C 3.085,282.92 -2.768,269.879 1.444,267.7 a 50.674,50.674 0 0 1 13.811,-4.774 Q 74.936,83.169 210.447,0 h 26.129 c -7.693,101.735 98.566,323.845 61.67,513.535 -68.2,15.229 -165.555,-32.154 -260.326,5.7 3.526,-76.39 74.164,-166.131 101.724,-246.39 z"
           transform="translate(66.595)"
           id="path38" />
        <path
           class="j"
           d="M 21.188,0 9.335,36.451 33.2,63.777 11.632,85.25 63.821,174.61 0,85.429 21.188,63.777 0,39.628 Z"
           transform="translate(265.343,2.297)"
           id="path40" />
      </g>
    </g>
  </g>
</svg>
