<svg xmlns="http://www.w3.org/2000/svg" width="710.661" height="966.568" viewBox="0 0 710.661 966.568"><defs><style>.a{fill:#d4a181;}.a,.b,.c,.d,.e,.f,.g,.h,.i,.j{fill-rule:evenodd;}.b{fill:#191847;}.c{fill:#ba8b72;}.d{fill:#e4e4e4;}.e{fill:#db2721;}.f{fill:#ff4133;}.g{fill:#e5a700;}.h{fill:#e5e5e5;}.i{fill:#ffba00;}.j{fill:rgba(0,0,0,0.1);}</style></defs><g transform="translate(-9.783 0)"><g transform="translate(0 0)"><g transform="matrix(0.966, 0.259, -0.259, 0.966, 291.743, 0)"><g transform="translate(107.983 25.273)"><path class="a" d="M18.983,79.241C8.4,66.815,1.231,51.586,2.428,34.521,5.878-14.647,74.321-3.83,87.635,20.985s11.732,87.763-5.475,92.2c-6.862,1.769-21.48-2.564-36.358-11.532l9.339,66.067H0Z" transform="translate(0 0)"/></g><path class="b" d="M146.05,101.057c-6.838,13.125-16.294,23.009-25.742,23.009-17.945,0-30.7-23.992-30.7-49.788q0-1.36.053-2.7c-18.983,13.026-33.613,38.7-58.73,38.7-34.172,0-47.743-68.925,0-68.925,32.469,0,48.44,4.734,62.2,11.734a44.712,44.712,0,0,1,11.916-18.581,18.522,18.522,0,0,1,5.493-3.9,25.448,25.448,0,0,1,4.562-1.956c8.3-3.051,20.324-5.2,33.755-5.671,2.508-.088,4.971-.113,7.374-.081a22.975,22.975,0,1,1,24.22,23.015,115.962,115.962,0,0,1-25.7,4.369,47.911,47.911,0,0,1,1.479,12.325,69.688,69.688,0,0,1-1.281,12.817,10.735,10.735,0,0,0-7.909-4.205,13.779,13.779,0,0,0-13.785,13.785C133.256,94.018,138.457,100.535,146.05,101.057Z" transform="translate(0 0)"/></g><g transform="translate(9.783 417.465)"><path class="c" d="M296.646,0,467.365,285.412,595.355,526.7h27.568L408.474,0Z" transform="translate(2.762 0)"/><g transform="translate(577.406 501.618)"><path class="d" d="M6.137,58.059q-3.856,10.292-3.856,15.4A115.284,115.284,0,0,0,4.352,91.6H133.936q5.051-16.7-5.832-18.03t-18.081-2.4L49.794,44.313a2.3,2.3,0,0,0-3.034,1.163l-.026.06-3.871,9.391q-10.075,4.7-16.373,4.7-5.118,0-14.135-4.134h0a4.6,4.6,0,0,0-6.092,2.262Q6.195,57.905,6.137,58.059Z" transform="translate(-2.282 -44.113)"/></g><path class="e" d="M560,488.065l53.164-16.083Q578.227,367.533,527.52,242.1T418.606,0H268.451q64.714,147.572,137.211,268.176T560,488.065Z" transform="translate(2.569 0)"/><path class="a" d="M287.278,0c-16.113,100.3-47.19,228.435-50.122,232.389q-2.933,3.954-211.165,70.759l5.955,24.31q248.316-35.828,261.683-55.593C307,252.1,373.737,95.951,399.588,0Z" transform="translate(0.91 0)"/><path class="f" d="M74.457,282.134l10.489,39.153q185.726,16.289,227.6-23.54T407.984,0H264.8q-33.941,211.2-37.95,220.066T74.457,282.134Z" transform="translate(1.242 0)"/><g transform="translate(46.764 286.802) rotate(80)"><path class="d" d="M3.856,13.946Q0,24.238,0,29.348A115.283,115.283,0,0,0,2.071,47.485H131.654q5.051-16.7-5.832-18.03t-18.081-2.4L47.512.2a2.3,2.3,0,0,0-3.034,1.163l-.026.06-3.871,9.391q-10.075,4.7-16.373,4.7-5.118,0-14.135-4.134h0a4.6,4.6,0,0,0-6.092,2.262Q3.913,13.792,3.856,13.946Z" transform="translate(0 0)"/></g></g><g transform="translate(90.165 126.167) rotate(10)"><path class="a" d="M460.89,45.5l69.354,58.8q29.181,10.105,48.3,23.446c2.942,3.083,6.335,9.148-6.628,7.234s-26.684-3.343-28.793.976,5.406,10.187,1.351,15.931q-4.054,5.744-32.244-32.481l-70.3-35.083ZM131.617,0l39.852,10.131Q91.448,144.659,85.884,152.325c-8.346,11.5-2.284,33.689-.225,45.315-16.9,3.012-9-21.779-30.4-17.638-19.536,3.78-36.532,15.216-53.646-2.306-2.1-2.154-3.389-8.611,4.321-11.483,19.206-7.157,47.751-20.948,52.56-26.631Q68.33,127.957,131.617,0Z" transform="translate(0 182.355) rotate(-4)"/><path class="g" d="M174.039,196.751c9.429-.677,19.686.885,30.682,4.59a10.339,10.339,0,0,1,.111,19.558q3.156,2.3,6.369,4.58l-18.488,37.743C114.912,224.43,41.787,195.183,8.466,131.142-2.718,109.648,1.067,36.638,0,10.077L24.572,0C58.824,70.8,105.18,138.728,174.039,196.751Z" transform="translate(305.975 4.69)"/><path class="h" d="M0,257.8q108.345,11.9,170.558,0c5.139-.983,4.913-23.134,2.53-29.184C135.979,134.4,111.568,65.436,111.568,0q-10.214,5.335-35.75,1.6C30.066,69.033,9.035,146.406,0,257.8Z" transform="translate(219.66 3.912)"/><path class="i" d="M139.644,272.847a10.33,10.33,0,0,1-3.1-9.333l1.2-6.788a10.343,10.343,0,0,1,8.958-8.474q1.157-5.17,1.985-10.269c4.638-28.71-3.286-56.861-2.914-84.505Q90.35,200.759,46.341,316.76L2.948,303.991q2.484-9.227,5.145-18.226C3.085,282.92-2.768,269.879,1.444,267.7a50.674,50.674,0,0,1,13.811-4.774Q74.936,83.169,210.447,0h26.129c-7.693,101.735,98.566,323.845,61.67,513.535-68.2,15.229-165.555-32.154-260.326,5.7,3.526-76.39,74.164-166.131,101.724-246.39Z" transform="translate(66.595 0)"/><path class="j" d="M21.188,0,9.335,36.451,33.2,63.777,11.632,85.25l52.189,89.36L0,85.429,21.188,63.777,0,39.628Z" transform="translate(265.343 2.297)"/></g></g></g></svg>