<?xml version="1.0" encoding="UTF-8" standalone="no"?>
<svg
   xmlns:dc="http://purl.org/dc/elements/1.1/"
   xmlns:cc="http://creativecommons.org/ns#"
   xmlns:rdf="http://www.w3.org/1999/02/22-rdf-syntax-ns#"
   xmlns:svg="http://www.w3.org/2000/svg"
   xmlns="http://www.w3.org/2000/svg"
   xmlns:sodipodi="http://sodipodi.sourceforge.net/DTD/sodipodi-0.dtd"
   xmlns:inkscape="http://www.inkscape.org/namespaces/inkscape"
   width="1499"
   height="973.784"
   viewBox="0 0 1499 973.784"
   version="1.1"
   id="svg8"
   sodipodi:docname="cima.svg"
   inkscape:version="0.92.3 (2405546, 2018-03-11)">
  <metadata
     id="metadata12">
    <rdf:RDF>
      <cc:Work
         rdf:about="">
        <dc:format>image/svg+xml</dc:format>
        <dc:type
           rdf:resource="http://purl.org/dc/dcmitype/StillImage" />
        <dc:title></dc:title>
      </cc:Work>
    </rdf:RDF>
  </metadata>
  <sodipodi:namedview
     pagecolor="#ffffff"
     bordercolor="#666666"
     borderopacity="1"
     objecttolerance="10"
     gridtolerance="10"
     guidetolerance="10"
     inkscape:pageopacity="0"
     inkscape:pageshadow="2"
     inkscape:window-width="1920"
     inkscape:window-height="1052"
     id="namedview10"
     showgrid="false"
     inkscape:zoom="0.50485811"
     inkscape:cx="1157.8972"
     inkscape:cy="1032.3316"
     inkscape:window-x="0"
     inkscape:window-y="0"
     inkscape:window-maximized="1"
     inkscape:current-layer="svg8" />
  <defs
     id="defs4">
    <style
       id="style2">.a{fill:#be0027;}</style>
    <style
       id="style16">.a{fill:none;}.b{clip-path:url(#a);}.c{fill:#ede7d9;}</style>
    <clipPath
       id="a">
      <rect
         id="rect18"
         height="1365.792"
         width="975.41602"
         class="a"
         x="0"
         y="0"
         style="fill:none" />
    </clipPath>
    <style
       id="style47">.a{fill:#ede7d9;}</style>
  </defs>
  <path
     class="a"
     d="m 1269.5318,-568.58607 502.2335,911.33267 c -0.642,1.3162 -1.2952,2.64521 -1.9359,3.94218 -28.2707,57.37162 -64.5568,118.37247 -115.5866,158.72855 -0.7456,0.58109 -1.4821,1.15714 -2.2309,1.73462 -25.4818,19.62678 -55.5188,33.89476 -83.436,49.36642 a 296.72161,293.5065 59.182686 0 1 -81.0327,29.88515 c -29.5067,6.1647 -62.3038,5.9617 -91.5498,-2.8577 -28.4522,-8.5728 -62.1342,-19.566 -87.1093,-35.97823 -15.2187,-9.99607 -30.1749,-22.11316 -44.9695,-32.4884 -15.1014,-10.57985 -30.0721,-21.10591 -43.8447,-33.43031 -27.105,-24.25904 -51.4851,-53.16724 -74.2148,-81.60696 -0.7596,-0.94527 -1.4984,-1.88867 -2.2523,-2.82377 -29.1861,-36.62741 -50.7595,-75.26223 -73.5309,-115.79733 -25.544,-45.46382 -40.5215,-93.2723 -56.4232,-142.75294 -8.1611,-25.39428 -15.46566,-49.688663 -21.7992,-75.475003 -6.8277,-27.7321 -12.7752,-55.84624 -14.7896,-84.368912 -1.2286,-17.40092 -1.0559,-34.92095 -2.1048,-52.35986 -3.4192,-57.647005 4.4351,-117.204955 9.4056,-174.459875 4.33,-50.09627 7.5822,-100.22622 9.0587,-150.52647 q 0.2737,-9.18238 0.1593,-18.26513 z"
     id="path6"
     inkscape:connector-curvature="0"
     style="fill:#be0027;stroke-width:1.15437293" />
  <g
     id="g31"
     clip-path="url(#a)"
     class="b"
     transform="matrix(-0.25381444,-0.9667203,0.88518424,-0.2187754,1314.6086,486.62838)">
    <g
       id="g25"
       transform="matrix(0.87726193,0.08404021,0.0840402,1.945825,-165.34351,-1214.7368)">
      <path
         id="path23"
         transform="translate(-251.273,-55.814)"
         d="m 535.151,926.2 a 277.481,277.481 0 0 1 -31.492,-1.938 c -23.56,-2.7 -43.253,-7.253 -61.975,-14.32 -23.186,-8.756 -52.468,-21.426 -73.219,-41.813 -20.22,-19.866 -34.664,-35.947 -46.851,-52.138 -18,-23.923 -32.641,-51.545 -44.75,-84.448 -4.34,-11.789 -8.306,-23.89 -12.139,-35.583 -2.981,-9.1 -6.067,-18.507 -9.3,-27.693 -0.426,-1.211 -0.89,-2.378 -1.354,-3.531 -1.636,-4.115 -3.187,-8 -2.708,-12.751 l 2.383,0.244 c -0.421,4.163 1.024,7.785 2.55,11.622 0.474,1.182 0.952,2.383 1.387,3.622 3.244,9.21 6.33,18.631 9.316,27.741 3.828,11.679 7.785,23.751 12.11,35.5 12.029,32.684 26.559,60.1 44.42,83.841 12.11,16.091 26.483,32.086 46.612,51.865 20.435,20.076 49.42,32.607 72.391,41.282 18.531,7 38.042,11.5 61.4,14.182 33.129,3.8 59.238,1.99 79.827,-5.521 28.971,-10.574 61.841,-23.684 85.2,-45.521 12.234,-11.431 23.89,-25.679 34.631,-42.339 14.45,-22.416 21.129,-47.994 26.258,-70.214 12.287,-53.253 11.842,-109.5 11.411,-163.9 l -0.038,-5.11 c -0.182,-24.028 -1.7,-48.449 -3.168,-72.061 -1.349,-21.722 -2.742,-44.186 -3.1,-66.324 -0.809,-50.018 1.521,-88.5 7.564,-124.778 5.919,-35.54 14.478,-67.42 25.44,-94.74 10.818,-26.976 22.33,-48.483 35.191,-65.75 17.842,-23.957 40.837,-44.54 61.123,-62.7 A 169.973,169.973 0 0 1 899.633,74.9 80.1,80.1 0 0 1 940.465,55.809 l 0.373,2.364 a 77.77,77.77 0 0 0 -39.708,18.6 l -0.177,0.129 a 167.984,167.984 0 0 0 -35.019,27.746 c -20.268,18.148 -43.167,38.645 -60.865,62.41 -12.737,17.1 -24.148,38.43 -34.889,65.21 -10.895,27.162 -19.406,58.87 -25.3,94.243 -6.014,36.129 -8.339,74.477 -7.531,124.347 0.354,22.086 1.746,44.516 3.1,66.214 1.469,23.646 2.986,48.095 3.172,72.19 l 0.038,5.11 c 0.431,54.535 0.875,110.927 -11.474,164.452 -5.172,22.416 -11.918,48.234 -26.578,70.975 -10.851,16.828 -22.626,31.224 -35.009,42.794 -23.693,22.138 -56.822,35.363 -86.018,46.018 -13.899,5.07 -30.229,7.589 -49.429,7.589 z"
         class="c"
         inkscape:connector-curvature="0"
         style="fill:#ede7d9" />
    </g>
    <g
       id="g29"
       transform="translate(425.239,1033.203)" />
  </g>
  <path
     id="path51"
     d="m 1115.1611,613.41881 a 71.467023,66.008373 0 0 0 0.1112,10.03731 90.839275,83.900971 0 0 0 4.5165,14.92547 49.815684,46.010762 0 0 0 7.8934,14.63026 56.532509,52.214557 0 0 0 21.5564,13.4986 c 3.8286,1.52742 8.3196,4.18863 12.4609,4.8411 3.011,0.47063 6.4134,0.67386 9.4614,0.87067 10.1726,0.65889 20.9982,-2.94145 30.2837,-6.43269 a 61.584025,56.880238 0 0 0 17.4637,-9.8405 c 11.8332,-9.24152 16.5002,-25.52327 15.8494,-39.46255 a 65.315338,60.326553 0 0 0 -14.6334,-34.27062 70.202407,64.840348 0 0 0 -13.7093,-13.29324 38.663437,35.710324 0 0 0 -15.7243,-6.06474 c -7.905,-1.39051 -16.579,-4.0068 -24.6901,-2.39809 -3.7059,0.73376 -7.6086,1.4825 -11.4047,2.47296 -3.8402,1.00117 -7.5831,2.3168 -11.3955,3.08479 a 23.898002,22.072673 0 0 0 -10.2953,5.77595 46.448006,42.900308 0 0 0 -9.4962,8.75376 c -2.2929,3.303 -2.8303,6.91404 -4.1158,10.60208 -0.6184,1.76915 -1.0214,3.51904 -1.6027,5.2882 -0.4216,1.28354 -1.1396,2.4537 -1.5982,3.71799 -1.6769,4.62932 -0.7504,7.91305 -0.9311,13.26329 z"
     class="a"
     inkscape:connector-curvature="0"
     style="fill:#ede7d9;stroke-width:2.22593641" />
  <g
     transform="matrix(0.0643086,1.5157115,-1.2202879,0.07210775,1219.3299,-299.82473)"
     class="b"
     clip-path="url(#a)"
     id="g67">
    <g
       transform="matrix(0.87726193,0.08404021,0.0840402,1.945825,-165.34351,-1214.7368)"
       id="g63">
      <path
         style="fill:#ede7d9"
         inkscape:connector-curvature="0"
         class="c"
         d="m 535.151,926.2 a 277.481,277.481 0 0 1 -31.492,-1.938 c -23.56,-2.7 -43.253,-7.253 -61.975,-14.32 -23.186,-8.756 -52.468,-21.426 -73.219,-41.813 -20.22,-19.866 -34.664,-35.947 -46.851,-52.138 -18,-23.923 -32.641,-51.545 -44.75,-84.448 -4.34,-11.789 -8.306,-23.89 -12.139,-35.583 -2.981,-9.1 -6.067,-18.507 -9.3,-27.693 -0.426,-1.211 -0.89,-2.378 -1.354,-3.531 -1.636,-4.115 -3.187,-8 -2.708,-12.751 l 2.383,0.244 c -0.421,4.163 1.024,7.785 2.55,11.622 0.474,1.182 0.952,2.383 1.387,3.622 3.244,9.21 6.33,18.631 9.316,27.741 3.828,11.679 7.785,23.751 12.11,35.5 12.029,32.684 26.559,60.1 44.42,83.841 12.11,16.091 26.483,32.086 46.612,51.865 20.435,20.076 49.42,32.607 72.391,41.282 18.531,7 38.042,11.5 61.4,14.182 33.129,3.8 59.238,1.99 79.827,-5.521 28.971,-10.574 61.841,-23.684 85.2,-45.521 12.234,-11.431 23.89,-25.679 34.631,-42.339 14.45,-22.416 21.129,-47.994 26.258,-70.214 12.287,-53.253 11.842,-109.5 11.411,-163.9 l -0.038,-5.11 c -0.182,-24.028 -1.7,-48.449 -3.168,-72.061 -1.349,-21.722 -2.742,-44.186 -3.1,-66.324 -0.809,-50.018 1.521,-88.5 7.564,-124.778 5.919,-35.54 14.478,-67.42 25.44,-94.74 10.818,-26.976 22.33,-48.483 35.191,-65.75 17.842,-23.957 40.837,-44.54 61.123,-62.7 A 169.973,169.973 0 0 1 899.633,74.9 80.1,80.1 0 0 1 940.465,55.809 l 0.373,2.364 a 77.77,77.77 0 0 0 -39.708,18.6 l -0.177,0.129 a 167.984,167.984 0 0 0 -35.019,27.746 c -20.268,18.148 -43.167,38.645 -60.865,62.41 -12.737,17.1 -24.148,38.43 -34.889,65.21 -10.895,27.162 -19.406,58.87 -25.3,94.243 -6.014,36.129 -8.339,74.477 -7.531,124.347 0.354,22.086 1.746,44.516 3.1,66.214 1.469,23.646 2.986,48.095 3.172,72.19 l 0.038,5.11 c 0.431,54.535 0.875,110.927 -11.474,164.452 -5.172,22.416 -11.918,48.234 -26.578,70.975 -10.851,16.828 -22.626,31.224 -35.009,42.794 -23.693,22.138 -56.822,35.363 -86.018,46.018 -13.899,5.07 -30.229,7.589 -49.429,7.589 z"
         transform="translate(-251.273,-55.814)"
         id="path61" />
    </g>
    <g
       transform="translate(425.239,1033.203)"
       id="g65" />
  </g>
</svg>
