<?xml version="1.0" encoding="UTF-8" standalone="no"?>
<svg
   xmlns:dc="http://purl.org/dc/elements/1.1/"
   xmlns:cc="http://creativecommons.org/ns#"
   xmlns:rdf="http://www.w3.org/1999/02/22-rdf-syntax-ns#"
   xmlns:svg="http://www.w3.org/2000/svg"
   xmlns="http://www.w3.org/2000/svg"
   xmlns:sodipodi="http://sodipodi.sourceforge.net/DTD/sodipodi-0.dtd"
   xmlns:inkscape="http://www.inkscape.org/namespaces/inkscape"
   width="312"
   height="784.63397"
   viewBox="0 0 312 784.634"
   version="1.1"
   id="svg8"
   sodipodi:docname="direitacimamobile.svg"
   inkscape:version="0.92.3 (2405546, 2018-03-11)">
  <metadata
     id="metadata12">
    <rdf:RDF>
      <cc:Work
         rdf:about="">
        <dc:format>image/svg+xml</dc:format>
        <dc:type
           rdf:resource="http://purl.org/dc/dcmitype/StillImage" />
        <dc:title></dc:title>
      </cc:Work>
    </rdf:RDF>
  </metadata>
  <sodipodi:namedview
     pagecolor="#ffffff"
     bordercolor="#666666"
     borderopacity="1"
     objecttolerance="10"
     gridtolerance="10"
     guidetolerance="10"
     inkscape:pageopacity="0"
     inkscape:pageshadow="2"
     inkscape:window-width="1920"
     inkscape:window-height="1052"
     id="namedview10"
     showgrid="false"
     inkscape:zoom="0.30077719"
     inkscape:cx="363.2775"
     inkscape:cy="392.31699"
     inkscape:window-x="0"
     inkscape:window-y="0"
     inkscape:window-maximized="1"
     inkscape:current-layer="svg8" />
  <defs
     id="defs4">
    <style
       id="style2">.a{fill:#fdeec9;}</style>
  </defs>
  <path
     class="a"
     d="M 1.3700026,-355.25168 614.26064,-136.24974 c 0.24256,0.89071 0.48559,1.789 0.71967,2.67353 10.42163,38.942234 18.57646,82.965081 11.25959,123.440388 -0.11004,0.5873443 -0.21804,1.1690293 -0.33185,1.7550303 -3.8704,19.9659297 -12.09653,39.3133187 -18.82792,58.3387507 a 185.58911,185.58911 0 0 1 -25.75079,48.136928 c -11.32764,15.299133 -26.83336,28.983203 -44.23228,37.107073 -16.92185,7.90346 -37.30594,16.86718 -55.83449,19.61556 -11.28835,1.67641 -23.33117,2.24203 -34.57298,3.56228 -11.47503,1.35162 -22.86526,2.67403 -34.43721,2.64423 -22.77404,-0.0602 -46.18773,-3.45787 -68.63267,-7.32827 -0.74801,-0.12709 -1.48513,-0.26088 -2.22619,-0.38655 -28.86525,-5.0217 -54.98073,-14.18669 -82.44526,-23.74665 C 228.14344,118.84304 201.33741,102.57733 173.40577,85.912587 159.07057,77.359537 145.59346,68.964427 131.95498,59.463301 117.28022,49.247759 102.86183,38.481229 90.124278,25.870286 82.357628,18.178426 75.190488,9.8372773 67.492298,2.0519753 42.056009,-23.712603 21.12875,-55.107656 -0.20204243,-84.208229 -18.874163,-109.66202 -38.067501,-134.67965 -58.166007,-159.0308 q -3.667155,-4.44792 -7.47584,-8.68407 z"
     id="path6"
     inkscape:connector-curvature="0"
     style="fill:#fdeec9;stroke-width:1.00020003" />
</svg>
