<?xml version="1.0" encoding="UTF-8" standalone="no"?>
<svg
   xmlns:dc="http://purl.org/dc/elements/1.1/"
   xmlns:cc="http://creativecommons.org/ns#"
   xmlns:rdf="http://www.w3.org/1999/02/22-rdf-syntax-ns#"
   xmlns:svg="http://www.w3.org/2000/svg"
   xmlns="http://www.w3.org/2000/svg"
   xmlns:sodipodi="http://sodipodi.sourceforge.net/DTD/sodipodi-0.dtd"
   xmlns:inkscape="http://www.inkscape.org/namespaces/inkscape"
   width="1499"
   height="973.784"
   viewBox="0 0 1499 973.784"
   version="1.1"
   id="svg8"
   sodipodi:docname="linhadireita.svg"
   inkscape:version="0.92.3 (2405546, 2018-03-11)">
  <metadata
     id="metadata12">
    <rdf:RDF>
      <cc:Work
         rdf:about="">
        <dc:format>image/svg+xml</dc:format>
        <dc:type
           rdf:resource="http://purl.org/dc/dcmitype/StillImage" />
        <dc:title></dc:title>
      </cc:Work>
    </rdf:RDF>
  </metadata>
  <sodipodi:namedview
     pagecolor="#ffffff"
     bordercolor="#666666"
     borderopacity="1"
     objecttolerance="10"
     gridtolerance="10"
     guidetolerance="10"
     inkscape:pageopacity="0"
     inkscape:pageshadow="2"
     inkscape:window-width="1920"
     inkscape:window-height="1052"
     id="namedview10"
     showgrid="false"
     inkscape:zoom="1.4279544"
     inkscape:cx="1580.0799"
     inkscape:cy="1105.0894"
     inkscape:window-x="0"
     inkscape:window-y="0"
     inkscape:window-maximized="1"
     inkscape:current-layer="svg8" />
  <defs
     id="defs4">
    <style
       id="style2">.a{fill:#be0027;}</style>
    <style
       id="style16">.a{fill:none;}.b{clip-path:url(#a);}.c{fill:#ede7d9;}</style>
    <clipPath
       id="a">
      <rect
         id="rect18"
         height="1365.792"
         width="975.41602"
         class="a"
         x="0"
         y="0"
         style="fill:none" />
    </clipPath>
    <style
       id="style47">.a{fill:#ede7d9;}</style>
  </defs>
  <path
     class="a"
     d="m 1514.6122,-400.04094 475.3377,645.51177 c -0.6796,0.87441 -1.3708,1.75713 -2.0486,2.61842 -29.9102,38.10244 -67.934,78.35161 -120.0891,103.83527 -0.7618,0.36649 -1.5144,0.7299 -2.2793,1.09377 -26.0285,12.36562 -56.4526,20.86772 -84.7937,30.28404 a 294.36595,202.83986 3.1465883 0 1 -81.8274,17.04127 c -29.6591,2.97387 -62.4209,1.44665 -91.3848,-5.83242 -28.1779,-7.07655 -61.5107,-16.0324 -85.9872,-28.33172 -14.915,-7.49136 -29.5061,-16.42449 -43.9864,-24.15762 -14.7809,-7.88628 -29.4327,-15.73018 -42.8353,-24.75521 -26.3767,-17.76446 -49.8961,-38.59822 -71.7802,-59.04121 -0.7315,-0.67965 -1.4422,-1.35714 -2.1683,-2.02958 -28.0971,-26.32476 -48.53,-53.70236 -70.1047,-82.43234 -24.2018,-32.22346 -37.7785,-65.60576 -52.2301,-100.172583 -7.4169,-17.740272 -14.01,-34.690868 -19.5895,-52.622336 -6.0168,-19.2852195 -11.1432,-38.794872 -12.3281,-58.417892 -0.7225,-11.971468 -0.042,-23.965215 -0.5835,-35.955101 -1.7432,-39.632378 7.8323,-80.096578 14.4598,-119.105278 5.7799,-34.13221 10.4839,-68.33311 13.4187,-102.72581 q 0.5399,-6.27825 0.6892,-12.50469 z"
     id="path6"
     inkscape:connector-curvature="0"
     style="fill:#be0027;stroke-width:0.9558354" />
  <g
     id="g31"
     clip-path="url(#a)"
     class="b"
     transform="matrix(-0.25381444,-0.9667203,0.88518424,-0.2187754,1508.9287,432.06663)">
    <g
       id="g25"
       transform="matrix(0.87726193,0.08404021,0.0840402,1.945825,-165.34351,-1214.7368)">
      <path
         id="path23"
         transform="translate(-251.273,-55.814)"
         d="m 535.151,926.2 a 277.481,277.481 0 0 1 -31.492,-1.938 c -23.56,-2.7 -43.253,-7.253 -61.975,-14.32 -23.186,-8.756 -52.468,-21.426 -73.219,-41.813 -20.22,-19.866 -34.664,-35.947 -46.851,-52.138 -18,-23.923 -32.641,-51.545 -44.75,-84.448 -4.34,-11.789 -8.306,-23.89 -12.139,-35.583 -2.981,-9.1 -6.067,-18.507 -9.3,-27.693 -0.426,-1.211 -0.89,-2.378 -1.354,-3.531 -1.636,-4.115 -3.187,-8 -2.708,-12.751 l 2.383,0.244 c -0.421,4.163 1.024,7.785 2.55,11.622 0.474,1.182 0.952,2.383 1.387,3.622 3.244,9.21 6.33,18.631 9.316,27.741 3.828,11.679 7.785,23.751 12.11,35.5 12.029,32.684 26.559,60.1 44.42,83.841 12.11,16.091 26.483,32.086 46.612,51.865 20.435,20.076 49.42,32.607 72.391,41.282 18.531,7 38.042,11.5 61.4,14.182 33.129,3.8 59.238,1.99 79.827,-5.521 28.971,-10.574 61.841,-23.684 85.2,-45.521 12.234,-11.431 23.89,-25.679 34.631,-42.339 14.45,-22.416 21.129,-47.994 26.258,-70.214 12.287,-53.253 11.842,-109.5 11.411,-163.9 l -0.038,-5.11 c -0.182,-24.028 -1.7,-48.449 -3.168,-72.061 -1.349,-21.722 -2.742,-44.186 -3.1,-66.324 -0.809,-50.018 1.521,-88.5 7.564,-124.778 5.919,-35.54 14.478,-67.42 25.44,-94.74 10.818,-26.976 22.33,-48.483 35.191,-65.75 17.842,-23.957 40.837,-44.54 61.123,-62.7 A 169.973,169.973 0 0 1 899.633,74.9 80.1,80.1 0 0 1 940.465,55.809 l 0.373,2.364 a 77.77,77.77 0 0 0 -39.708,18.6 l -0.177,0.129 a 167.984,167.984 0 0 0 -35.019,27.746 c -20.268,18.148 -43.167,38.645 -60.865,62.41 -12.737,17.1 -24.148,38.43 -34.889,65.21 -10.895,27.162 -19.406,58.87 -25.3,94.243 -6.014,36.129 -8.339,74.477 -7.531,124.347 0.354,22.086 1.746,44.516 3.1,66.214 1.469,23.646 2.986,48.095 3.172,72.19 l 0.038,5.11 c 0.431,54.535 0.875,110.927 -11.474,164.452 -5.172,22.416 -11.918,48.234 -26.578,70.975 -10.851,16.828 -22.626,31.224 -35.009,42.794 -23.693,22.138 -56.822,35.363 -86.018,46.018 -13.899,5.07 -30.229,7.589 -49.429,7.589 z"
         class="c"
         inkscape:connector-curvature="0"
         style="fill:#ede7d9" />
    </g>
    <g
       id="g29"
       transform="translate(425.239,1033.203)" />
  </g>
  <path
     id="path51"
     d="m 1344.4104,353.32902 a 39.719598,36.383657 0 0 0 0.062,5.53254 50.486215,46.246014 0 0 0 2.5102,8.22688 27.686321,25.361022 0 0 0 4.387,8.06417 31.419366,28.780539 0 0 0 11.9805,7.44039 c 2.1278,0.84191 4.6238,2.30876 6.9254,2.6684 1.6735,0.25941 3.5644,0.37143 5.2584,0.47992 5.6537,0.36317 11.6703,-1.62132 16.831,-3.54569 a 34.226873,31.352251 0 0 0 9.7059,-5.42406 c 6.5766,-5.0939 9.1704,-14.06836 8.8087,-21.75166 a 36.300644,33.251851 0 0 0 -8.1329,-18.88988 39.016756,35.739844 0 0 0 -7.6193,-7.32721 21.488179,19.683445 0 0 0 -8.7392,-3.34287 c -4.3934,-0.76644 -9.2142,-2.20853 -13.7221,-1.32182 -2.0597,0.40445 -4.2287,0.81715 -6.3385,1.36309 -2.1343,0.55184 -4.2145,1.27702 -6.3333,1.70033 a 13.281916,12.166404 0 0 0 -5.7219,3.18369 25.814649,23.646547 0 0 0 -5.2777,4.82505 c -1.2744,1.82061 -1.5731,3.811 -2.2875,5.84384 -0.3437,0.97515 -0.5677,1.93969 -0.8907,2.91485 -0.2344,0.70748 -0.6334,1.35247 -0.8883,2.04934 -0.932,2.55167 -0.417,4.36166 -0.5175,7.3107 z"
     class="a"
     inkscape:connector-curvature="0"
     style="fill:#ede7d9;stroke-width:1.23201501" />
  <g
     transform="matrix(0.0643086,1.5157115,-1.2202879,0.07210775,1414.4705,-353.80633)"
     class="b"
     clip-path="url(#a)"
     id="g67">
    <g
       transform="matrix(0.87726193,0.08404021,0.0840402,1.945825,-165.34351,-1214.7368)"
       id="g63">
      <path
         style="fill:#ede7d9"
         inkscape:connector-curvature="0"
         class="c"
         d="m 535.151,926.2 a 277.481,277.481 0 0 1 -31.492,-1.938 c -23.56,-2.7 -43.253,-7.253 -61.975,-14.32 -23.186,-8.756 -52.468,-21.426 -73.219,-41.813 -20.22,-19.866 -34.664,-35.947 -46.851,-52.138 -18,-23.923 -32.641,-51.545 -44.75,-84.448 -4.34,-11.789 -8.306,-23.89 -12.139,-35.583 -2.981,-9.1 -6.067,-18.507 -9.3,-27.693 -0.426,-1.211 -0.89,-2.378 -1.354,-3.531 -1.636,-4.115 -3.187,-8 -2.708,-12.751 l 2.383,0.244 c -0.421,4.163 1.024,7.785 2.55,11.622 0.474,1.182 0.952,2.383 1.387,3.622 3.244,9.21 6.33,18.631 9.316,27.741 3.828,11.679 7.785,23.751 12.11,35.5 12.029,32.684 26.559,60.1 44.42,83.841 12.11,16.091 26.483,32.086 46.612,51.865 20.435,20.076 49.42,32.607 72.391,41.282 18.531,7 38.042,11.5 61.4,14.182 33.129,3.8 59.238,1.99 79.827,-5.521 28.971,-10.574 61.841,-23.684 85.2,-45.521 12.234,-11.431 23.89,-25.679 34.631,-42.339 14.45,-22.416 21.129,-47.994 26.258,-70.214 12.287,-53.253 11.842,-109.5 11.411,-163.9 l -0.038,-5.11 c -0.182,-24.028 -1.7,-48.449 -3.168,-72.061 -1.349,-21.722 -2.742,-44.186 -3.1,-66.324 -0.809,-50.018 1.521,-88.5 7.564,-124.778 5.919,-35.54 14.478,-67.42 25.44,-94.74 10.818,-26.976 22.33,-48.483 35.191,-65.75 17.842,-23.957 40.837,-44.54 61.123,-62.7 A 169.973,169.973 0 0 1 899.633,74.9 80.1,80.1 0 0 1 940.465,55.809 l 0.373,2.364 a 77.77,77.77 0 0 0 -39.708,18.6 l -0.177,0.129 a 167.984,167.984 0 0 0 -35.019,27.746 c -20.268,18.148 -43.167,38.645 -60.865,62.41 -12.737,17.1 -24.148,38.43 -34.889,65.21 -10.895,27.162 -19.406,58.87 -25.3,94.243 -6.014,36.129 -8.339,74.477 -7.531,124.347 0.354,22.086 1.746,44.516 3.1,66.214 1.469,23.646 2.986,48.095 3.172,72.19 l 0.038,5.11 c 0.431,54.535 0.875,110.927 -11.474,164.452 -5.172,22.416 -11.918,48.234 -26.578,70.975 -10.851,16.828 -22.626,31.224 -35.009,42.794 -23.693,22.138 -56.822,35.363 -86.018,46.018 -13.899,5.07 -30.229,7.589 -49.429,7.589 z"
         transform="translate(-251.273,-55.814)"
         id="path61" />
    </g>
    <g
       transform="translate(425.239,1033.203)"
       id="g65" />
  </g>
</svg>
