<svg xmlns="http://www.w3.org/2000/svg" width="154.993" height="157.339" viewBox="0 0 154.993 157.339"><defs><style>.a{fill:#ede7d9;}</style></defs><path class="a" d="M355.965,418.375c0,4.541-.569,9.579.144,14.057a117.5,117.5,0,0,0,5.842,20.9c2.555,7.086,5.258,14.718,10.21,20.488,7.675,8.933,17.316,14.344,27.885,18.9,4.952,2.139,10.76,5.866,16.119,6.78,3.88.66,8.3.943,12.239,1.22,13.158.923,27.162-4.12,39.172-9.009a79.658,79.658,0,0,0,22.588-13.78c15.306-12.942,21.344-35.746,20.5-55.267-.77-17.918-8.148-34.019-18.928-47.995-5.689-7.378-10.411-13.062-17.732-18.617-5.746-4.354-13.316-7.158-20.339-8.493-10.225-1.947-21.445-5.612-31.937-3.359-4.8,1.029-9.842,2.076-14.751,3.464-4.966,1.4-9.808,3.244-14.741,4.32-5.292,1.153-9.344,4.627-13.316,8.091-4.421,3.856-9.038,7.215-12.272,12.258-2.967,4.627-3.66,9.684-5.325,14.847-.8,2.478-1.321,4.928-2.072,7.406-.545,1.8-1.474,3.435-2.067,5.206C355.013,406.285,356.19,410.883,355.965,418.375Z" transform="translate(-355.75 -343.5)"/></svg>