<svg xmlns="http://www.w3.org/2000/svg" width="872.729" height="452.925" viewBox="0 0 872.729 452.925"><defs><style>.a{fill:#ede7d9;}</style></defs><path class="a" d="M367.548,776.14l-3.641-.751-.206-.679c-3.392-11.22-1.263-26.421,1.268-39.808l.593-3.144c3.44-18.354,6.694-35.684,17.65-51.913,9.229-13.674,24.483-33.1,39.607-46.6,32.21-28.751,71.669-47.779,99.1-58.679A477.758,477.758,0,0,0,587.7,542.3c5.187-3.033,10.6-6.105,15.832-9.077,14.134-8.014,28.751-16.306,41.808-25.535,15.89-11.234,29.8-26.368,43.248-41q2.247-2.447,4.469-4.852c7.88-8.536,16.115-16.98,24.076-25.148,8.464-8.684,17.215-17.66,25.545-26.746q2.6-2.835,5.2-5.7c15.148-16.674,30.813-33.918,51.6-44.3,12.694-6.34,26.272-11.187,39.406-15.871,8.646-3.081,17.583-6.273,26.153-9.852,51.224-21.382,103.558-7.354,154.17,6.22,38.947,10.44,89.8,26.258,137.807,56.1,35.923,22.335,57.023,49.44,77.659,83.262l-2.043,1.244c-20.454-33.531-41.358-60.387-76.879-82.472-47.736-29.684-98.376-45.43-137.161-55.827-50.224-13.469-102.151-27.392-152.634-6.321-8.627,3.6-17.593,6.8-26.267,9.895-13.067,4.665-26.574,9.483-39.143,15.756-20.383,10.182-35.894,27.253-50.894,43.77q-2.605,2.864-5.206,5.708c-8.359,9.115-17.124,18.1-25.6,26.8-7.952,8.158-16.172,16.588-24.033,25.1q-2.225,2.4-4.464,4.847c-13.536,14.727-27.531,29.952-43.626,41.334-13.153,9.3-27.823,17.622-42.009,25.665-5.229,2.967-10.636,6.033-15.8,9.062A481.116,481.116,0,0,1,522.8,576.794c-27.253,10.828-66.444,29.717-98.386,58.238-14.962,13.354-30.071,32.6-39.224,46.148C374.514,697,371.308,714.1,367.911,732.2l-.593,3.148c-2.421,12.828-4.478,27.325-1.526,37.99l2.239.459Z" transform="translate(-361.944 -323.215)"/></svg>