<svg xmlns="http://www.w3.org/2000/svg" width="51.734" height="52.517" viewBox="0 0 51.734 52.517"><defs><style>.a{fill:#ede7d9;}</style></defs><path class="a" d="M355.822,368.492a30.856,30.856,0,0,0,.048,4.692,39.22,39.22,0,0,0,1.95,6.977A21.508,21.508,0,0,0,361.228,387a24.408,24.408,0,0,0,9.307,6.31c1.653.714,3.592,1.958,5.38,2.263,1.3.22,2.769.315,4.085.407,4.392.308,9.066-1.375,13.075-3.007a26.589,26.589,0,0,0,7.54-4.6c5.109-4.32,7.124-11.931,6.843-18.447a28.2,28.2,0,0,0-6.318-16.02,30.31,30.31,0,0,0-5.919-6.214,16.693,16.693,0,0,0-6.789-2.835c-3.413-.65-7.158-1.873-10.66-1.121-1.6.343-3.285.693-4.924,1.156-1.658.468-3.274,1.083-4.92,1.442a10.318,10.318,0,0,0-4.445,2.7,20.054,20.054,0,0,0-4.1,4.092c-.99,1.544-1.222,3.232-1.777,4.956-.267.827-.441,1.645-.692,2.472-.182.6-.492,1.147-.69,1.738C355.5,364.456,355.9,365.991,355.822,368.492Z" transform="translate(-355.75 -343.5)"/></svg>