<svg xmlns="http://www.w3.org/2000/svg" width="211.072" height="619.326" viewBox="0 0 211.072 619.326"><defs><style>.a{fill:#e16957;}</style></defs><path class="a" d="M347.492,559.686c1.019-1.569,2.033-3.134,3.077-4.694,33.693-50.688,70.2-105.51,119.544-142.481,37.5-28.11,87.7-43.076,132.725-52.3,14.091-2.885,27.784-3.588,42.019-4.718,21.21-1.684,41.9-5.847,63.219-6.646a269.723,269.723,0,0,1,50.238,2.44c22.392,3.325,43.861,9.818,66.817,20.043,35.229,15.718,67.032,31.2,98.276,53.97q4.2,3.072,8.292,6.258c12.22,9.5,23.727,19.713,35.119,30.1v98.027Z" transform="translate(-348.613 966.818) rotate(-90)"/></svg>