<?xml version="1.0" encoding="UTF-8" standalone="no"?>
<svg
   xmlns:dc="http://purl.org/dc/elements/1.1/"
   xmlns:cc="http://creativecommons.org/ns#"
   xmlns:rdf="http://www.w3.org/1999/02/22-rdf-syntax-ns#"
   xmlns:svg="http://www.w3.org/2000/svg"
   xmlns="http://www.w3.org/2000/svg"
   xmlns:sodipodi="http://sodipodi.sourceforge.net/DTD/sodipodi-0.dtd"
   xmlns:inkscape="http://www.inkscape.org/namespaces/inkscape"
   width="1985"
   height="973.784"
   viewBox="0 0 1985 973.784"
   version="1.1"
   id="svg8"
   sodipodi:docname="cimaxlg.svg"
   inkscape:version="0.92.3 (2405546, 2018-03-11)">
  <metadata
     id="metadata12">
    <rdf:RDF>
      <cc:Work
         rdf:about="">
        <dc:format>image/svg+xml</dc:format>
        <dc:type
           rdf:resource="http://purl.org/dc/dcmitype/StillImage" />
        <dc:title></dc:title>
      </cc:Work>
    </rdf:RDF>
  </metadata>
  <sodipodi:namedview
     pagecolor="#ffffff"
     bordercolor="#666666"
     borderopacity="1"
     objecttolerance="10"
     gridtolerance="10"
     guidetolerance="10"
     inkscape:pageopacity="0"
     inkscape:pageshadow="2"
     inkscape:window-width="1299"
     inkscape:window-height="713"
     id="namedview10"
     showgrid="false"
     inkscape:zoom="6.1809323"
     inkscape:cx="1465.086"
     inkscape:cy="824.28137"
     inkscape:window-x="67"
     inkscape:window-y="1107"
     inkscape:window-maximized="1"
     inkscape:current-layer="svg8" />
  <defs
     id="defs4">
    <style
       id="style2">.a{fill:#be0027;}</style>
    <style
       id="style16">.a{fill:none;}.b{clip-path:url(#a);}.c{fill:#ede7d9;}</style>
    <clipPath
       id="a">
      <rect
         id="rect18"
         height="1365.792"
         width="975.41602"
         class="a"
         x="0"
         y="0"
         style="fill:none" />
    </clipPath>
    <style
       id="style47">.a{fill:#ede7d9;}</style>
  </defs>
  <path
     class="a"
     d="m 341.90849,-483.43783 949.02691,38.45418 c 0.7314,1.32544 1.4676,2.66847 2.1845,3.98214 31.7463,58.04329 62.5896,125.54179 70.3604,195.29585 0.1069,1.01439 0.214,2.01759 0.3165,3.03306 3.4689,34.54084 0.6083,70.34343 -0.3178,104.84411 a 270.77849,317.41902 0 0 1 -14.4621,91.818603 c -8.9634,30.820581 -24.4555,61.169148 -45.0402,83.445824 -20.0203,21.67589 -44.3826,46.8682 -68.9213,60.971328 -14.949,8.596575 -31.4375,15.774115 -46.4854,23.766625 -15.3517,8.16408 -30.6001,16.23668 -46.6978,22.20009 -31.6841,11.73384 -65.7379,18.36114 -98.653,23.71518 -1.0959,0.1817 -2.1807,0.34523 -3.2661,0.52736 -42.35033,6.81417 -82.71493,5.44573 -125.12888,4.13712 -47.57286,-1.46423 -92.0434,-14.04133 -138.25641,-26.68655 -23.71735,-6.48962 -46.17225,-13.16537 -69.34243,-21.56968 C 682.29929,115.47405 657.48515,105.42157 634.18969,91.489795 619.97788,82.990037 606.32784,73.122807 592.17032,64.435157 545.39288,35.672017 502.38819,-4.6203561 459.84027,-40.958377 422.60325,-72.735347 384.83599,-103.52994 346.10504,-132.76963 q -7.06841,-5.34166 -14.24022,-10.26759 z"
     id="path6"
     inkscape:connector-curvature="0"
     style="fill:#be0027;stroke-width:1.14679623" />
  <g
     id="g31"
     clip-path="url(#a)"
     class="b"
     transform="matrix(0.02225042,0.99923712,-0.9117912,0.00711524,1397.2481,-168.99181)">
    <g
       id="g25"
       transform="matrix(0.87726193,0.08404021,0.0840402,1.945825,-165.34351,-1214.7368)">
      <path
         id="path23"
         transform="translate(-251.273,-55.814)"
         d="m 535.151,926.2 a 277.481,277.481 0 0 1 -31.492,-1.938 c -23.56,-2.7 -43.253,-7.253 -61.975,-14.32 -23.186,-8.756 -52.468,-21.426 -73.219,-41.813 -20.22,-19.866 -34.664,-35.947 -46.851,-52.138 -18,-23.923 -32.641,-51.545 -44.75,-84.448 -4.34,-11.789 -8.306,-23.89 -12.139,-35.583 -2.981,-9.1 -6.067,-18.507 -9.3,-27.693 -0.426,-1.211 -0.89,-2.378 -1.354,-3.531 -1.636,-4.115 -3.187,-8 -2.708,-12.751 l 2.383,0.244 c -0.421,4.163 1.024,7.785 2.55,11.622 0.474,1.182 0.952,2.383 1.387,3.622 3.244,9.21 6.33,18.631 9.316,27.741 3.828,11.679 7.785,23.751 12.11,35.5 12.029,32.684 26.559,60.1 44.42,83.841 12.11,16.091 26.483,32.086 46.612,51.865 20.435,20.076 49.42,32.607 72.391,41.282 18.531,7 38.042,11.5 61.4,14.182 33.129,3.8 59.238,1.99 79.827,-5.521 28.971,-10.574 61.841,-23.684 85.2,-45.521 12.234,-11.431 23.89,-25.679 34.631,-42.339 14.45,-22.416 21.129,-47.994 26.258,-70.214 12.287,-53.253 11.842,-109.5 11.411,-163.9 l -0.038,-5.11 c -0.182,-24.028 -1.7,-48.449 -3.168,-72.061 -1.349,-21.722 -2.742,-44.186 -3.1,-66.324 -0.809,-50.018 1.521,-88.5 7.564,-124.778 5.919,-35.54 14.478,-67.42 25.44,-94.74 10.818,-26.976 22.33,-48.483 35.191,-65.75 17.842,-23.957 40.837,-44.54 61.123,-62.7 A 169.973,169.973 0 0 1 899.633,74.9 80.1,80.1 0 0 1 940.465,55.809 l 0.373,2.364 a 77.77,77.77 0 0 0 -39.708,18.6 l -0.177,0.129 a 167.984,167.984 0 0 0 -35.019,27.746 c -20.268,18.148 -43.167,38.645 -60.865,62.41 -12.737,17.1 -24.148,38.43 -34.889,65.21 -10.895,27.162 -19.406,58.87 -25.3,94.243 -6.014,36.129 -8.339,74.477 -7.531,124.347 0.354,22.086 1.746,44.516 3.1,66.214 1.469,23.646 2.986,48.095 3.172,72.19 l 0.038,5.11 c 0.431,54.535 0.875,110.927 -11.474,164.452 -5.172,22.416 -11.918,48.234 -26.578,70.975 -10.851,16.828 -22.626,31.224 -35.009,42.794 -23.693,22.138 -56.822,35.363 -86.018,46.018 -13.899,5.07 -30.229,7.589 -49.429,7.589 z"
         class="c"
         inkscape:connector-curvature="0"
         style="fill:#ede7d9" />
    </g>
    <g
       id="g29"
       transform="translate(425.239,1033.203)" />
  </g>
  <path
     id="path51"
     d="m 469.43516,124.17244 a 71.467023,66.008373 0 0 0 0.11117,10.03731 90.839275,83.900971 0 0 0 4.51649,14.92547 49.815684,46.010762 0 0 0 7.89343,14.63026 56.532509,52.214557 0 0 0 21.55637,13.4986 c 3.82859,1.52742 8.3196,4.18863 12.46087,4.8411 3.01099,0.47063 6.41341,0.67386 9.46146,0.87067 10.17252,0.65889 20.99819,-2.94145 30.28362,-6.43269 a 61.584025,56.880238 0 0 0 17.46375,-9.8405 c 11.83319,-9.24152 16.50023,-25.52327 15.84939,-39.46255 A 65.315338,60.326553 0 0 0 574.39829,92.969484 70.202407,64.840348 0 0 0 560.68902,79.676251 38.663437,35.710324 0 0 0 544.9647,73.611507 c -7.90501,-1.390506 -16.57898,-4.006795 -24.69012,-2.398087 -3.70584,0.733759 -7.60854,1.482493 -11.40471,2.47296 -3.84017,1.001165 -7.58306,2.316797 -11.39544,3.084784 a 23.898002,22.072673 0 0 0 -10.29527,5.77595 46.448006,42.900308 0 0 0 -9.4962,8.75376 c -2.29299,3.303 -2.83034,6.91404 -4.1158,10.602086 -0.61841,1.76915 -1.02142,3.51904 -1.60277,5.2882 -0.42154,1.28354 -1.13954,2.4537 -1.59814,3.71799 -1.67689,4.62932 -0.75043,7.91305 -0.93109,13.26329 z"
     class="a"
     inkscape:connector-curvature="0"
     style="fill:#ede7d9;stroke-width:2.22593641" />
  <g
     transform="matrix(-0.17336881,-1.3452516,1.2119189,-0.14268769,1458.2417,571.93224)"
     class="b"
     clip-path="url(#a)"
     id="g67">
    <g
       transform="matrix(0.87726193,0.08404021,0.0840402,1.945825,-165.34351,-1214.7368)"
       id="g63">
      <path
         style="fill:#ede7d9"
         inkscape:connector-curvature="0"
         class="c"
         d="m 535.151,926.2 a 277.481,277.481 0 0 1 -31.492,-1.938 c -23.56,-2.7 -43.253,-7.253 -61.975,-14.32 -23.186,-8.756 -52.468,-21.426 -73.219,-41.813 -20.22,-19.866 -34.664,-35.947 -46.851,-52.138 -18,-23.923 -32.641,-51.545 -44.75,-84.448 -4.34,-11.789 -8.306,-23.89 -12.139,-35.583 -2.981,-9.1 -6.067,-18.507 -9.3,-27.693 -0.426,-1.211 -0.89,-2.378 -1.354,-3.531 -1.636,-4.115 -3.187,-8 -2.708,-12.751 l 2.383,0.244 c -0.421,4.163 1.024,7.785 2.55,11.622 0.474,1.182 0.952,2.383 1.387,3.622 3.244,9.21 6.33,18.631 9.316,27.741 3.828,11.679 7.785,23.751 12.11,35.5 12.029,32.684 26.559,60.1 44.42,83.841 12.11,16.091 26.483,32.086 46.612,51.865 20.435,20.076 49.42,32.607 72.391,41.282 18.531,7 38.042,11.5 61.4,14.182 33.129,3.8 59.238,1.99 79.827,-5.521 28.971,-10.574 61.841,-23.684 85.2,-45.521 12.234,-11.431 23.89,-25.679 34.631,-42.339 14.45,-22.416 21.129,-47.994 26.258,-70.214 12.287,-53.253 11.842,-109.5 11.411,-163.9 l -0.038,-5.11 c -0.182,-24.028 -1.7,-48.449 -3.168,-72.061 -1.349,-21.722 -2.742,-44.186 -3.1,-66.324 -0.809,-50.018 1.521,-88.5 7.564,-124.778 5.919,-35.54 14.478,-67.42 25.44,-94.74 10.818,-26.976 22.33,-48.483 35.191,-65.75 17.842,-23.957 40.837,-44.54 61.123,-62.7 A 169.973,169.973 0 0 1 899.633,74.9 80.1,80.1 0 0 1 940.465,55.809 l 0.373,2.364 a 77.77,77.77 0 0 0 -39.708,18.6 l -0.177,0.129 a 167.984,167.984 0 0 0 -35.019,27.746 c -20.268,18.148 -43.167,38.645 -60.865,62.41 -12.737,17.1 -24.148,38.43 -34.889,65.21 -10.895,27.162 -19.406,58.87 -25.3,94.243 -6.014,36.129 -8.339,74.477 -7.531,124.347 0.354,22.086 1.746,44.516 3.1,66.214 1.469,23.646 2.986,48.095 3.172,72.19 l 0.038,5.11 c 0.431,54.535 0.875,110.927 -11.474,164.452 -5.172,22.416 -11.918,48.234 -26.578,70.975 -10.851,16.828 -22.626,31.224 -35.009,42.794 -23.693,22.138 -56.822,35.363 -86.018,46.018 -13.899,5.07 -30.229,7.589 -49.429,7.589 z"
         transform="translate(-251.273,-55.814)"
         id="path61" />
    </g>
    <g
       transform="translate(425.239,1033.203)"
       id="g65" />
  </g>
</svg>
