<?xml version="1.0" encoding="UTF-8" standalone="no"?>
<svg
   xmlns:dc="http://purl.org/dc/elements/1.1/"
   xmlns:cc="http://creativecommons.org/ns#"
   xmlns:rdf="http://www.w3.org/1999/02/22-rdf-syntax-ns#"
   xmlns:svg="http://www.w3.org/2000/svg"
   xmlns="http://www.w3.org/2000/svg"
   xmlns:sodipodi="http://sodipodi.sourceforge.net/DTD/sodipodi-0.dtd"
   xmlns:inkscape="http://www.inkscape.org/namespaces/inkscape"
   width="1600"
   height="375.07202"
   viewBox="0 0 1600 375.07203"
   version="1.1"
   id="svg8"
   sodipodi:docname="diretaxlg.svg"
   inkscape:version="0.92.3 (2405546, 2018-03-11)">
  <metadata
     id="metadata12">
    <rdf:RDF>
      <cc:Work
         rdf:about="">
        <dc:format>image/svg+xml</dc:format>
        <dc:type
           rdf:resource="http://purl.org/dc/dcmitype/StillImage" />
        <dc:title></dc:title>
      </cc:Work>
    </rdf:RDF>
  </metadata>
  <sodipodi:namedview
     pagecolor="#ffffff"
     bordercolor="#666666"
     borderopacity="1"
     objecttolerance="10"
     gridtolerance="10"
     guidetolerance="10"
     inkscape:pageopacity="0"
     inkscape:pageshadow="2"
     inkscape:window-width="1920"
     inkscape:window-height="1052"
     id="namedview10"
     showgrid="false"
     inkscape:zoom="0.4416892"
     inkscape:cx="1271.6862"
     inkscape:cy="389.18725"
     inkscape:window-x="0"
     inkscape:window-y="0"
     inkscape:window-maximized="1"
     inkscape:current-layer="svg8"
     width="1400px" />
  <defs
     id="defs4">
    <style
       id="style2">.a{fill:#e16957;}</style>
    <style
       id="style14">.a{fill:#ede7d9;}</style>
  </defs>
  <path
     class="a"
     d="m 353.46239,510.82688 c 1.26512,-1.98942 2.52403,-3.97378 3.82019,-5.95178 41.83069,-64.26997 87.15502,-133.78167 148.41044,-180.65481 46.55234,-35.63886 108.8665,-54.608 164.75613,-66.29679 17.49118,-3.65591 34.48798,-4.54497 52.15762,-5.97539 26.32756,-2.13173 52.0101,-7.40709 78.47281,-8.41654 a 334.79833,342.02731 0 0 1 62.35837,3.10287 c 27.79384,4.22024 54.44154,12.45755 82.93425,25.42756 43.7259,19.93767 83.1993,39.57546 121.9775,68.45486 q 5.2128,3.89622 10.2916,7.93701 c 15.1667,12.0488 29.4481,25.0016 43.5868,38.17501 l -0.017,124.30499 z"
     id="path6"
     inkscape:connector-curvature="0"
     style="fill:#e16957;stroke-width:1.25459647" />
  <path
     id="path17"
     d="m 1110.7032,209.70943 a 30.856,30.856 0 0 0 0.048,4.69202 39.219999,39.219999 0 0 0 1.95,6.97701 21.508,21.508 0 0 0 3.408,6.83898 24.408,24.408 0 0 0 9.307,6.30999 c 1.653,0.71403 3.592,1.95803 5.38,2.26303 1.3,0.21997 2.769,0.31484 4.085,0.40698 4.392,0.30804 9.066,-1.37499 13.075,-3.00699 a 26.589,26.589 0 0 0 7.54,-4.59999 c 5.109,-4.32 7.124,-11.93102 6.843,-18.447 a 28.2,28.2 0 0 0 -6.318,-16.02001 30.31,30.31 0 0 0 -5.919,-6.214 16.693,16.693 0 0 0 -6.789,-2.83497 c -3.413,-0.65001 -7.158,-1.87302 -10.66,-1.12101 -1.6,0.34318 -3.285,0.69301 -4.924,1.15601 -1.658,0.46798 -3.274,1.08298 -4.92,1.442 a 10.318,10.318 0 0 0 -4.445,2.69997 20.054,20.054 0 0 0 -4.1,4.09202 c -0.99,1.54397 -1.222,3.23198 -1.777,4.95597 -0.267,0.827 -0.441,1.645 -0.692,2.472 -0.1821,0.6 -0.492,1.14701 -0.69,1.73802 -0.724,2.164 -0.3241,3.69898 -0.402,6.19997 z"
     class="a"
     inkscape:connector-curvature="0"
     style="fill:#ede7d9;stroke-width:0.99999994" />
</svg>
