<?xml version="1.0" encoding="UTF-8" standalone="no"?>
<svg
   xmlns:dc="http://purl.org/dc/elements/1.1/"
   xmlns:cc="http://creativecommons.org/ns#"
   xmlns:rdf="http://www.w3.org/1999/02/22-rdf-syntax-ns#"
   xmlns:svg="http://www.w3.org/2000/svg"
   xmlns="http://www.w3.org/2000/svg"
   xmlns:sodipodi="http://sodipodi.sourceforge.net/DTD/sodipodi-0.dtd"
   xmlns:inkscape="http://www.inkscape.org/namespaces/inkscape"
   width="273.05801"
   height="331.5"
   viewBox="0 0 273.05801 331.49997"
   version="1.1"
   id="svg8"
   sodipodi:docname="direitacimamobile.svg"
   inkscape:version="0.92.3 (2405546, 2018-03-11)">
  <metadata
     id="metadata12">
    <rdf:RDF>
      <cc:Work
         rdf:about="">
        <dc:format>image/svg+xml</dc:format>
        <dc:type
           rdf:resource="http://purl.org/dc/dcmitype/StillImage" />
        <dc:title></dc:title>
      </cc:Work>
    </rdf:RDF>
  </metadata>
  <sodipodi:namedview
     pagecolor="#ffffff"
     bordercolor="#666666"
     borderopacity="1"
     objecttolerance="10"
     gridtolerance="10"
     guidetolerance="10"
     inkscape:pageopacity="0"
     inkscape:pageshadow="2"
     inkscape:window-width="1920"
     inkscape:window-height="1052"
     id="namedview10"
     showgrid="false"
     inkscape:zoom="0.86113154"
     inkscape:cx="250.25"
     inkscape:cy="331.70415"
     inkscape:window-x="0"
     inkscape:window-y="0"
     inkscape:window-maximized="1"
     inkscape:current-layer="svg8" />
  <defs
     id="defs4">
    <style
       id="style2">.a{fill:#ede7d9;}</style>
    <style
       id="style14">.a{fill:#ede7d9;}</style>
  </defs>
  <path
     class="a"
     d="m 298.87242,287.33505 c -1.82905,6.83035 -3.98838,14.12092 -6.5019,21.92226 a 395.793,395.793 0 0 1 -15.99127,42.2857 c -7.01631,15.54309 -16.36703,35.04094 -26.46462,47.92967 -9.83835,12.55853 -17.44091,21.37608 -24.65432,28.6011 a 120.794,120.794 0 0 1 -34.08686,24.49751 c -4.40047,2.0826 -8.82551,3.87809 -13.09771,5.61305 -3.32724,1.34927 -6.76682,2.74299 -10.16949,4.26564 -0.44796,0.19994 -0.89063,0.43024 -1.32844,0.66188 -1.56306,0.81129 -3.03156,1.58269 -4.3869,0.86052 l 0.52161,-1.65022 c 1.18723,0.63469 2.55978,-0.0837 4.01327,-0.84155 0.44834,-0.23603 0.90319,-0.4735 1.36168,-0.67783 3.41047,-1.52471 6.85468,-2.9203 10.18658,-4.27144 4.27044,-1.73232 8.68497,-3.52336 13.07127,-5.59942 a 119.881,119.881 0 0 0 33.84126,-24.31481 c 7.1673,-7.1804 14.72842,-15.95524 24.52652,-28.45622 9.94244,-12.69216 19.19602,-31.99345 26.1488,-47.39205 a 391.743,391.743 0 0 0 15.84091,-41.89429 c 7.37886,-22.91624 11.72843,-41.37435 13.30747,-56.41788 2.22361,-21.17345 4.40718,-45.28628 2.1517,-63.44573 a 137.878,137.878 0 0 0 -6.37686,-27.72718 c -4.10487,-11.95673 -10.63072,-18.72306 -16.42559,-24.129 -13.89052,-12.95186 -31.08002,-17.22572 -47.70709,-21.34998 l -1.56149,-0.38913 a 184.117,184.117 0 0 0 -22.5127,-3.64749 201.944,201.944 0 0 1 -20.75428,-3.22837 C 176.45913,105.03303 165.1909,100.26914 155.29223,93.073775 A 92.527,92.527 0 0 1 131.24974,67.51689 109.5,109.5 0 0 1 117.86119,37.48974 c -3.93651,-14.460397 -5.87975,-32.2588026 -7.5952,-47.961983 a 161.188,161.188 0 0 1 -1.88519,-27.073049 103.942,103.942 0 0 1 1.85757,-30.182745 l 0.78875,-0.0696 a 100.839,100.839 0 0 0 -1.79815,29.353909 l 0.007,0.134185 a 159.359,159.359 0 0 0 1.86407,26.811691 c 1.71423,15.6883664 3.6495,33.412167 7.55496,47.756587 a 108.613,108.613 0 0 0 13.28293,29.772158 92.127,92.127 0 0 0 23.91387,25.414748 c 9.85972,7.159058 21.08713,11.913049 36.40657,15.407659 a 200.574,200.574 0 0 0 20.72066,3.22247 185.216,185.216 0 0 1 22.55134,3.65783 l 1.56149,0.38913 c 16.66756,4.13926 33.90254,8.42116 47.86448,21.43872 5.84674,5.45191 12.43238,12.28499 16.59742,24.41519 a 139.392,139.392 0 0 1 6.44263,28.0305 c 2.28465,18.4178 0.0877,42.71961 -2.15265,64.05627 a 232.107,232.107 0 0 1 -6.97084,35.27128 z"
     id="path6"
     inkscape:connector-curvature="0"
     style="fill:#ede7d9" />
  <path
     id="path18"
     d="m 196.00386,44.56334 a 30.856,30.856 0 0 0 0.048,4.691998 39.22,39.22 0 0 0 1.95,6.97701 21.508,21.508 0 0 0 3.408,6.839 24.408,24.408 0 0 0 9.307,6.31 c 1.653,0.714 3.592,1.958 5.38,2.263 1.3,0.22 2.769,0.315 4.085,0.407 4.392,0.308 9.066,-1.375 13.075,-3.007 a 26.589,26.589 0 0 0 7.54,-4.6 c 5.109,-4.32 7.124,-11.93101 6.843,-18.447008 a 28.2,28.2 0 0 0 -6.318,-16.02 30.31,30.31 0 0 0 -5.919,-6.214 16.693,16.693 0 0 0 -6.789,-2.835 c -3.413,-0.65 -7.158,-1.873 -10.66,-1.121 -1.6,0.343 -3.285,0.693 -4.924,1.156 -1.658,0.468 -3.274,1.083 -4.92,1.442 a 10.318,10.318 0 0 0 -4.445,2.7 20.054,20.054 0 0 0 -4.1,4.092 c -0.99,1.544 -1.222,3.232 -1.777,4.956 -0.267,0.827 -0.441,1.645 -0.692,2.472 -0.182,0.6 -0.492,1.147 -0.69,1.738 -0.724,2.164 -0.324,3.699 -0.402,6.2 z"
     class="a"
     inkscape:connector-curvature="0"
     style="fill:#ede7d9" />
</svg>
