<?xml version="1.0" encoding="UTF-8" standalone="no"?>
<svg
   xmlns:dc="http://purl.org/dc/elements/1.1/"
   xmlns:cc="http://creativecommons.org/ns#"
   xmlns:rdf="http://www.w3.org/1999/02/22-rdf-syntax-ns#"
   xmlns:svg="http://www.w3.org/2000/svg"
   xmlns="http://www.w3.org/2000/svg"
   xmlns:sodipodi="http://sodipodi.sourceforge.net/DTD/sodipodi-0.dtd"
   xmlns:inkscape="http://www.inkscape.org/namespaces/inkscape"
   width="326.07202"
   height="619.32599"
   viewBox="0 0 326.07202 619.326"
   version="1.1"
   id="svg8"
   sodipodi:docname="esquerdabaixo.svg"
   inkscape:version="0.92.3 (2405546, 2018-03-11)">
  <metadata
     id="metadata12">
    <rdf:RDF>
      <cc:Work
         rdf:about="">
        <dc:format>image/svg+xml</dc:format>
        <dc:type
           rdf:resource="http://purl.org/dc/dcmitype/StillImage" />
        <dc:title></dc:title>
      </cc:Work>
    </rdf:RDF>
  </metadata>
  <sodipodi:namedview
     pagecolor="#ffffff"
     bordercolor="#666666"
     borderopacity="1"
     objecttolerance="10"
     gridtolerance="10"
     guidetolerance="10"
     inkscape:pageopacity="0"
     inkscape:pageshadow="2"
     inkscape:window-width="1920"
     inkscape:window-height="1052"
     id="namedview10"
     showgrid="false"
     inkscape:zoom="0.38105942"
     inkscape:cx="105.536"
     inkscape:cy="414.6335"
     inkscape:window-x="0"
     inkscape:window-y="0"
     inkscape:window-maximized="1"
     inkscape:current-layer="svg8" />
  <defs
     id="defs4">
    <style
       id="style2">.a{fill:#e16957;}</style>
    <style
       id="style14">.a{fill:#ede7d9;}</style>
  </defs>
  <path
     class="a"
     d="m -93.885729,86.388367 c 1.566942,1.022163 3.129893,2.039318 4.687784,3.086463 50.61993,33.79518 105.368178,70.4127 142.239558,119.83118 28.0343,37.55663 42.898999,87.78672 52.032157,132.83023 2.85656,14.09679 3.53194,27.79118 4.63322,42.02843 1.64121,21.21336 5.76247,41.91171 6.51846,63.23228 a 269.723,269.723 0 0 1 -2.54134,50.23298 c -3.37016,22.38524 -9.90645,43.8411 -20.177738,66.77643 -15.789039,35.19722 -31.335159,66.96892 -54.168139,98.16693 q -3.08046,4.19379 -6.27471,8.27936 c -9.52463,12.20081 -19.76083,23.68718 -30.17078,35.05821 l -98.026805,-0.19775 z"
     id="path6"
     inkscape:connector-curvature="0"
     style="fill:#e16957" />
  <path
     id="path18"
     d="m -218.3465,-78.963915 0.24143,-3.709791 0.64407,-0.297729 c 10.64465,-4.907709 25.99402,-4.896532 39.6022,-4.236908 l 3.19575,0.153516 c 18.65309,0.874581 36.26632,1.706225 53.85181,10.318124 14.81664,7.253958 36.161598,19.681618 51.619306,32.798201 32.920387,27.934788 57.211004,64.390842 71.7917137,90.055456 A 477.758,477.758 0 0 0 43.633743,106.81662 c 3.719692,4.71889 7.509207,9.65622 11.1747,14.42809 9.887585,12.89302 20.117143,26.22607 31.059494,37.88474 13.31907,14.18792 30.227643,25.87666 46.575273,37.17707 q 2.73363,1.88786 5.42222,3.75677 c 9.54166,6.62681 19.04116,13.61792 28.22949,20.37573 9.76881,7.18481 19.86644,14.61359 30.01492,21.6102 q 3.16663,2.18395 6.36298,4.36378 c 18.60466,12.70238 37.84521,25.83819 50.99613,44.99384 8.03089,11.69776 14.70504,24.47709 21.15649,36.83916 4.24452,8.13816 8.63914,16.54925 13.36641,24.54344 28.24546,47.7837 21.57277,101.55272 15.11215,153.55357 -4.96616,40.01499 -13.61608,92.56417 -36.54853,144.22962 -17.16464,38.66121 -41.09895,63.29939 -71.75005,88.40482 l -1.514,-1.85181 c 30.388,-24.88502 54.10272,-49.29471 71.07523,-87.52327 22.81337,-51.37525 31.42135,-103.70352 36.36728,-143.55213 6.41016,-51.60207 13.03501,-104.9535 -14.80017,-152.0462 -4.75594,-8.04774 -9.16247,-16.48645 -13.42473,-24.65042 -6.42338,-12.29833 -13.05902,-25.01134 -21.00631,-36.59455 -12.89709,-18.78311 -31.94504,-31.79025 -50.37377,-44.36772 q -3.19605,-2.18491 -6.37173,-4.36862 C 184.576,237.0014 174.46753,229.56 164.68122,222.36552 155.50403,215.61524 146.02046,208.63705 136.5052,202.02575 q -2.68406,-1.87257 -5.41659,-3.7525 C 114.63476,186.89878 97.624327,175.13842 84.130391,160.76787 73.104476,149.02391 62.837879,135.64252 52.914403,122.70201 c -3.660124,-4.7696 -7.442872,-9.70183 -11.15543,-14.39849 A 481.116,481.116 0 0 1 0.51465768,47.296951 C -13.970186,21.7987 -38.08615,-14.411093 -70.741762,-42.112189 c -15.290744,-12.976269 -36.437428,-25.285158 -51.118778,-32.481232 -17.14177,-8.391001 -34.52058,-9.206845 -52.91616,-10.073881 l -3.19972,-0.15297 c -13.03935,-0.627807 -27.68151,-0.664808 -37.83717,3.730528 l -0.14568,2.280924 z"
     class="a"
     inkscape:connector-curvature="0"
     style="fill:#ede7d9" />
</svg>
