<svg xmlns="http://www.w3.org/2000/svg" width="689.566" height="870.388" viewBox="0 0 689.566 870.388"><defs><style>.a{fill:#ede7d9;}</style></defs><g transform="translate(0)"><path class="a" d="M535.151,926.2a277.481,277.481,0,0,1-31.492-1.938c-23.56-2.7-43.253-7.253-61.975-14.32-23.186-8.756-52.468-21.426-73.219-41.813-20.22-19.866-34.664-35.947-46.851-52.138-18-23.923-32.641-51.545-44.75-84.448-4.34-11.789-8.306-23.89-12.139-35.583-2.981-9.1-6.067-18.507-9.3-27.693-.426-1.211-.89-2.378-1.354-3.531-1.636-4.115-3.187-8-2.708-12.751l2.383.244c-.421,4.163,1.024,7.785,2.55,11.622.474,1.182.952,2.383,1.387,3.622,3.244,9.21,6.33,18.631,9.316,27.741,3.828,11.679,7.785,23.751,12.11,35.5,12.029,32.684,26.559,60.1,44.42,83.841,12.11,16.091,26.483,32.086,46.612,51.865,20.435,20.076,49.42,32.607,72.391,41.282,18.531,7,38.042,11.5,61.4,14.182,33.129,3.8,59.238,1.99,79.827-5.521,28.971-10.574,61.841-23.684,85.2-45.521,12.234-11.431,23.89-25.679,34.631-42.339,14.45-22.416,21.129-47.994,26.258-70.214,12.287-53.253,11.842-109.5,11.411-163.9l-.038-5.11c-.182-24.028-1.7-48.449-3.168-72.061-1.349-21.722-2.742-44.186-3.1-66.324-.809-50.018,1.521-88.5,7.564-124.778,5.919-35.54,14.478-67.42,25.44-94.74,10.818-26.976,22.33-48.483,35.191-65.75,17.842-23.957,40.837-44.54,61.123-62.7A169.973,169.973,0,0,1,899.633,74.9a80.1,80.1,0,0,1,40.832-19.091l.373,2.364a77.77,77.77,0,0,0-39.708,18.6l-.177.129a167.984,167.984,0,0,0-35.019,27.746c-20.268,18.148-43.167,38.645-60.865,62.41-12.737,17.1-24.148,38.43-34.889,65.21-10.895,27.162-19.406,58.87-25.3,94.243-6.014,36.129-8.339,74.477-7.531,124.347.354,22.086,1.746,44.516,3.1,66.214,1.469,23.646,2.986,48.095,3.172,72.19l.038,5.11c.431,54.535.875,110.927-11.474,164.452-5.172,22.416-11.918,48.234-26.578,70.975-10.851,16.828-22.626,31.224-35.009,42.794-23.693,22.138-56.822,35.363-86.018,46.018C570.681,923.681,554.351,926.2,535.151,926.2Z" transform="translate(-251.273 -55.814)"/></g></svg>