<svg xmlns="http://www.w3.org/2000/svg" xmlns:xlink="http://www.w3.org/1999/xlink" width="975.416" height="1365.792" viewBox="0 0 975.416 1365.792"><defs><style>.a{fill:none;}.b{clip-path:url(#a);}.c{fill:#ede7d9;}</style><clipPath id="a"><rect class="a" width="975.416" height="1365.792"/></clipPath></defs><g class="b"><g transform="translate(-104.28 -246.209)"><path class="c" d="M535.151,926.2a277.481,277.481,0,0,1-31.492-1.938c-23.56-2.7-43.253-7.253-61.975-14.32-23.186-8.756-52.468-21.426-73.219-41.813-20.22-19.866-34.664-35.947-46.851-52.138-18-23.923-32.641-51.545-44.75-84.448-4.34-11.789-8.306-23.89-12.139-35.583-2.981-9.1-6.067-18.507-9.3-27.693-.426-1.211-.89-2.378-1.354-3.531-1.636-4.115-3.187-8-2.708-12.751l2.383.244c-.421,4.163,1.024,7.785,2.55,11.622.474,1.182.952,2.383,1.387,3.622,3.244,9.21,6.33,18.631,9.316,27.741,3.828,11.679,7.785,23.751,12.11,35.5,12.029,32.684,26.559,60.1,44.42,83.841,12.11,16.091,26.483,32.086,46.612,51.865,20.435,20.076,49.42,32.607,72.391,41.282,18.531,7,38.042,11.5,61.4,14.182,33.129,3.8,59.238,1.99,79.827-5.521,28.971-10.574,61.841-23.684,85.2-45.521,12.234-11.431,23.89-25.679,34.631-42.339,14.45-22.416,21.129-47.994,26.258-70.214,12.287-53.253,11.842-109.5,11.411-163.9l-.038-5.11c-.182-24.028-1.7-48.449-3.168-72.061-1.349-21.722-2.742-44.186-3.1-66.324-.809-50.018,1.521-88.5,7.564-124.778,5.919-35.54,14.478-67.42,25.44-94.74,10.818-26.976,22.33-48.483,35.191-65.75,17.842-23.957,40.837-44.54,61.123-62.7A169.973,169.973,0,0,1,899.633,74.9a80.1,80.1,0,0,1,40.832-19.091l.373,2.364a77.77,77.77,0,0,0-39.708,18.6l-.177.129a167.984,167.984,0,0,0-35.019,27.746c-20.268,18.148-43.167,38.645-60.865,62.41-12.737,17.1-24.148,38.43-34.889,65.21-10.895,27.162-19.406,58.87-25.3,94.243-6.014,36.129-8.339,74.477-7.531,124.347.354,22.086,1.746,44.516,3.1,66.214,1.469,23.646,2.986,48.095,3.172,72.19l.038,5.11c.431,54.535.875,110.927-11.474,164.452-5.172,22.416-11.918,48.234-26.578,70.975-10.851,16.828-22.626,31.224-35.009,42.794-23.693,22.138-56.822,35.363-86.018,46.018C570.681,923.681,554.351,926.2,535.151,926.2Z" transform="translate(-251.273 -55.814)"/></g><g transform="translate(425.239 1033.203)"><path class="c" d="M367.548,776.14l-3.641-.751-.206-.679c-3.392-11.22-1.263-26.421,1.268-39.808l.593-3.144c3.44-18.354,6.694-35.684,17.65-51.913,9.229-13.674,24.483-33.1,39.607-46.6,32.21-28.751,71.669-47.779,99.1-58.679A477.758,477.758,0,0,0,587.7,542.3c5.187-3.033,10.6-6.105,15.832-9.077,14.134-8.014,28.751-16.306,41.808-25.535,15.89-11.234,29.8-26.368,43.248-41q2.247-2.447,4.469-4.852c7.88-8.536,16.115-16.98,24.076-25.148,8.464-8.684,17.215-17.66,25.545-26.746q2.6-2.835,5.2-5.7c15.148-16.674,30.813-33.918,51.6-44.3,12.694-6.34,26.272-11.187,39.406-15.871,8.646-3.081,17.583-6.273,26.153-9.852,51.224-21.382,103.558-7.354,154.17,6.22,38.947,10.44,89.8,26.258,137.807,56.1,35.923,22.335,57.023,49.44,77.659,83.262l-2.043,1.244c-20.454-33.531-41.358-60.387-76.879-82.472-47.736-29.684-98.376-45.43-137.161-55.827-50.224-13.469-102.151-27.392-152.634-6.321-8.627,3.6-17.593,6.8-26.267,9.895-13.067,4.665-26.574,9.483-39.143,15.756-20.383,10.182-35.894,27.253-50.894,43.77q-2.605,2.864-5.206,5.708c-8.359,9.115-17.124,18.1-25.6,26.8-7.952,8.158-16.172,16.588-24.033,25.1q-2.225,2.4-4.464,4.847c-13.536,14.727-27.531,29.952-43.626,41.334-13.153,9.3-27.823,17.622-42.009,25.665-5.229,2.967-10.636,6.033-15.8,9.062A481.116,481.116,0,0,1,522.8,576.794c-27.253,10.828-66.444,29.717-98.386,58.238-14.962,13.354-30.071,32.6-39.224,46.148C374.514,697,371.308,714.1,367.911,732.2l-.593,3.148c-2.421,12.828-4.478,27.325-1.526,37.99l2.239.459Z" transform="translate(-361.944 -323.215)"/></g></g></svg>